0
SECTION
2
HEADER
9
$INSUNITS
70
4
0
ENDSEC
0
SECTION
2
TABLES
0
TABLE
2
LTYPE
0
LTYPE
72
65
70
64
2
CONTINUOUS
3
______
73
0
40
0
0
ENDTAB
0
TABLE
2
LAYER
0
ENDTAB
0
ENDSEC
0
SECTION
2
ENTITIES
0
LINE
8
front_outsideCutPath
10
0
20
253
11
0
21
163.25
0
LINE
8
front_outsideCutPath
10
0
20
163.25
11
3
21
163.25
0
LINE
8
front_outsideCutPath
10
3
20
163.25
11
3
21
92.75
0
LINE
8
front_outsideCutPath
10
3
20
92.75
11
0
21
92.75
0
LINE
8
front_outsideCutPath
10
0
20
92.75
11
0
21
22.25
0
LINE
8
front_outsideCutPath
10
0
20
22.25
11
0
21
3
0
LINE
8
front_outsideCutPath
10
0
20
3
11
86.25
21
3
0
LINE
8
front_outsideCutPath
10
86.25
20
3
11
86.25
21
6
0
LINE
8
front_outsideCutPath
10
86.25
20
6
11
156.75
21
6
0
LINE
8
front_outsideCutPath
10
156.75
20
6
11
156.75
21
3
0
LINE
8
front_outsideCutPath
10
156.75
20
3
11
227.25
21
3
0
LINE
8
front_outsideCutPath
10
227.25
20
3
11
227.25
21
6
0
LINE
8
front_outsideCutPath
10
227.25
20
6
11
297.75
21
6
0
LINE
8
front_outsideCutPath
10
297.75
20
6
11
297.75
21
3
0
LINE
8
front_outsideCutPath
10
297.75
20
3
11
368.25
21
3
0
LINE
8
front_outsideCutPath
10
368.25
20
3
11
368.25
21
6
0
LINE
8
front_outsideCutPath
10
368.25
20
6
11
438.75
21
6
0
LINE
8
front_outsideCutPath
10
438.75
20
6
11
438.75
21
3
0
LINE
8
front_outsideCutPath
10
438.75
20
3
11
509.25
21
3
0
LINE
8
front_outsideCutPath
10
509.25
20
3
11
525
21
3
0
LINE
8
front_outsideCutPath
10
525
20
3
11
525
21
92.75
0
LINE
8
front_outsideCutPath
10
525
20
92.75
11
522
21
92.75
0
LINE
8
front_outsideCutPath
10
522
20
92.75
11
522
21
163.25
0
LINE
8
front_outsideCutPath
10
522
20
163.25
11
525
21
163.25
0
LINE
8
front_outsideCutPath
10
525
20
163.25
11
525
21
233.75
0
LINE
8
front_outsideCutPath
10
525
20
233.75
11
525
21
253
0
LINE
8
front_outsideCutPath
10
525
20
253
11
0
21
253
0
LINE
8
front_labelLayer
10
221.0815429
20
135.8740645
11
221.0815429
21
132.7246505
0
LINE
8
front_labelLayer
10
221.0815429
20
132.7246505
11
214.2700195
21
132.7246505
0
LINE
8
front_labelLayer
10
214.2700195
20
132.7246505
11
214.2700195
21
109.116252
0
LINE
8
front_labelLayer
10
214.2700195
20
109.116252
11
210.2172851
21
109.116252
0
LINE
8
front_labelLayer
10
210.2172851
20
109.116252
11
210.2172851
21
132.7246505
0
LINE
8
front_labelLayer
10
210.2172851
20
132.7246505
11
205.4321289
21
132.7246505
0
LINE
8
front_labelLayer
10
205.4321289
20
132.7246505
11
205.4321289
21
134.5557052
0
LINE
8
front_labelLayer
10
205.4321289
20
134.5557052
11
210.2172851
21
136.0205489
0
LINE
8
front_labelLayer
10
210.2172851
20
136.0205489
11
210.2172851
21
137.5098067
0
LINE
8
front_labelLayer
10
223.8159179
20
146.5185958
11
222.7661133
21
143.2715255
0
LINE
8
front_labelLayer
10
214.2700195
20
137.607463
11
214.2700195
21
135.8740645
0
LINE
8
front_labelLayer
10
214.2700195
20
135.8740645
11
221.0815429
21
135.8740645
0
ARC
8
front_labelLayer
10
226.6416072
20
137.6986285
40
16.4254075
50
167.5775992
51
180.6586702
0
ARC
8
front_labelLayer
10
218.9178398
20
139.4993629
40
8.4956527
50
141.7433877
51
168.2322068
0
ARC
8
front_labelLayer
10
217.6602533
20
140.1557291
40
7.1066049
50
98.2551477
51
139.6203361
0
ARC
8
front_labelLayer
10
218.7644325
20
135.0548468
40
12.3184458
50
89.669684
51
99.9314335
0
ARC
8
front_labelLayer
10
218.767512
20
134.3225059
40
13.050759
50
81.5640958
51
89.7017388
0
ARC
8
front_labelLayer
10
217.8500245
20
127.9216042
40
19.5170301
50
75.9739905
51
81.6564823
0
ARC
8
front_labelLayer
10
216.2755046
20
121.390858
40
26.2347298
50
73.2963796
51
76.0946112
0
ARC
8
front_labelLayer
10
216.6720493
20
124.5589046
40
19.6799338
50
71.9613329
51
76.5918335
0
ARC
8
front_labelLayer
10
218.1988401
20
131.0357091
40
13.0256373
50
76.5183354
51
83.021688
0
ARC
8
front_labelLayer
10
218.7306715
20
135.3126251
40
8.7157934
50
83.0760775
51
89.7926918
0
ARC
8
front_labelLayer
10
218.7131687
20
138.563031
40
5.4655504
50
89.4859211
51
103.4197528
0
ARC
8
front_labelLayer
10
218.2204099
20
140.4561554
40
3.5099824
50
102.7677394
51
144.3380275
0
ARC
8
front_labelLayer
10
219.2131178
20
139.8174399
40
4.6892823
50
145.0688708
51
162.1801724
0
ARC
8
front_labelLayer
10
222.6167604
20
138.6722836
40
8.2802192
50
161.8437623
51
171.7846966
0
ARC
8
front_labelLayer
10
228.168102
20
137.838485
40
13.8937746
50
171.6527632
51
178.4383658
0
ARC
8
front_labelLayer
10
233.4041561
20
137.6152069
40
19.1341381
50
178.1973114
51
180.0231886
0
LINE
8
front_labelLayer
10
241.3696289
20
136.069377
11
240.8081054
21
132.3096114
0
LINE
8
front_labelLayer
10
230.0170898
20
123.4717208
11
230.0170898
21
109.116252
0
LINE
8
front_labelLayer
10
230.0170898
20
109.116252
11
225.9643554
21
109.116252
0
LINE
8
front_labelLayer
10
225.9643554
20
109.116252
11
225.9643554
21
135.8740645
0
LINE
8
front_labelLayer
10
225.9643554
20
135.8740645
11
229.309082
21
135.8740645
0
LINE
8
front_labelLayer
10
229.309082
20
135.8740645
11
229.7729492
21
130.9180099
0
LINE
8
front_labelLayer
10
229.7729492
20
130.9180099
11
229.9682617
21
130.9180099
0
ARC
8
front_labelLayer
10
238.2129849
20
117.7569125
40
18.6054798
50
84.9922948
51
90.1281024
0
ARC
8
front_labelLayer
10
238.6597972
20
122.7629805
40
13.5795204
50
78.4891893
51
85.0265913
0
ARC
8
front_labelLayer
10
236.9255521
20
114.8752091
40
17.8614838
50
77.4453841
51
81.636039
0
ARC
8
front_labelLayer
10
237.7037566
20
120.2393051
40
12.4412464
50
81.58843
51
87.1916726
0
ARC
8
front_labelLayer
10
237.8727787
20
123.1703081
40
9.5055158
50
87.3436582
51
89.9660084
0
ARC
8
front_labelLayer
10
237.8335048
20
125.653777
40
7.022189
50
89.6335397
51
137.0880807
0
ARC
8
front_labelLayer
10
239.5567714
20
123.7158975
40
9.6069116
50
135.620896
51
138.8377622
0
ARC
8
front_labelLayer
10
239.3043508
20
123.9622877
40
9.2547251
50
138.9575765
51
174.5422234
0
ARC
8
front_labelLayer
10
242.3184199
20
123.4906718
40
12.3013448
50
173.6907525
51
180.0882678
0
ARC
8
front_labelLayer
10
241.8922643
20
124.2000819
40
13.6862119
50
139.4139296
51
150.6032905
0
ARC
8
front_labelLayer
10
239.4383147
20
126.3028612
40
10.4545637
50
124.2321392
51
139.4161138
0
ARC
8
front_labelLayer
10
238.1262181
20
128.2834681
40
8.0790042
50
89.6796658
51
124.4405657
0
ARC
8
front_labelLayer
10
248.5366709
20
122.3784442
40
20.9340196
50
349.1761872
51
0.3862663
0
ARC
8
front_labelLayer
10
255.58465
20
120.9734146
40
13.7476953
50
330.2507078
51
349.4116456
0
ARC
8
front_labelLayer
10
257.7536629
20
119.8460483
40
11.3055623
50
318.1439797
51
329.7566206
0
ARC
8
front_labelLayer
10
258.1451456
20
119.5323141
40
10.804669
50
278.8959147
51
317.9979151
0
ARC
8
front_labelLayer
10
257.1364585
20
124.3650188
40
15.7371975
50
269.7502869
51
279.803325
0
ARC
8
front_labelLayer
10
256.97287
20
121.6420925
40
13.0144684
50
253.5436929
51
270.418243
0
ARC
8
front_labelLayer
10
256.539645
20
119.9662692
40
11.2847235
50
238.8115579
51
253.2428333
0
ARC
8
front_labelLayer
10
256.3998262
20
119.685094
40
10.9718118
50
207.7947028
51
238.6757981
0
ARC
8
front_labelLayer
10
258.4061103
20
120.9138446
40
13.3204523
50
205.6560147
51
208.4461215
0
ARC
8
front_labelLayer
10
259.9514196
20
121.5577226
40
14.9924494
50
188.9102415
51
205.3171463
0
ARC
8
front_labelLayer
10
265.1593024
20
122.4397694
40
20.2742056
50
179.7744729
51
189.0932824
0
ARC
8
front_labelLayer
10
265.9275258
20
122.6620985
40
21.0427546
50
169.244298
51
180.388077
0
ARC
8
front_labelLayer
10
258.781566
20
124.0745956
40
13.7588397
50
150.7111468
51
169.469546
0
ARC
8
front_labelLayer
10
256.5003607
20
125.2460775
40
11.1965465
50
138.1759418
51
150.2287358
0
ARC
8
front_labelLayer
10
256.1208966
20
125.5372724
40
10.71965
50
99.1759346
51
137.9832749
0
ARC
8
front_labelLayer
10
257.1653186
20
120.6221111
40
15.7404061
50
89.7326345
51
100.0759839
0
ARC
8
front_labelLayer
10
257.3740616
20
122.744797
40
13.6182208
50
73.5222775
51
90.569222
0
ARC
8
front_labelLayer
10
258.1726902
20
125.6464286
40
10.6093881
50
41.1445663
51
73.2133843
0
ARC
8
front_labelLayer
10
256.648175
20
124.3361284
40
12.6195643
50
13.5014348
51
41.0703433
0
ARC
8
front_labelLayer
10
250.7582193
20
122.7948058
40
18.707006
50
1.1277227
51
13.8800009
0
ARC
8
front_labelLayer
10
245.6855961
20
122.5229423
40
23.784619
50
359.9918821
51
1.5420054
0
ARC
8
front_labelLayer
10
269.60718
20
122.4142507
40
20.5229776
50
179.7059631
51
187.9160745
0
ARC
8
front_labelLayer
10
262.0799973
20
121.332981
40
12.9186528
50
187.7639309
51
200.0976797
0
ARC
8
front_labelLayer
10
257.9332864
20
119.8136225
40
8.5023584
50
200.084591
51
216.9131648
0
ARC
8
front_labelLayer
10
256.4190602
20
118.7323936
40
6.6424257
50
217.3009569
51
261.7099105
0
ARC
8
front_labelLayer
10
257.1220156
20
122.0868194
40
10.0653879
50
260.5033149
51
270.2476852
0
ARC
8
front_labelLayer
10
257.2561896
20
121.4345527
40
9.4134639
50
269.4481687
51
284.7255702
0
ARC
8
front_labelLayer
10
258.0013989
20
118.670814
40
6.5511027
50
284.5662283
51
322.6333807
0
ARC
8
front_labelLayer
10
256.2590648
20
119.9295725
40
8.6999982
50
323.0089253
51
342.6390512
0
ARC
8
front_labelLayer
10
251.2756058
20
121.5583099
40
13.9425934
50
342.3615728
51
353.753756
0
ARC
8
front_labelLayer
10
243.9233813
20
122.4445246
40
21.3477466
50
353.5363063
51
0.201423
0
ARC
8
front_labelLayer
10
245.0498272
20
122.62278
40
20.2214323
50
359.7075683
51
7.8972728
0
ARC
8
front_labelLayer
10
252.4554854
20
123.6844509
40
12.7401843
50
7.7439892
51
20.0690193
0
ARC
8
front_labelLayer
10
256.5822019
20
125.1988005
40
8.3443927
50
20.0257079
51
37.43505
0
ARC
8
front_labelLayer
10
257.9514168
20
126.1703748
40
6.6668719
50
37.9577646
51
80.4006197
0
ARC
8
front_labelLayer
10
257.173336
20
122.6986538
40
10.2214662
50
79.3453451
51
90.3174754
0
ARC
8
front_labelLayer
10
257.029266
20
123.2753195
40
9.6450398
50
89.4806012
51
103.8805054
0
ARC
8
front_labelLayer
10
256.2188323
20
126.3614462
40
6.4547794
50
103.4685204
51
142.3118918
0
ARC
8
front_labelLayer
10
257.7943759
20
125.2534113
40
8.3794431
50
142.9025722
51
162.3749637
0
ARC
8
front_labelLayer
10
262.7589238
20
123.5989878
40
13.6120832
50
162.0653142
51
173.1674842
0
ARC
8
front_labelLayer
10
270.4999813
20
122.6116628
40
21.4157067
50
173.0086204
51
180.2463805
0
LINE
8
front_labelLayer
10
298.9379883
20
109.116252
11
294.8852539
21
109.116252
0
LINE
8
front_labelLayer
10
294.8852539
20
109.116252
11
294.8852539
21
126.4258224
0
LINE
8
front_labelLayer
10
280.6274414
20
123.154338
11
280.6274414
21
109.116252
0
LINE
8
front_labelLayer
10
280.6274414
20
109.116252
11
276.574707
21
109.116252
0
LINE
8
front_labelLayer
10
276.574707
20
109.116252
11
276.574707
21
135.8740645
0
LINE
8
front_labelLayer
10
276.574707
20
135.8740645
11
279.8706054
21
135.8740645
0
LINE
8
front_labelLayer
10
279.8706054
20
135.8740645
11
280.5297851
21
132.2119552
0
LINE
8
front_labelLayer
10
280.5297851
20
132.2119552
11
280.7250976
21
132.2119552
0
LINE
8
front_labelLayer
10
298.9379883
20
126.5723067
11
298.9379883
21
109.116252
0
ARC
8
front_labelLayer
10
283.4294065
20
126.4915233
40
11.4560358
50
359.6714042
51
8.6877362
0
ARC
8
front_labelLayer
10
287.6753248
20
127.1649005
40
7.1571623
50
8.4931386
51
22.6579922
0
ARC
8
front_labelLayer
10
289.832551
20
128.0613769
40
4.8210814
50
22.7024428
51
42.3419505
0
ARC
8
front_labelLayer
10
290.075037
20
128.1704548
40
4.5691293
50
43.3790921
51
71.5386049
0
ARC
8
front_labelLayer
10
289.1682723
20
125.6367147
40
7.2598471
50
71.0828147
51
84.3691138
0
ARC
8
front_labelLayer
10
288.7612392
20
122.1759784
40
10.7440218
50
84.019793
51
90.1510734
0
ARC
8
front_labelLayer
10
288.6458464
20
120.6545169
40
12.2657551
50
89.5933046
51
100.3717901
0
ARC
8
front_labelLayer
10
287.7790351
20
125.2023887
40
7.6362133
50
100.1176397
51
118.1602624
0
ARC
8
front_labelLayer
10
286.9055079
20
126.9153014
40
5.7139326
50
118.543936
51
139.1926791
0
ARC
8
front_labelLayer
10
287.6671802
20
126.4042114
40
6.6253856
50
140.1519174
51
160.3146331
0
ARC
8
front_labelLayer
10
292.2666257
20
124.6814562
40
11.5365715
50
159.9534398
51
171.3801162
0
ARC
8
front_labelLayer
10
299.7799562
20
123.4737156
40
19.1461698
50
171.1765868
51
178.3217534
0
ARC
8
front_labelLayer
10
306.5901661
20
123.1650635
40
25.9627269
50
178.0810499
51
180.0236696
0
ARC
8
front_labelLayer
10
287.6579176
20
127.8211702
40
8.2062772
50
116.9442896
51
147.6525623
0
ARC
8
front_labelLayer
10
288.5123939
20
126.3918959
40
9.8682435
50
115.807215
51
117.6066755
0
ARC
8
front_labelLayer
10
288.9487645
20
125.3743352
40
10.974403
50
94.3226743
51
115.5454368
0
ARC
8
front_labelLayer
10
289.2114366
20
123.092179
40
13.2701703
50
89.9578824
51
94.710881
0
ARC
8
front_labelLayer
10
289.3200047
20
120.361767
40
16.0008839
50
80.5585394
51
90.3538318
0
ARC
8
front_labelLayer
10
290.3199598
20
126.1538907
40
10.1232543
50
65.1094212
51
80.7638241
0
ARC
8
front_labelLayer
10
291.4888613
20
128.7429739
40
7.2827469
50
46.5584465
51
64.8782428
0
ARC
8
front_labelLayer
10
291.5824097
20
129.0126671
40
7.0235871
50
19.384886
51
45.5997044
0
ARC
8
front_labelLayer
10
287.5190552
20
127.4880245
40
11.3629914
50
6.9633621
51
19.836347
0
ARC
8
front_labelLayer
10
281.2520312
20
126.6454163
40
17.6861082
50
359.7631542
51
7.2115568
0
LINE
8
front_labelLayer
10
319.5678711
20
112.4609786
11
319.5678711
21
109.3603927
0
LINE
8
front_labelLayer
10
307.5561523
20
116.8066817
11
307.5561523
21
132.7246505
0
LINE
8
front_labelLayer
10
307.5561523
20
132.7246505
11
303.7231445
21
132.7246505
0
LINE
8
front_labelLayer
10
303.7231445
20
132.7246505
11
303.7231445
21
134.6777755
0
LINE
8
front_labelLayer
10
303.7231445
20
134.6777755
11
307.5561523
21
136.3623458
0
LINE
8
front_labelLayer
10
307.5561523
20
136.3623458
11
309.2651367
21
142.0752364
0
LINE
8
front_labelLayer
10
309.2651367
20
142.0752364
11
311.6088867
21
142.0752364
0
LINE
8
front_labelLayer
10
311.6088867
20
142.0752364
11
311.6088867
21
135.8740645
0
LINE
8
front_labelLayer
10
311.6088867
20
135.8740645
11
319.3725586
21
135.8740645
0
LINE
8
front_labelLayer
10
319.3725586
20
135.8740645
11
319.3725586
21
132.7246505
0
LINE
8
front_labelLayer
10
319.3725586
20
132.7246505
11
311.6088867
21
132.7246505
0
LINE
8
front_labelLayer
10
311.6088867
20
132.7246505
11
311.6088867
21
116.9775802
0
ARC
8
front_labelLayer
10
315.9335534
20
125.2824208
40
13.3097524
50
269.8803621
51
278.302828
0
ARC
8
front_labelLayer
10
316.0604867
20
124.2457539
40
12.2656452
50
278.4153916
51
279.0080435
0
ARC
8
front_labelLayer
10
314.5669973
20
133.7866862
40
21.9227514
50
278.9589502
51
280.5104591
0
ARC
8
front_labelLayer
10
315.9901386
20
126.1507391
40
14.1553221
50
280.4847486
51
282.62684
0
ARC
8
front_labelLayer
10
317.2383028
20
120.6055252
40
8.471375
50
282.5876742
51
285.5795064
0
ARC
8
front_labelLayer
10
317.86297
20
118.307939
40
6.0904543
50
285.7239938
51
286.2560288
0
ARC
8
front_labelLayer
10
317.8639921
20
112.9641906
40
3.9862969
50
287.988839
51
295.3048269
0
ARC
8
front_labelLayer
10
316.9025257
20
115.8730825
40
7.0499421
50
283.3069314
51
288.1197563
0
ARC
8
front_labelLayer
10
315.8868478
20
120.1097785
40
11.4066711
50
280.0070122
51
283.3735287
0
ARC
8
front_labelLayer
10
315.2070509
20
123.7990737
40
15.1579929
50
279.186308
51
280.1142508
0
ARC
8
front_labelLayer
10
314.7901197
20
126.1704793
40
17.5655762
50
275.5260332
51
279.2939486
0
ARC
8
front_labelLayer
10
315.2601931
20
121.2605601
40
12.6332094
50
270.8932523
51
275.5483775
0
ARC
8
front_labelLayer
10
315.3192532
20
119.0153795
40
10.3874088
50
270.0031497
51
270.7605869
0
ARC
8
front_labelLayer
10
315.1562833
20
119.2118536
40
10.5851463
50
253.7847941
51
270.8852572
0
ARC
8
front_labelLayer
10
313.9022255
20
114.9350393
40
6.1282826
50
190.3817649
51
253.8772393
0
ARC
8
front_labelLayer
10
320.2941462
20
116.6633014
40
12.7388009
50
179.3550995
51
192.8477604
0
ARC
8
front_labelLayer
10
319.7695905
20
116.92654
40
8.1608634
50
179.6416551
51
189.7505883
0
ARC
8
front_labelLayer
10
316.8886521
20
116.4126903
40
5.2345495
50
189.5479593
51
205.7873558
0
ARC
8
front_labelLayer
10
315.7046977
20
115.8667318
40
3.9310598
50
206.1294288
51
221.4084071
0
ARC
8
front_labelLayer
10
315.5719499
20
115.7660046
40
3.7648939
50
221.5949167
51
262.3505195
0
ARC
8
front_labelLayer
10
315.8876758
20
117.3895849
40
5.4169178
50
261.3266174
51
270.1912984
0
LINE
8
left_outsideCutPath
10
531
20
253
11
531
21
163.25
0
LINE
8
left_outsideCutPath
10
531
20
163.25
11
528
21
163.25
0
LINE
8
left_outsideCutPath
10
528
20
163.25
11
528
21
92.75
0
LINE
8
left_outsideCutPath
10
528
20
92.75
11
531
21
92.75
0
LINE
8
left_outsideCutPath
10
531
20
92.75
11
531
21
22.25
0
LINE
8
left_outsideCutPath
10
531
20
22.25
11
531
21
3
0
LINE
8
left_outsideCutPath
10
531
20
3
11
633.25
21
3
0
LINE
8
left_outsideCutPath
10
633.25
20
3
11
633.25
21
6
0
LINE
8
left_outsideCutPath
10
633.25
20
6
11
703.75
21
6
0
LINE
8
left_outsideCutPath
10
703.75
20
6
11
703.75
21
3
0
LINE
8
left_outsideCutPath
10
703.75
20
3
11
774.25
21
3
0
LINE
8
left_outsideCutPath
10
774.25
20
3
11
774.25
21
6
0
LINE
8
left_outsideCutPath
10
774.25
20
6
11
844.75
21
6
0
LINE
8
left_outsideCutPath
10
844.75
20
6
11
844.75
21
3
0
LINE
8
left_outsideCutPath
10
844.75
20
3
11
915.25
21
3
0
LINE
8
left_outsideCutPath
10
915.25
20
3
11
915.25
21
6
0
LINE
8
left_outsideCutPath
10
915.25
20
6
11
985.75
21
6
0
LINE
8
left_outsideCutPath
10
985.75
20
6
11
985.75
21
3
0
LINE
8
left_outsideCutPath
10
985.75
20
3
11
1056.25
21
3
0
LINE
8
left_outsideCutPath
10
1056.25
20
3
11
1056.25
21
6
0
LINE
8
left_outsideCutPath
10
1056.25
20
6
11
1126.75
21
6
0
LINE
8
left_outsideCutPath
10
1126.75
20
6
11
1126.75
21
3
0
LINE
8
left_outsideCutPath
10
1126.75
20
3
11
1197.25
21
3
0
LINE
8
left_outsideCutPath
10
1197.25
20
3
11
1197.25
21
6
0
LINE
8
left_outsideCutPath
10
1197.25
20
6
11
1267.75
21
6
0
LINE
8
left_outsideCutPath
10
1267.75
20
6
11
1267.75
21
3
0
LINE
8
left_outsideCutPath
10
1267.75
20
3
11
1338.25
21
3
0
LINE
8
left_outsideCutPath
10
1338.25
20
3
11
1370
21
3
0
LINE
8
left_outsideCutPath
10
1370
20
3
11
1370
21
92.75
0
LINE
8
left_outsideCutPath
10
1370
20
92.75
11
1373
21
92.75
0
LINE
8
left_outsideCutPath
10
1373
20
92.75
11
1373
21
163.25
0
LINE
8
left_outsideCutPath
10
1373
20
163.25
11
1370
21
163.25
0
LINE
8
left_outsideCutPath
10
1370
20
163.25
11
1370
21
233.75
0
LINE
8
left_outsideCutPath
10
1370
20
233.75
11
1370
21
253
0
LINE
8
left_outsideCutPath
10
1370
20
253
11
531
21
253
0
LINE
8
left_labelLayer
10
919.5795898
20
147.1045333
11
919.5795898
21
109.116252
0
LINE
8
left_labelLayer
10
919.5795898
20
109.116252
11
915.5268554
21
109.116252
0
LINE
8
left_labelLayer
10
915.5268554
20
109.116252
11
915.5268554
21
147.1045333
0
LINE
8
left_labelLayer
10
915.5268554
20
147.1045333
11
919.5795898
21
147.1045333
0
LINE
8
left_labelLayer
10
949.3159179
20
124.326213
11
949.3159179
21
121.7627364
0
LINE
8
left_labelLayer
10
949.3159179
20
121.7627364
11
930.8833008
21
121.7627364
0
LINE
8
left_labelLayer
10
948.168457
20
113.9746505
11
948.168457
21
110.3613692
0
LINE
8
left_labelLayer
10
930.980957
20
125.0586349
11
944.9702148
21
125.0586349
0
ARC
8
left_labelLayer
10
939.3437926
20
124.3761332
40
15.7487262
50
256.0087833
51
270.4848151
0
ARC
8
left_labelLayer
10
938.1969746
20
119.9239615
40
11.1514277
50
223.5465779
51
256.1957007
0
ARC
8
left_labelLayer
10
938.8296193
20
120.3837766
40
11.9272056
50
194.0877246
51
223.0538179
0
ARC
8
left_labelLayer
10
944.6263893
20
121.9689799
40
17.9359294
50
181.3574565
51
194.4919923
0
ARC
8
left_labelLayer
10
949.8331429
20
122.2708654
40
23.1490613
50
179.9886979
51
181.7991476
0
ARC
8
left_labelLayer
10
947.9644063
20
122.4181851
40
21.2808031
50
168.953922
51
180.3843477
0
ARC
8
left_labelLayer
10
941.014205
20
123.833367
40
14.1883345
50
149.4070995
51
169.1853784
0
ARC
8
left_labelLayer
10
939.0777576
20
124.8564997
40
12.0011806
50
140.1056038
51
148.906723
0
ARC
8
left_labelLayer
10
937.8880702
20
125.9533375
40
10.385232
50
92.4762661
51
140.5386367
0
ARC
8
left_labelLayer
10
938.4181956
20
122.0356653
40
14.3266832
50
89.9638049
51
93.9176033
0
ARC
8
left_labelLayer
10
938.5446927
20
124.0157795
40
12.3471249
50
74.2125855
51
90.5450092
0
ARC
8
left_labelLayer
10
939.3180313
20
126.8650907
40
9.394946
50
41.2064656
51
74.023271
0
ARC
8
left_labelLayer
10
937.853477
20
125.5976263
40
11.3317684
50
11.599424
51
41.1496041
0
ARC
8
left_labelLayer
10
932.8213091
20
124.4371124
40
16.4949816
50
359.6147849
51
12.0336355
0
ARC
8
left_labelLayer
10
947.1462316
20
122.0876949
40
16.2661771
50
181.1447059
51
190.8007095
0
ARC
8
left_labelLayer
10
941.4077131
20
120.9558978
40
10.417289
50
190.6005818
51
206.0275214
0
ARC
8
left_labelLayer
10
938.8687848
20
119.7556062
40
7.6092419
50
206.2950309
51
222.5557947
0
ARC
8
left_labelLayer
10
938.643812
20
119.6378153
40
7.36415
50
223.0645118
51
258.1401349
0
ARC
8
left_labelLayer
10
939.5394209
20
123.3255818
40
11.1578891
50
257.5311863
51
270.4319307
0
ARC
8
left_labelLayer
10
939.5494159
20
133.5726083
40
21.4047268
50
270.1984014
51
292.2090399
0
ARC
8
left_labelLayer
10
938.5214127
20
136.5248594
40
24.5270745
50
291.8255193
51
293.1613784
0
ARC
8
left_labelLayer
10
938.4723047
20
132.6757278
40
24.3299397
50
287.9022947
51
293.4861633
0
ARC
8
left_labelLayer
10
940.2372199
20
127.2303233
40
18.6056655
50
281.9935785
51
287.8851326
0
ARC
8
left_labelLayer
10
940.6649609
20
125.6929556
40
17.0132594
50
275.9054435
51
281.6603901
0
ARC
8
left_labelLayer
10
939.8086834
20
133.6854353
40
25.0514405
50
271.9119582
51
275.9727095
0
ARC
8
left_labelLayer
10
939.4961195
20
141.6464874
40
33.018522
50
269.9669107
51
271.9931323
0
ARC
8
left_labelLayer
10
938.3006481
20
124.9802878
40
7.9888819
50
89.4422302
51
106.2089612
0
ARC
8
left_labelLayer
10
937.8200312
20
126.7326959
40
6.1720338
50
106.465707
51
137.9176372
0
ARC
8
left_labelLayer
10
939.1979846
20
125.5226241
40
8.0057544
50
138.0994789
51
160.5866256
0
ARC
8
left_labelLayer
10
942.7399871
20
124.21958
40
11.7795975
50
160.3353302
51
172.5315271
0
ARC
8
left_labelLayer
10
946.2278346
20
123.6607404
40
15.3108258
50
172.1545151
51
174.7615401
0
ARC
8
left_labelLayer
10
931.1601656
20
125.137088
40
13.8102721
50
359.6745133
51
8.9224526
0
ARC
8
left_labelLayer
10
936.0948863
20
125.9411241
40
8.8106091
50
8.7342307
51
23.277196
0
ARC
8
left_labelLayer
10
938.437597
20
126.9245343
40
6.2700026
50
23.4821451
51
39.7072063
0
ARC
8
left_labelLayer
10
939.0130488
20
127.3551586
40
5.5523048
50
40.0822961
51
80.6243229
0
ARC
8
left_labelLayer
10
938.4207207
20
124.63993
40
8.3289685
50
79.6468572
51
90.2910063
0
LINE
8
left_labelLayer
10
968.2856445
20
135.8740645
11
968.2856445
21
132.7246505
0
LINE
8
left_labelLayer
10
968.2856445
20
132.7246505
11
961.4741211
21
132.7246505
0
LINE
8
left_labelLayer
10
961.4741211
20
132.7246505
11
961.4741211
21
109.116252
0
LINE
8
left_labelLayer
10
961.4741211
20
109.116252
11
957.4213867
21
109.116252
0
LINE
8
left_labelLayer
10
957.4213867
20
109.116252
11
957.4213867
21
132.7246505
0
LINE
8
left_labelLayer
10
957.4213867
20
132.7246505
11
952.6362304
21
132.7246505
0
LINE
8
left_labelLayer
10
952.6362304
20
132.7246505
11
952.6362304
21
134.5557052
0
LINE
8
left_labelLayer
10
952.6362304
20
134.5557052
11
957.4213867
21
136.0205489
0
LINE
8
left_labelLayer
10
957.4213867
20
136.0205489
11
957.4213867
21
137.5098067
0
LINE
8
left_labelLayer
10
971.0200195
20
146.5185958
11
969.9702148
21
143.2715255
0
LINE
8
left_labelLayer
10
961.4741211
20
137.607463
11
961.4741211
21
135.8740645
0
LINE
8
left_labelLayer
10
961.4741211
20
135.8740645
11
968.2856445
21
135.8740645
0
ARC
8
left_labelLayer
10
973.8457088
20
137.6986285
40
16.4254075
50
167.5775992
51
180.6586702
0
ARC
8
left_labelLayer
10
966.1219414
20
139.4993629
40
8.4956527
50
141.7433877
51
168.2322068
0
ARC
8
left_labelLayer
10
964.8643548
20
140.1557291
40
7.1066049
50
98.2551477
51
139.6203361
0
ARC
8
left_labelLayer
10
965.9685341
20
135.0548468
40
12.3184458
50
89.669684
51
99.9314335
0
ARC
8
left_labelLayer
10
965.9716135
20
134.3225059
40
13.050759
50
81.5640958
51
89.7017388
0
ARC
8
left_labelLayer
10
965.0541261
20
127.9216042
40
19.5170301
50
75.9739905
51
81.6564823
0
ARC
8
left_labelLayer
10
963.4796062
20
121.390858
40
26.2347298
50
73.2963796
51
76.0946112
0
ARC
8
left_labelLayer
10
963.8761509
20
124.5589046
40
19.6799338
50
71.9613329
51
76.5918335
0
ARC
8
left_labelLayer
10
965.4029416
20
131.0357091
40
13.0256373
50
76.5183354
51
83.021688
0
ARC
8
left_labelLayer
10
965.9347731
20
135.3126251
40
8.7157934
50
83.0760775
51
89.7926918
0
ARC
8
left_labelLayer
10
965.9172703
20
138.563031
40
5.4655504
50
89.4859211
51
103.4197528
0
ARC
8
left_labelLayer
10
965.4245115
20
140.4561554
40
3.5099824
50
102.7677394
51
144.3380275
0
ARC
8
left_labelLayer
10
966.4172193
20
139.8174399
40
4.6892823
50
145.0688708
51
162.1801724
0
ARC
8
left_labelLayer
10
969.820862
20
138.6722836
40
8.2802192
50
161.8437623
51
171.7846966
0
ARC
8
left_labelLayer
10
975.3722036
20
137.838485
40
13.8937746
50
171.6527632
51
178.4383658
0
ARC
8
left_labelLayer
10
980.6082576
20
137.6152069
40
19.1341381
50
178.1973114
51
180.0231886
0
LINE
8
left_labelLayer
10
985.4731445
20
112.4609786
11
985.4731445
21
109.3603927
0
LINE
8
left_labelLayer
10
973.4614258
20
116.8066817
11
973.4614258
21
132.7246505
0
LINE
8
left_labelLayer
10
973.4614258
20
132.7246505
11
969.6284179
21
132.7246505
0
LINE
8
left_labelLayer
10
969.6284179
20
132.7246505
11
969.6284179
21
134.6777755
0
LINE
8
left_labelLayer
10
969.6284179
20
134.6777755
11
973.4614258
21
136.3623458
0
LINE
8
left_labelLayer
10
973.4614258
20
136.3623458
11
975.1704101
21
142.0752364
0
LINE
8
left_labelLayer
10
975.1704101
20
142.0752364
11
977.5141601
21
142.0752364
0
LINE
8
left_labelLayer
10
977.5141601
20
142.0752364
11
977.5141601
21
135.8740645
0
LINE
8
left_labelLayer
10
977.5141601
20
135.8740645
11
985.277832
21
135.8740645
0
LINE
8
left_labelLayer
10
985.277832
20
135.8740645
11
985.277832
21
132.7246505
0
LINE
8
left_labelLayer
10
985.277832
20
132.7246505
11
977.5141601
21
132.7246505
0
LINE
8
left_labelLayer
10
977.5141601
20
132.7246505
11
977.5141601
21
116.9775802
0
ARC
8
left_labelLayer
10
981.8388269
20
125.2824208
40
13.3097524
50
269.8803621
51
278.302828
0
ARC
8
left_labelLayer
10
981.9657601
20
124.2457539
40
12.2656452
50
278.4153916
51
279.0080435
0
ARC
8
left_labelLayer
10
980.4722707
20
133.7866862
40
21.9227514
50
278.9589502
51
280.5104591
0
ARC
8
left_labelLayer
10
981.8954121
20
126.1507391
40
14.1553221
50
280.4847486
51
282.62684
0
ARC
8
left_labelLayer
10
983.1435762
20
120.6055252
40
8.471375
50
282.5876742
51
285.5795064
0
ARC
8
left_labelLayer
10
983.7682434
20
118.307939
40
6.0904543
50
285.7239938
51
286.2560288
0
ARC
8
left_labelLayer
10
983.7692656
20
112.9641906
40
3.9862969
50
287.988839
51
295.3048269
0
ARC
8
left_labelLayer
10
982.8077992
20
115.8730825
40
7.0499421
50
283.3069314
51
288.1197563
0
ARC
8
left_labelLayer
10
981.7921212
20
120.1097785
40
11.4066711
50
280.0070122
51
283.3735287
0
ARC
8
left_labelLayer
10
981.1123244
20
123.7990737
40
15.1579929
50
279.186308
51
280.1142508
0
ARC
8
left_labelLayer
10
980.6953931
20
126.1704793
40
17.5655762
50
275.5260332
51
279.2939486
0
ARC
8
left_labelLayer
10
981.1654666
20
121.2605601
40
12.6332094
50
270.8932523
51
275.5483775
0
ARC
8
left_labelLayer
10
981.2245266
20
119.0153795
40
10.3874088
50
270.0031497
51
270.7605869
0
ARC
8
left_labelLayer
10
981.0615567
20
119.2118536
40
10.5851463
50
253.7847941
51
270.8852572
0
ARC
8
left_labelLayer
10
979.8074989
20
114.9350393
40
6.1282826
50
190.3817649
51
253.8772393
0
ARC
8
left_labelLayer
10
986.1994197
20
116.6633014
40
12.7388009
50
179.3550995
51
192.8477604
0
ARC
8
left_labelLayer
10
985.674864
20
116.92654
40
8.1608634
50
179.6416551
51
189.7505883
0
ARC
8
left_labelLayer
10
982.7939255
20
116.4126903
40
5.2345495
50
189.5479593
51
205.7873558
0
ARC
8
left_labelLayer
10
981.6099711
20
115.8667318
40
3.9310598
50
206.1294288
51
221.4084071
0
ARC
8
left_labelLayer
10
981.4772233
20
115.7660046
40
3.7648939
50
221.5949167
51
262.3505195
0
ARC
8
left_labelLayer
10
981.7929492
20
117.3895849
40
5.4169178
50
261.3266174
51
270.1912984
0
LINE
8
back_outsideCutPath
10
0
20
506
11
0
21
416.25
0
LINE
8
back_outsideCutPath
10
0
20
416.25
11
3
21
416.25
0
LINE
8
back_outsideCutPath
10
3
20
416.25
11
3
21
345.75
0
LINE
8
back_outsideCutPath
10
3
20
345.75
11
0
21
345.75
0
LINE
8
back_outsideCutPath
10
0
20
345.75
11
0
21
275.25
0
LINE
8
back_outsideCutPath
10
0
20
275.25
11
0
21
256
0
LINE
8
back_outsideCutPath
10
0
20
256
11
86.25
21
256
0
LINE
8
back_outsideCutPath
10
86.25
20
256
11
86.25
21
259
0
LINE
8
back_outsideCutPath
10
86.25
20
259
11
156.75
21
259
0
LINE
8
back_outsideCutPath
10
156.75
20
259
11
156.75
21
256
0
LINE
8
back_outsideCutPath
10
156.75
20
256
11
227.25
21
256
0
LINE
8
back_outsideCutPath
10
227.25
20
256
11
227.25
21
259
0
LINE
8
back_outsideCutPath
10
227.25
20
259
11
297.75
21
259
0
LINE
8
back_outsideCutPath
10
297.75
20
259
11
297.75
21
256
0
LINE
8
back_outsideCutPath
10
297.75
20
256
11
368.25
21
256
0
LINE
8
back_outsideCutPath
10
368.25
20
256
11
368.25
21
259
0
LINE
8
back_outsideCutPath
10
368.25
20
259
11
438.75
21
259
0
LINE
8
back_outsideCutPath
10
438.75
20
259
11
438.75
21
256
0
LINE
8
back_outsideCutPath
10
438.75
20
256
11
509.25
21
256
0
LINE
8
back_outsideCutPath
10
509.25
20
256
11
525
21
256
0
LINE
8
back_outsideCutPath
10
525
20
256
11
525
21
345.75
0
LINE
8
back_outsideCutPath
10
525
20
345.75
11
522
21
345.75
0
LINE
8
back_outsideCutPath
10
522
20
345.75
11
522
21
416.25
0
LINE
8
back_outsideCutPath
10
522
20
416.25
11
525
21
416.25
0
LINE
8
back_outsideCutPath
10
525
20
416.25
11
525
21
486.75
0
LINE
8
back_outsideCutPath
10
525
20
486.75
11
525
21
506
0
LINE
8
back_outsideCutPath
10
525
20
506
11
0
21
506
0
LINE
8
back_labelLayer
10
214.7216797
20
365.6926586
11
214.4287109
21
365.6926586
0
LINE
8
back_labelLayer
10
214.4287109
20
365.6926586
11
213.5742188
21
362.2502758
0
LINE
8
back_labelLayer
10
213.5742188
20
362.2502758
11
210.6689453
21
362.2502758
0
LINE
8
back_labelLayer
10
210.6689453
20
362.2502758
11
210.6689453
21
400.2385571
0
LINE
8
back_labelLayer
10
210.6689453
20
400.2385571
11
214.7216797
21
400.2385571
0
LINE
8
back_labelLayer
10
214.7216797
20
400.2385571
11
214.7216797
21
391.0100414
0
LINE
8
back_labelLayer
10
214.5263672
20
385.4436352
11
214.7216797
21
385.4436352
0
ARC
8
back_labelLayer
10
223.2416944
20
377.0615813
40
12.3865568
50
74.2393268
51
90.5623815
0
ARC
8
back_labelLayer
10
224.0607359
20
380.0662644
40
9.2724099
50
38.5631291
51
74.0670402
0
ARC
8
back_labelLayer
10
221.9529738
20
378.4273569
40
11.9422154
50
16.4709281
51
38.4075287
0
ARC
8
back_labelLayer
10
215.8808209
20
376.5233077
40
18.3053396
50
5.1338483
51
16.7973387
0
ARC
8
back_labelLayer
10
208.2152367
20
375.7090164
40
26.0133381
50
359.8779337
51
5.4093612
0
ARC
8
back_labelLayer
10
210.4668136
20
375.5134044
40
23.7621156
50
350.6562805
51
0.3380356
0
ARC
8
back_labelLayer
10
218.7506692
20
374.1044107
40
15.3594764
50
335.8305956
51
350.8254847
0
ARC
8
back_labelLayer
10
222.3945881
20
372.5316446
40
11.3911834
50
321.3161495
51
335.5436143
0
ARC
8
back_labelLayer
10
223.7876881
20
371.3964801
40
9.5942291
50
274.0640049
51
321.4081036
0
ARC
8
back_labelLayer
10
223.1386897
20
375.5074716
40
13.7454898
50
269.9225836
51
275.5481695
0
ARC
8
back_labelLayer
10
223.0517742
20
374.0546316
40
12.292827
50
255.7755419
51
270.3185421
0
ARC
8
back_labelLayer
10
222.700972
20
372.4960488
40
10.6959162
50
245.9801617
51
255.5455743
0
ARC
8
back_labelLayer
10
222.0214979
20
370.9159284
40
8.9760734
50
215.5850174
51
245.8361709
0
ARC
8
back_labelLayer
10
130.2252137
20
390.9386086
40
84.4964962
50
358.112324
51
0.0484375
0
ARC
8
back_labelLayer
10
153.7416171
20
390.1491112
40
60.96685
50
355.7238715
51
358.1258888
0
ARC
8
back_labelLayer
10
164.0878204
20
389.4384719
40
50.5964989
50
355.4715095
51
355.6527727
0
ARC
8
back_labelLayer
10
222.2798526
20
380.1731178
40
9.2143547
50
95.1835132
51
145.1108986
0
ARC
8
back_labelLayer
10
223.0897608
20
375.605989
40
13.8415859
50
89.874343
51
96.8145478
0
ARC
8
back_labelLayer
10
222.4493327
20
374.6657906
40
11.3885122
50
89.5731294
51
100.732432
0
ARC
8
back_labelLayer
10
221.606265
20
378.9252527
40
7.0466477
50
100.4469425
51
119.6700756
0
ARC
8
back_labelLayer
10
220.824485
20
380.3868818
40
5.389849
50
120.1402875
51
142.4249044
0
ARC
8
back_labelLayer
10
222.1178743
20
379.5312621
40
6.9375698
50
143.3382333
51
161.2559933
0
ARC
8
back_labelLayer
10
227.5265625
20
377.6109943
40
12.6767162
50
160.892629
51
171.2334385
0
ARC
8
back_labelLayer
10
236.5557939
20
376.1543633
40
21.8225597
50
171.0667771
51
177.8456835
0
ARC
8
back_labelLayer
10
245.9459718
20
375.6767807
40
31.2243006
50
177.6176721
51
180.0425431
0
ARC
8
back_labelLayer
10
241.5178765
20
375.5489629
40
26.7964011
50
179.7762739
51
185.7075202
0
ARC
8
back_labelLayer
10
230.9529663
20
374.4604047
40
16.1756413
50
185.592481
51
194.205073
0
ARC
8
back_labelLayer
10
224.1852453
20
372.7039447
40
9.1839253
50
193.9430401
51
208.0218407
0
ARC
8
back_labelLayer
10
221.4469945
20
371.3109204
40
6.1124928
50
208.5536508
51
217.5605424
0
ARC
8
back_labelLayer
10
221.223908
20
371.218134
40
5.8794191
50
218.1690477
51
253.8047164
0
ARC
8
back_labelLayer
10
222.314427
20
374.5803148
40
9.412973
50
253.1382428
51
266.8483086
0
ARC
8
back_labelLayer
10
222.6202282
20
378.1866407
40
13.0310968
50
266.3775584
51
270.0510375
0
ARC
8
back_labelLayer
10
222.7182875
20
373.2341713
40
8.0790846
50
269.3868854
51
285.863064
0
ARC
8
back_labelLayer
10
223.3185125
20
371.0648761
40
5.8283569
50
286.0162853
51
326.8497391
0
ARC
8
back_labelLayer
10
220.4215163
20
372.9840318
40
9.3033281
50
326.7104982
51
343.6661781
0
ARC
8
back_labelLayer
10
214.9985049
20
374.6411272
40
14.9736355
50
343.4171404
51
353.6369188
0
ARC
8
back_labelLayer
10
206.8075751
20
375.6130379
40
23.2218938
50
353.4934832
51
0.2205451
0
ARC
8
back_labelLayer
10
206.0855789
20
375.7993432
40
23.9439141
50
359.7680805
51
6.309522
0
ARC
8
back_labelLayer
10
215.1047655
20
376.8343496
40
14.86566
50
6.1648606
51
16.0396367
0
ARC
8
back_labelLayer
10
220.9147886
20
378.5465618
40
8.8088202
50
15.7779362
51
32.0151375
0
ARC
8
back_labelLayer
10
222.7265906
20
379.5841217
40
6.7230083
50
32.7034123
51
35.524265
0
ARC
8
back_labelLayer
10
223.3891851
20
380.0550686
40
5.9101006
50
35.5408398
51
79.8011221
0
ARC
8
back_labelLayer
10
222.5955201
20
376.6810433
40
9.3731441
50
78.6781302
51
90.3749621
0
LINE
8
back_labelLayer
10
260.7666016
20
362.2502758
11
257.7636719
21
362.2502758
0
LINE
8
back_labelLayer
10
257.7636719
20
362.2502758
11
256.9580078
21
366.0588696
0
LINE
8
back_labelLayer
10
256.9580078
20
366.0588696
11
256.7626953
21
366.0588696
0
LINE
8
back_labelLayer
10
252.2705078
20
378.1438305
11
256.8115234
21
378.2903149
0
LINE
8
back_labelLayer
10
256.8115234
20
378.2903149
11
256.8115234
21
379.9504711
0
LINE
8
back_labelLayer
10
243.5546875
20
384.0520336
11
242.3095703
21
387.1526196
0
LINE
8
back_labelLayer
10
260.7666016
20
380.5119946
11
260.7666016
21
362.2502758
0
LINE
8
back_labelLayer
10
256.7138672
20
372.9924633
11
256.7138672
21
375.4094555
0
LINE
8
back_labelLayer
10
256.7138672
20
375.4094555
11
252.6611328
21
375.2385571
0
ARC
8
back_labelLayer
10
243.5766858
20
376.4698673
40
16.8005869
50
314.7445082
51
321.707186
0
ARC
8
back_labelLayer
10
247.7043271
20
372.2758666
40
10.9161661
50
304.8485561
51
314.8530716
0
ARC
8
back_labelLayer
10
249.6871662
20
369.453496
40
7.4669463
50
294.3932706
51
304.7371519
0
ARC
8
back_labelLayer
10
249.0097417
20
371.2087569
40
9.345917
50
281.2979588
51
293.7313632
0
ARC
8
back_labelLayer
10
248.1142327
20
375.5488536
40
13.7773783
50
272.9335041
51
281.413911
0
ARC
8
back_labelLayer
10
247.8174081
20
380.0002086
40
18.23822
50
269.9539022
51
273.1491039
0
ARC
8
back_labelLayer
10
247.7148776
20
374.198984
40
12.4372997
50
258.671972
51
270.4047394
0
ARC
8
back_labelLayer
10
246.8509659
20
370.0663778
40
8.2155836
50
238.3273149
51
258.9183727
0
ARC
8
back_labelLayer
10
246.2556383
20
368.9802635
40
6.9789373
50
227.7689511
51
237.8049888
0
ARC
8
back_labelLayer
10
246.069407
20
368.7202911
40
6.661375
50
192.0827612
51
227.4520816
0
ARC
8
back_labelLayer
10
249.5037306
20
369.5668863
40
10.1974104
50
179.5457239
51
192.694939
0
ARC
8
back_labelLayer
10
246.313274
20
369.9361111
40
7.0125652
50
115.4904643
51
182.3568115
0
ARC
8
back_labelLayer
10
249.8252468
20
363.4944261
40
14.3441312
50
101.3568248
51
117.0798579
0
ARC
8
back_labelLayer
10
252.6456797
20
350.3142826
40
27.8221192
50
92.4696279
51
101.7064921
0
ARC
8
back_labelLayer
10
253.4562958
20
338.5739368
40
39.587657
50
91.7164646
51
92.9095783
0
ARC
8
back_labelLayer
10
245.171288
20
380.0127749
40
11.6404022
50
359.69333
51
8.0035908
0
ARC
8
back_labelLayer
10
249.5746099
20
380.6542499
40
7.1906898
50
7.8272627
51
20.60417
0
ARC
8
back_labelLayer
10
252.0663804
20
381.6074755
40
4.5228848
50
20.4094237
51
41.447932
0
ARC
8
back_labelLayer
10
252.4345481
20
381.8098457
40
4.1139944
50
42.729557
51
71.0380254
0
ARC
8
back_labelLayer
10
251.5677748
20
379.4530753
40
6.6247425
50
70.571618
51
83.9928676
0
ARC
8
back_labelLayer
10
251.1536849
20
376.089456
40
10.0134057
50
83.650663
51
90.1753082
0
ARC
8
back_labelLayer
10
251.2263233
20
372.9083974
40
13.1948217
50
90.4484609
51
103.7665477
0
ARC
8
back_labelLayer
10
252.7779685
20
366.3650494
40
19.9195036
50
103.6226564
51
112.4319993
0
ARC
8
back_labelLayer
10
255.4375924
20
359.6496868
40
27.1418119
50
112.2122152
51
115.9641121
0
ARC
8
back_labelLayer
10
251.1783641
20
370.7055474
40
18.6858686
50
106.3568552
51
118.3349834
0
ARC
8
back_labelLayer
10
251.9743131
20
368.2468216
40
21.2693547
50
104.5162098
51
106.5489519
0
ARC
8
back_labelLayer
10
251.39059
20
370.6788764
40
18.7686794
50
90.0714416
51
104.6521032
0
ARC
8
back_labelLayer
10
251.4642475
20
372.3312821
40
17.1165345
50
81.5679781
51
90.3248997
0
ARC
8
back_labelLayer
10
252.4539033
20
378.7786045
40
10.5938384
50
68.2273498
51
81.7494267
0
ARC
8
back_labelLayer
10
253.8323218
20
382.2082353
40
6.8975824
50
47.8683311
51
68.2934028
0
ARC
8
back_labelLayer
10
254.0560445
20
382.6549415
40
6.4176153
50
19.2331005
51
46.6741122
0
ARC
8
back_labelLayer
10
250.3292269
20
381.2685574
40
10.3934353
50
6.3379008
51
19.6815387
0
ARC
8
back_labelLayer
10
244.8200379
20
380.5669131
40
15.9466582
50
359.8026793
51
6.6583475
0
ARC
8
back_labelLayer
10
248.690348
20
376.264766
40
11.1583458
50
269.5792023
51
282.0413687
0
ARC
8
back_labelLayer
10
249.5042713
20
372.6545519
40
7.4578907
50
281.7120953
51
306.4593952
0
ARC
8
back_labelLayer
10
249.865204
20
372.0609893
40
6.7663041
50
306.9880989
51
313.8559586
0
ARC
8
back_labelLayer
10
249.8222432
20
372.0487258
40
6.7873412
50
314.1891923
51
347.4269862
0
ARC
8
back_labelLayer
10
246.4222979
20
372.9007378
40
10.2916292
50
346.9177566
51
0.2824695
0
ARC
8
back_labelLayer
10
243.8460608
20
372.9923756
40
12.8678062
50
359.8178863
51
0.0003903
0
ARC
8
back_labelLayer
10
253.6251558
20
345.4966144
40
29.757562
50
91.8564731
51
96.4478371
0
ARC
8
back_labelLayer
10
252.2831789
20
357.1091188
40
18.0678342
50
96.3545415
51
102.9953233
0
ARC
8
back_labelLayer
10
250.4615361
20
364.8487296
40
10.1168704
50
102.7995418
51
113.2433081
0
ARC
8
back_labelLayer
10
248.9598385
20
368.4402234
40
6.2243602
50
113.588675
51
121.680481
0
ARC
8
back_labelLayer
10
247.9164783
20
370.0292404
40
4.3244981
50
120.973405
51
172.4179836
0
ARC
8
back_labelLayer
10
249.9557655
20
369.6219043
40
6.4011192
50
171.2122036
51
180.2058324
0
ARC
8
back_labelLayer
10
249.346314
20
369.551054
40
5.7918242
50
179.5265916
51
192.7787248
0
ARC
8
back_labelLayer
10
247.3870414
20
369.0761185
40
3.7761481
50
192.3264465
51
222.0579875
0
ARC
8
back_labelLayer
10
247.2412889
20
368.9889497
40
3.609689
50
222.5804801
51
229.2547091
0
ARC
8
back_labelLayer
10
247.7337725
20
369.6230043
40
4.4116915
50
229.7837011
51
254.272422
0
ARC
8
back_labelLayer
10
248.3896706
20
371.8087226
40
6.6934825
50
253.939669
51
266.4533741
0
ARC
8
back_labelLayer
10
248.5990096
20
374.2217093
40
9.114993
50
266.0782999
51
270.059017
0
LINE
8
back_labelLayer
10
286.9628906
20
388.104768
11
285.7177734
21
384.6623852
0
LINE
8
back_labelLayer
10
286.5722656
20
366.7424633
11
286.5722656
21
363.1535961
0
ARC
8
back_labelLayer
10
279.6803046
20
376.9081329
40
15.1466899
50
256.424371
51
270.4889827
0
ARC
8
back_labelLayer
10
278.4699411
20
372.1841908
40
10.2708467
50
221.7976304
51
256.8020513
0
ARC
8
back_labelLayer
10
279.6420398
20
373.0502088
40
11.7226369
50
196.0166615
51
221.1349219
0
ARC
8
back_labelLayer
10
285.5328972
20
374.850759
40
17.8819322
50
183.5913705
51
196.3539562
0
ARC
8
back_labelLayer
10
292.1320483
20
375.432131
40
24.5051091
50
179.9388521
51
183.981507
0
ARC
8
back_labelLayer
10
289.9878913
20
375.6022525
40
22.3614017
50
169.8978401
51
180.3688885
0
ARC
8
back_labelLayer
10
282.203374
20
377.0422743
40
14.4450805
50
153.0875155
51
170.1051369
0
ARC
8
back_labelLayer
10
279.2497543
20
378.4535967
40
11.1728107
50
138.6550021
51
152.6853669
0
ARC
8
back_labelLayer
10
278.6985026
20
378.8553115
40
10.493778
50
101.4912925
51
138.3133879
0
ARC
8
back_labelLayer
10
279.9640606
20
373.588198
40
15.9085806
50
89.5891862
51
102.1787781
0
ARC
8
back_labelLayer
10
280.061378
20
371.207532
40
18.2888452
50
77.7702463
51
89.9475346
0
ARC
8
back_labelLayer
10
279.7152485
20
369.2979505
40
20.2285205
50
74.6796813
51
77.957857
0
ARC
8
back_labelLayer
10
281.5850842
20
376.0720121
40
13.2011517
50
70.0945564
51
74.7386193
0
ARC
8
back_labelLayer
10
283.363678
20
380.9462455
40
8.0125801
50
63.5034034
51
70.1861453
0
ARC
8
back_labelLayer
10
284.2152309
20
382.7288401
40
6.037403
50
62.9282302
51
63.1884379
0
ARC
8
back_labelLayer
10
279.0601733
20
367.9075165
40
18.0291227
50
68.3294444
51
74.8831322
0
ARC
8
back_labelLayer
10
278.1090455
20
364.5349647
40
21.5330485
50
74.7801812
51
77.4497499
0
ARC
8
back_labelLayer
10
279.1076491
20
369.2222722
40
16.7408055
50
77.2998798
51
81.7345283
0
ARC
8
back_labelLayer
10
279.8359984
20
374.2974515
40
11.6136399
50
81.6909981
51
87.5079018
0
ARC
8
back_labelLayer
10
279.9765184
20
376.9237282
40
8.9837751
50
87.6749486
51
89.9748056
0
ARC
8
back_labelLayer
10
279.7795624
20
376.9201899
40
8.9895577
50
88.7193982
51
112.5667689
0
ARC
8
back_labelLayer
10
279.1407931
20
379.032124
40
6.797775
50
114.4265712
51
161.663284
0
ARC
8
back_labelLayer
10
285.4863337
20
376.5484117
40
13.60729
50
160.1418437
51
175.1368116
0
ARC
8
back_labelLayer
10
294.220073
20
375.5676752
40
22.3939831
50
174.5309712
51
180.154954
0
ARC
8
back_labelLayer
10
291.4531504
20
375.4057594
40
19.6272402
50
179.7041311
51
188.0743692
0
ARC
8
back_labelLayer
10
284.383665
20
374.3714169
40
12.4825943
50
187.9315246
51
200.3885392
0
ARC
8
back_labelLayer
10
280.5611294
20
372.9553639
40
8.4062043
50
200.4183426
51
216.639263
0
ARC
8
back_labelLayer
10
278.9586262
20
371.8097755
40
6.4367902
50
216.9695354
51
261.310302
0
ARC
8
back_labelLayer
10
279.6658419
20
375.1069323
40
9.8050069
50
260.1359462
51
270.2692248
0
ARC
8
back_labelLayer
10
279.6331983
20
382.2670873
40
16.9652363
50
270.2658436
51
286.2891417
0
ARC
8
back_labelLayer
10
278.6018563
20
386.1133166
40
20.9465362
50
286.0460612
51
292.3654034
0
ARC
8
back_labelLayer
10
281.3484957
20
373.4299969
40
11.5278873
50
282.0344257
51
296.9454508
0
ARC
8
back_labelLayer
10
280.1629221
20
378.7729247
40
17.0006432
50
272.5980553
51
282.18784
0
ARC
8
back_labelLayer
10
279.8229533
20
383.9869059
40
22.2249153
50
269.9654988
51
272.8642974
0
LINE
8
back_labelLayer
10
296.7285156
20
375.9465649
11
296.9238281
21
375.9465649
0
LINE
8
back_labelLayer
10
300.1220703
20
379.8528149
11
308.7646484
21
389.0080883
0
LINE
8
back_labelLayer
10
308.7646484
20
389.0080883
11
313.5742188
21
389.0080883
0
LINE
8
back_labelLayer
10
313.5742188
20
389.0080883
11
302.734375
21
377.6067211
0
LINE
8
back_labelLayer
10
302.734375
20
377.6067211
11
314.3310547
21
362.2502758
0
LINE
8
back_labelLayer
10
314.3310547
20
362.2502758
11
309.4238281
21
362.2502758
0
LINE
8
back_labelLayer
10
309.4238281
20
362.2502758
11
299.9755859
21
374.8967602
0
LINE
8
back_labelLayer
10
299.9755859
20
374.8967602
11
296.9238281
21
372.2600414
0
LINE
8
back_labelLayer
10
296.9238281
20
372.2600414
11
296.9238281
21
362.2502758
0
LINE
8
back_labelLayer
10
296.9238281
20
362.2502758
11
292.9199219
21
362.2502758
0
LINE
8
back_labelLayer
10
292.9199219
20
362.2502758
11
292.9199219
21
400.2385571
0
LINE
8
back_labelLayer
10
292.9199219
20
400.2385571
11
296.9238281
21
400.2385571
0
LINE
8
back_labelLayer
10
296.9238281
20
400.2385571
11
296.9238281
21
380.0969555
0
ARC
8
back_labelLayer
10
316.50615
20
362.0853712
40
23.9916657
50
142.323377
51
144.7075294
0
ARC
8
back_labelLayer
10
329.2825045
20
352.2306794
40
40.1270348
50
140.4331284
51
142.3365688
0
ARC
8
back_labelLayer
10
345.9317364
20
338.5254091
40
61.6915961
50
139.2798925
51
140.470333
0
ARC
8
back_labelLayer
10
365.1821391
20
321.9714047
40
87.0808256
50
138.3417553
51
139.2877274
0
ARC
8
back_labelLayer
10
269.9164584
20
380.1475048
40
27.007417
50
358.2739362
51
359.8927604
0
ARC
8
back_labelLayer
10
248.9095108
20
380.7329055
40
48.0224893
50
357.5041255
51
358.3307445
0
ARC
8
back_labelLayer
10
217.4581831
20
382.1220503
40
79.5044768
50
356.6325207
51
357.4910082
0
ARC
8
back_labelLayer
10
165.1819664
20
385.1709963
40
131.8695269
50
356.03294
51
356.6442569
0
ARC
8
back_labelLayer
10
128.6172427
20
387.6411249
40
168.5175446
50
356.0206641
51
356.0551914
0
LINE
8
right_outsideCutPath
10
531
20
506
11
531
21
416.25
0
LINE
8
right_outsideCutPath
10
531
20
416.25
11
528
21
416.25
0
LINE
8
right_outsideCutPath
10
528
20
416.25
11
528
21
345.75
0
LINE
8
right_outsideCutPath
10
528
20
345.75
11
531
21
345.75
0
LINE
8
right_outsideCutPath
10
531
20
345.75
11
531
21
275.25
0
LINE
8
right_outsideCutPath
10
531
20
275.25
11
531
21
256
0
LINE
8
right_outsideCutPath
10
531
20
256
11
633.25
21
256
0
LINE
8
right_outsideCutPath
10
633.25
20
256
11
633.25
21
259
0
LINE
8
right_outsideCutPath
10
633.25
20
259
11
703.75
21
259
0
LINE
8
right_outsideCutPath
10
703.75
20
259
11
703.75
21
256
0
LINE
8
right_outsideCutPath
10
703.75
20
256
11
774.25
21
256
0
LINE
8
right_outsideCutPath
10
774.25
20
256
11
774.25
21
259
0
LINE
8
right_outsideCutPath
10
774.25
20
259
11
844.75
21
259
0
LINE
8
right_outsideCutPath
10
844.75
20
259
11
844.75
21
256
0
LINE
8
right_outsideCutPath
10
844.75
20
256
11
915.25
21
256
0
LINE
8
right_outsideCutPath
10
915.25
20
256
11
915.25
21
259
0
LINE
8
right_outsideCutPath
10
915.25
20
259
11
985.75
21
259
0
LINE
8
right_outsideCutPath
10
985.75
20
259
11
985.75
21
256
0
LINE
8
right_outsideCutPath
10
985.75
20
256
11
1056.25
21
256
0
LINE
8
right_outsideCutPath
10
1056.25
20
256
11
1056.25
21
259
0
LINE
8
right_outsideCutPath
10
1056.25
20
259
11
1126.75
21
259
0
LINE
8
right_outsideCutPath
10
1126.75
20
259
11
1126.75
21
256
0
LINE
8
right_outsideCutPath
10
1126.75
20
256
11
1197.25
21
256
0
LINE
8
right_outsideCutPath
10
1197.25
20
256
11
1197.25
21
259
0
LINE
8
right_outsideCutPath
10
1197.25
20
259
11
1267.75
21
259
0
LINE
8
right_outsideCutPath
10
1267.75
20
259
11
1267.75
21
256
0
LINE
8
right_outsideCutPath
10
1267.75
20
256
11
1338.25
21
256
0
LINE
8
right_outsideCutPath
10
1338.25
20
256
11
1370
21
256
0
LINE
8
right_outsideCutPath
10
1370
20
256
11
1370
21
345.75
0
LINE
8
right_outsideCutPath
10
1370
20
345.75
11
1373
21
345.75
0
LINE
8
right_outsideCutPath
10
1373
20
345.75
11
1373
21
416.25
0
LINE
8
right_outsideCutPath
10
1373
20
416.25
11
1370
21
416.25
0
LINE
8
right_outsideCutPath
10
1370
20
416.25
11
1370
21
486.75
0
LINE
8
right_outsideCutPath
10
1370
20
486.75
11
1370
21
506
0
LINE
8
right_outsideCutPath
10
1370
20
506
11
531
21
506
0
LINE
8
right_labelLayer
10
914.184082
20
394.9649912
11
913.6225586
21
391.2052256
0
LINE
8
right_labelLayer
10
902.8315429
20
382.367335
11
902.8315429
21
368.0118662
0
LINE
8
right_labelLayer
10
902.8315429
20
368.0118662
11
898.7788086
21
368.0118662
0
LINE
8
right_labelLayer
10
898.7788086
20
368.0118662
11
898.7788086
21
394.7696787
0
LINE
8
right_labelLayer
10
898.7788086
20
394.7696787
11
902.1235351
21
394.7696787
0
LINE
8
right_labelLayer
10
902.1235351
20
394.7696787
11
902.5874023
21
389.813624
0
LINE
8
right_labelLayer
10
902.5874023
20
389.813624
11
902.7827148
21
389.813624
0
ARC
8
right_labelLayer
10
911.0274381
20
376.6525267
40
18.6054798
50
84.9922948
51
90.1281024
0
ARC
8
right_labelLayer
10
911.4742503
20
381.6585946
40
13.5795204
50
78.4891893
51
85.0265913
0
ARC
8
right_labelLayer
10
909.7400052
20
373.7708233
40
17.8614838
50
77.4453841
51
81.636039
0
ARC
8
right_labelLayer
10
910.5182097
20
379.1349192
40
12.4412464
50
81.58843
51
87.1916726
0
ARC
8
right_labelLayer
10
910.6872318
20
382.0659223
40
9.5055158
50
87.3436582
51
89.9660084
0
ARC
8
right_labelLayer
10
910.6479579
20
384.5493912
40
7.022189
50
89.6335397
51
137.0880807
0
ARC
8
right_labelLayer
10
912.3712245
20
382.6115117
40
9.6069116
50
135.620896
51
138.8377622
0
ARC
8
right_labelLayer
10
912.118804
20
382.8579019
40
9.2547251
50
138.9575765
51
174.5422234
0
ARC
8
right_labelLayer
10
915.132873
20
382.386286
40
12.3013448
50
173.6907525
51
180.0882678
0
ARC
8
right_labelLayer
10
914.7067175
20
383.095696
40
13.6862119
50
139.4139296
51
150.6032905
0
ARC
8
right_labelLayer
10
912.2527678
20
385.1984754
40
10.4545637
50
124.2321392
51
139.4161138
0
ARC
8
right_labelLayer
10
910.9406713
20
387.1790822
40
8.0790042
50
89.6796658
51
124.4405657
0
LINE
8
right_labelLayer
10
923.2416992
20
394.7696787
11
923.2416992
21
368.0118662
0
LINE
8
right_labelLayer
10
923.2416992
20
368.0118662
11
919.1889648
21
368.0118662
0
LINE
8
right_labelLayer
10
919.1889648
20
368.0118662
11
919.1889648
21
394.7696787
0
LINE
8
right_labelLayer
10
919.1889648
20
394.7696787
11
923.2416992
21
394.7696787
0
ARC
8
right_labelLayer
10
923.3379896
20
402.0484396
40
4.4909076
50
170.8451721
51
180.3544786
0
ARC
8
right_labelLayer
10
921.6567825
20
402.3295446
40
2.7864092
50
155.9678738
51
171.05161
0
ARC
8
right_labelLayer
10
920.8424879
20
402.6908016
40
1.8955792
50
133.7880246
51
155.917147
0
ARC
8
right_labelLayer
10
921.1431245
20
402.3584328
40
2.3435919
50
92.6446138
51
133.4710405
0
ARC
8
right_labelLayer
10
921.2380858
20
401.612669
40
3.0935337
50
89.9692505
51
93.7642889
0
ARC
8
right_labelLayer
10
921.2767484
20
402.318668
40
2.3878209
50
46.3708391
51
90.8879074
0
ARC
8
right_labelLayer
10
921.514394
20
402.5640067
40
2.046269
50
17.7251898
51
46.4473359
0
ARC
8
right_labelLayer
10
920.4061997
20
402.1823872
40
3.2181455
50
4.9427706
51
18.190081
0
ARC
8
right_labelLayer
10
918.996363
20
402.0299782
40
4.6359706
50
359.8847786
51
5.3181116
0
ARC
8
right_labelLayer
10
919.4392632
20
401.9921797
40
4.1931577
50
349.8344882
51
0.389097
0
ARC
8
right_labelLayer
10
920.9658066
20
401.7074076
40
2.6403401
50
332.6322266
51
350.0705558
0
ARC
8
right_labelLayer
10
921.5599793
20
401.4140083
40
1.977835
50
313.6153406
51
332.2677645
0
ARC
8
right_labelLayer
10
921.2736304
20
401.6747391
40
2.3642875
50
269.1788244
51
314.2807518
0
ARC
8
right_labelLayer
10
921.2128848
20
401.8849184
40
2.5743642
50
250.4999963
51
270.5978421
0
ARC
8
right_labelLayer
10
921.1349771
20
401.5935975
40
2.2738717
50
225.1300842
51
249.900137
0
ARC
8
right_labelLayer
10
921.012997
20
401.4588528
40
2.0923375
50
197.7933745
51
224.8942073
0
ARC
8
right_labelLayer
10
922.1546439
20
401.8500845
40
3.2990127
50
184.9925332
51
198.2040626
0
ARC
8
right_labelLayer
10
923.6320812
20
402.0106817
40
4.7849238
50
179.8805733
51
185.3686767
0
LINE
8
right_labelLayer
10
944.4819336
20
394.7696787
11
953.7348633
21
394.7696787
0
LINE
8
right_labelLayer
10
953.7348633
20
394.7696787
11
953.7348633
21
392.2062022
0
LINE
8
right_labelLayer
10
953.7348633
20
392.2062022
11
948.7788086
21
391.6202647
0
LINE
8
right_labelLayer
10
939.6479492
20
372.2599131
11
944.3842773
21
372.2599131
0
LINE
8
right_labelLayer
10
943.090332
20
368.6222178
11
938.2319336
21
368.6222178
0
ARC
8
right_labelLayer
10
943.6142103
20
387.5330629
40
6.58622
50
29.4584447
51
38.3576734
0
ARC
8
right_labelLayer
10
940.9229301
20
385.996716
40
9.6851253
50
23.1845334
51
29.5422492
0
ARC
8
right_labelLayer
10
938.3550835
20
384.8579547
40
12.4939715
50
21.2506529
51
23.3489443
0
ARC
8
right_labelLayer
10
942.7198551
20
386.5938478
40
7.7968984
50
6.850478
51
20.9871829
0
ARC
8
right_labelLayer
10
940.5239246
20
386.296114
40
10.0127218
50
359.8710823
51
7.0432081
0
ARC
8
right_labelLayer
10
941.2464202
20
386.1769807
40
9.2907031
50
342.5649816
51
0.5957694
0
ARC
8
right_labelLayer
10
942.9599046
20
385.7038252
40
7.5144275
50
310.6097809
51
342.0923663
0
ARC
8
right_labelLayer
10
941.9990441
20
386.8214835
40
8.9883372
50
284.9315873
51
310.6222687
0
ARC
8
right_labelLayer
10
940.7966421
20
391.0348652
40
13.369485
50
272.533492
51
285.2579719
0
ARC
8
right_labelLayer
10
940.4874918
20
395.2578319
40
17.6024134
50
269.9691931
51
272.9311866
0
ARC
8
right_labelLayer
10
940.4491265
20
390.6802544
40
13.0248655
50
263.4836787
51
270.1271335
0
ARC
8
right_labelLayer
10
940.2369466
20
388.6649593
40
10.9985253
50
259.4963389
51
263.3904346
0
ARC
8
right_labelLayer
10
941.5500172
20
371.447725
40
7.2116708
50
117.3935055
51
128.4095434
0
ARC
8
right_labelLayer
10
939.6934512
20
373.750928
40
4.2535267
50
128.0881922
51
147.1400349
0
ARC
8
right_labelLayer
10
938.6932422
20
374.4221458
40
3.0492306
50
147.5369123
51
180.2592158
0
ARC
8
right_labelLayer
10
937.7443674
20
374.382392
40
2.1004848
50
179.2918974
51
198.3580651
0
ARC
8
right_labelLayer
10
937.3510905
20
374.2790346
40
1.6948661
50
199.2291688
51
239.5690979
0
ARC
8
right_labelLayer
10
937.677343
20
374.7298848
40
2.2494774
50
238.2202216
51
239.8457364
0
ARC
8
right_labelLayer
10
937.9373163
20
375.2647505
40
2.8428942
50
240.7302575
51
254.5026721
0
ARC
8
right_labelLayer
10
938.7132249
20
377.9385091
40
5.6268589
50
254.1637127
51
262.2123107
0
ARC
8
right_labelLayer
10
939.3278269
20
382.2312662
40
9.9633412
50
262.0555861
51
267.2083146
0
ARC
8
right_labelLayer
10
939.6247187
20
387.6766701
40
15.4167745
50
267.0919075
51
270.0863352
0
ARC
8
right_labelLayer
10
944.4728698
20
355.6705868
40
16.5895628
50
81.5744331
51
90.3059756
0
ARC
8
right_labelLayer
10
945.3828426
20
361.6052671
40
10.585646
50
68.3671524
51
81.739927
0
ARC
8
right_labelLayer
10
946.5713585
20
364.6426848
40
7.3240278
50
52.1879555
51
68.2500913
0
ARC
8
right_labelLayer
10
947.4029888
20
365.7632508
40
5.9289772
50
8.6201378
51
51.8982436
0
ARC
8
right_labelLayer
10
944.4882927
20
365.146527
40
8.9048632
50
359.7430541
51
9.7326455
0
ARC
8
right_labelLayer
10
944.6188149
20
364.9963028
40
8.7749446
50
340.5268828
51
0.7201546
0
ARC
8
right_labelLayer
10
945.9080677
20
364.6752951
40
7.4535116
50
302.9903671
51
339.5494552
0
ARC
8
right_labelLayer
10
944.5536092
20
366.3966972
40
9.6369084
50
303.1871225
51
304.1722191
0
ARC
8
right_labelLayer
10
943.29338
20
368.5788933
40
12.1537829
50
286.2542222
51
302.5280108
0
ARC
8
right_labelLayer
10
940.9980212
20
376.1500482
40
20.064961
50
276.4939777
51
286.4953628
0
ARC
8
right_labelLayer
10
939.5658537
20
388.1221136
40
32.1222611
50
269.7545097
51
276.6169666
0
ARC
8
right_labelLayer
10
939.3212654
20
378.7063127
40
22.7064171
50
262.5634755
51
270.2698893
0
ARC
8
right_labelLayer
10
938.2091425
20
370.463301
40
14.3888439
50
251.2101883
51
262.7064054
0
ARC
8
right_labelLayer
10
936.6062119
20
365.7584674
40
9.4184476
50
235.9668121
51
251.2229052
0
ARC
8
right_labelLayer
10
934.907243
20
363.3347041
40
6.4591799
50
208.9036221
51
236.4231443
0
ARC
8
right_labelLayer
10
935.063214
20
363.2693223
40
6.5654605
50
182.207984
51
207.7461528
0
ARC
8
right_labelLayer
10
937.0484735
20
363.4676343
40
8.5577517
50
179.9784663
51
183.0226727
0
ARC
8
right_labelLayer
10
934.6865953
20
363.5795696
40
6.1968264
50
138.3916123
51
181.0052658
0
ARC
8
right_labelLayer
10
935.3409912
20
362.991462
40
7.0766452
50
113.8121465
51
138.3496215
0
ARC
8
right_labelLayer
10
936.5822915
20
360.3109771
40
10.0302553
50
102.2870703
51
114.1172787
0
ARC
8
right_labelLayer
10
936.1922495
20
373.938868
40
4.2062094
50
216.5861501
51
245.4968708
0
ARC
8
right_labelLayer
10
936.7939689
20
374.4494114
40
4.99393
50
215.4650043
51
217.1747693
0
ARC
8
right_labelLayer
10
935.7914371
20
373.7252963
40
3.757271
50
182.1767288
51
215.3415536
0
ARC
8
right_labelLayer
10
936.6842739
20
373.8210843
40
4.6535123
50
179.9836395
51
182.9377444
0
ARC
8
right_labelLayer
10
936.6651314
20
373.861589
40
4.6345353
50
161.7225993
51
180.4843286
0
ARC
8
right_labelLayer
10
936.1555622
20
374.0006348
40
4.1071609
50
144.4963263
51
161.3350705
0
ARC
8
right_labelLayer
10
937.5138986
20
372.9882835
40
5.8009886
50
132.7259097
51
144.1479429
0
ARC
8
right_labelLayer
10
939.6909001
20
370.6635057
40
8.9858933
50
125.2212707
51
132.8655443
0
ARC
8
right_labelLayer
10
941.8795521
20
367.6242947
40
12.7310406
50
121.2352437
51
125.3794901
0
ARC
8
right_labelLayer
10
937.9995981
20
385.0726678
40
7.1047703
50
215.1640802
51
247.4747865
0
ARC
8
right_labelLayer
10
939.3257482
20
386.1429358
40
8.8059965
50
212.4713891
51
215.8875799
0
ARC
8
right_labelLayer
10
938.9770706
20
385.8934783
40
8.3779352
50
183.0160859
51
212.3123179
0
ARC
8
right_labelLayer
10
940.8157077
20
386.0983967
40
10.2253765
50
179.9759626
51
183.620649
0
ARC
8
right_labelLayer
10
942.2989589
20
386.2015819
40
11.7090445
50
166.8195819
51
180.4839295
0
ARC
8
right_labelLayer
10
938.4145982
20
387.1822978
40
7.7036996
50
132.3287771
51
167.3340828
0
ARC
8
right_labelLayer
10
938.934271
20
386.4353099
40
8.6067022
50
106.2188954
51
131.5377593
0
ARC
8
right_labelLayer
10
940.2491444
20
382.177852
40
13.0621808
50
93.6329759
51
106.5408686
0
ARC
8
right_labelLayer
10
940.6783936
20
377.358772
40
17.8991985
50
89.9380274
51
94.0267886
0
ARC
8
right_labelLayer
10
940.7478978
20
379.7236784
40
15.5343625
50
82.5852168
51
90.1849475
0
ARC
8
right_labelLayer
10
941.2225538
20
383.3962012
40
11.8312952
50
74.0089027
51
82.5694414
0
ARC
8
right_labelLayer
10
936.4668965
20
363.4643227
40
4.0703003
50
179.2207545
51
200.935544
0
ARC
8
right_labelLayer
10
935.9828594
20
363.3522451
40
3.5788219
50
202.028693
51
236.1457408
0
ARC
8
right_labelLayer
10
936.7123955
20
364.2785562
40
4.7553435
50
235.0634958
51
238.5041267
0
ARC
8
right_labelLayer
10
937.5604461
20
365.793308
40
6.4903508
50
239.1066261
51
254.486284
0
ARC
8
right_labelLayer
10
938.6911855
20
369.6920636
40
10.5496024
50
254.2324014
51
263.4937454
0
ARC
8
right_labelLayer
10
939.4014644
20
375.7080084
40
16.6073018
50
263.4108493
51
270.1457488
0
ARC
8
right_labelLayer
10
939.4769078
20
379.8165141
40
20.7157805
50
269.9081813
51
270.0003953
0
ARC
8
right_labelLayer
10
939.5741801
20
386.3450347
40
27.2444744
50
269.7957342
51
275.3991195
0
ARC
8
right_labelLayer
10
940.5938584
20
375.8770996
40
16.7270639
50
275.295692
51
283.3516135
0
ARC
8
right_labelLayer
10
942.2551304
20
369.0346634
40
9.6860069
50
283.1370564
51
295.8573075
0
ARC
8
right_labelLayer
10
943.4860648
20
366.3473668
40
6.7312125
50
296.404783
51
301.8008696
0
ARC
8
right_labelLayer
10
943.9686991
20
365.6821138
40
5.9117916
50
301.2230749
51
318.6238196
0
ARC
8
right_labelLayer
10
945.0572299
20
364.6765959
40
4.4304645
50
319.0765515
51
1.1406978
0
ARC
8
right_labelLayer
10
944.0037369
20
364.8082327
40
5.4832515
50
359.5461138
51
10.9904601
0
ARC
8
right_labelLayer
10
946.1217347
20
365.2390294
40
3.3220256
50
10.660889
51
30.9361792
0
ARC
8
right_labelLayer
10
946.7932807
20
365.611716
40
2.5545494
50
31.5095165
51
58.0777933
0
ARC
8
right_labelLayer
10
946.163878
20
364.4847467
40
3.844386
50
58.9972219
51
73.8586072
0
ARC
8
right_labelLayer
10
944.8917199
20
360.3200726
40
8.1988048
50
73.4100077
51
81.5907043
0
ARC
8
right_labelLayer
10
943.8138361
20
353.3446917
40
15.2568941
50
81.4172391
51
86.5756701
0
ARC
8
right_labelLayer
10
943.1533083
20
342.8351989
40
25.7870957
50
86.5054282
51
90.1399258
0
ARC
8
right_labelLayer
10
938.1739704
20
359.3063403
40
9.3160578
50
89.6435118
51
100.0209061
0
ARC
8
right_labelLayer
10
937.5884421
20
362.4915792
40
6.0775666
50
99.810295
51
116.8229608
0
ARC
8
right_labelLayer
10
937.0180651
20
363.6944211
40
4.7468903
50
117.2304203
51
130.502348
0
ARC
8
right_labelLayer
10
936.7252221
20
364.0707914
40
4.2705661
50
130.794464
51
169.0413479
0
ARC
8
right_labelLayer
10
938.881767
20
363.5629171
40
6.4849386
50
168.2580585
51
180.3820226
0
ARC
8
right_labelLayer
10
942.5048388
20
386.1398356
40
7.910832
50
179.5617602
51
191.6529095
0
ARC
8
right_labelLayer
10
939.7543388
20
385.5455787
40
5.0970614
50
191.3555165
51
213.3660289
0
ARC
8
right_labelLayer
10
939.0938005
20
385.1641779
40
4.3358628
50
213.9573905
51
227.7971471
0
ARC
8
right_labelLayer
10
939.6684815
20
385.8611765
40
5.2383978
50
228.2620782
51
254.7341308
0
ARC
8
right_labelLayer
10
940.4026692
20
388.3779859
40
7.859843
50
254.4016495
51
267.4348771
0
ARC
8
right_labelLayer
10
940.5942109
20
390.946613
40
10.4347484
50
267.0154199
51
270.0323232
0
ARC
8
right_labelLayer
10
940.7194139
20
389.3401437
40
8.8290838
50
269.2256809
51
284.3773212
0
ARC
8
right_labelLayer
10
941.922804
20
385.1475201
40
4.4706951
50
282.779668
51
346.4828525
0
ARC
8
right_labelLayer
10
938.3249914
20
386.1666269
40
8.2084203
50
345.4362094
51
0.7466018
0
ARC
8
right_labelLayer
10
937.8192458
20
386.3982014
40
8.7143601
50
359.1806356
51
15.0431713
0
ARC
8
right_labelLayer
10
941.7678789
20
387.5500595
40
4.6029158
50
13.9535624
51
77.6673832
0
ARC
8
right_labelLayer
10
940.6349778
20
383.4902266
40
8.8142949
50
76.1095009
51
90.7028482
0
ARC
8
right_labelLayer
10
940.4653998
20
383.8002985
40
8.503782
50
89.5859279
51
101.3334002
0
ARC
8
right_labelLayer
10
939.857694
20
386.6988023
40
5.5424353
50
101.0620538
51
121.9739101
0
ARC
8
right_labelLayer
10
939.430602
20
387.4671124
40
4.6647395
50
122.52109
51
134.9966796
0
ARC
8
right_labelLayer
10
939.6064503
20
387.3617547
40
4.8638349
50
135.583991
51
163.0015853
0
ARC
8
right_labelLayer
10
942.1749264
20
386.5199013
40
7.5664074
50
162.5912083
51
175.7343158
0
ARC
8
right_labelLayer
10
945.255707
20
386.2164169
40
10.6614808
50
175.3393667
51
180.0863838
0
LINE
8
right_labelLayer
10
981.5913086
20
368.0118662
11
977.5385742
21
368.0118662
0
LINE
8
right_labelLayer
10
977.5385742
20
368.0118662
11
977.5385742
21
385.3214365
0
LINE
8
right_labelLayer
10
963.2807617
20
382.001124
11
963.2807617
21
368.0118662
0
LINE
8
right_labelLayer
10
963.2807617
20
368.0118662
11
959.2280273
21
368.0118662
0
LINE
8
right_labelLayer
10
959.2280273
20
368.0118662
11
959.2280273
21
406.0001475
0
LINE
8
right_labelLayer
10
959.2280273
20
406.0001475
11
963.2807617
21
406.0001475
0
LINE
8
right_labelLayer
10
963.2807617
20
406.0001475
11
963.2807617
21
394.501124
0
LINE
8
right_labelLayer
10
963.0854492
20
391.0587412
11
963.3295898
21
391.0587412
0
LINE
8
right_labelLayer
10
981.5913086
20
385.4679209
11
981.5913086
21
368.0118662
0
ARC
8
right_labelLayer
10
966.0827268
20
385.3871374
40
11.4560358
50
359.6714042
51
8.6877362
0
ARC
8
right_labelLayer
10
970.3286452
20
386.0605147
40
7.1571623
50
8.4931386
51
22.6579922
0
ARC
8
right_labelLayer
10
972.4858713
20
386.9569911
40
4.8210814
50
22.7024428
51
42.3419505
0
ARC
8
right_labelLayer
10
972.7283574
20
387.066069
40
4.5691293
50
43.3790921
51
71.5386049
0
ARC
8
right_labelLayer
10
971.8215926
20
384.5323289
40
7.2598471
50
71.0828147
51
84.3691138
0
ARC
8
right_labelLayer
10
971.4145595
20
381.0715926
40
10.7440218
50
84.019793
51
90.1510734
0
ARC
8
right_labelLayer
10
971.2988869
20
379.551731
40
12.2641572
50
89.5919442
51
100.3595179
0
ARC
8
right_labelLayer
10
970.4304731
20
384.1153626
40
7.6188307
50
100.1067879
51
118.0847379
0
ARC
8
right_labelLayer
10
969.547225
20
385.8485098
40
5.6740635
50
118.4551088
51
139.6706098
0
ARC
8
right_labelLayer
10
970.4339596
20
385.2424145
40
6.7432341
50
140.6208409
51
160.504889
0
ARC
8
right_labelLayer
10
975.1079509
20
383.512117
40
11.726928
50
160.156698
51
171.5312849
0
ARC
8
right_labelLayer
10
982.6705801
20
382.3139067
40
19.3836887
50
171.3202292
51
178.3406821
0
ARC
8
right_labelLayer
10
989.4370514
20
382.0116116
40
26.1562917
50
178.1079721
51
180.0229732
0
ARC
8
right_labelLayer
10
926.8236624
20
394.4576665
40
36.4571252
50
357.867406
51
0.0682976
0
ARC
8
right_labelLayer
10
939.2085402
20
393.985155
40
24.063245
50
354.9828509
51
357.8943493
0
ARC
8
right_labelLayer
10
947.3881113
20
393.2728853
40
15.8527237
50
351.9712705
51
354.9619073
0
ARC
8
right_labelLayer
10
970.1942354
20
386.7646667
40
8.0970633
50
119.8315927
51
147.9725886
0
ARC
8
right_labelLayer
10
971.1746607
20
385.2585634
40
9.8918284
50
116.6657895
51
120.4183314
0
ARC
8
right_labelLayer
10
971.357778
20
384.7775882
40
10.4039582
50
96.6652597
51
116.3782411
0
ARC
8
right_labelLayer
10
971.7522314
20
382.0560967
40
13.1530584
50
89.8927358
51
96.9959224
0
ARC
8
right_labelLayer
10
971.878365
20
378.7669355
40
16.4425097
50
80.6863016
51
90.3537238
0
ARC
8
right_labelLayer
10
972.9021856
20
384.7888859
40
10.3343131
50
65.6022697
51
80.8844116
0
ARC
8
right_labelLayer
10
974.1315996
20
387.5577969
40
7.3048737
50
46.7400876
51
65.4130679
0
ARC
8
right_labelLayer
10
974.2151567
20
387.8216262
40
7.0564966
50
19.2204384
51
45.766065
0
ARC
8
right_labelLayer
10
970.1463353
20
386.3132815
40
11.3953856
50
6.4733821
51
19.6468041
0
ARC
8
right_labelLayer
10
964.0664824
20
385.53077
40
17.5249389
50
359.7945216
51
6.7743959
0
LINE
8
right_labelLayer
10
1002.2211914
20
371.3565928
11
1002.2211914
21
368.2560069
0
LINE
8
right_labelLayer
10
990.2094726
20
375.7022959
11
990.2094726
21
391.6202647
0
LINE
8
right_labelLayer
10
990.2094726
20
391.6202647
11
986.3764648
21
391.6202647
0
LINE
8
right_labelLayer
10
986.3764648
20
391.6202647
11
986.3764648
21
393.5733897
0
LINE
8
right_labelLayer
10
986.3764648
20
393.5733897
11
990.2094726
21
395.25796
0
LINE
8
right_labelLayer
10
990.2094726
20
395.25796
11
991.918457
21
400.9708506
0
LINE
8
right_labelLayer
10
991.918457
20
400.9708506
11
994.262207
21
400.9708506
0
LINE
8
right_labelLayer
10
994.262207
20
400.9708506
11
994.262207
21
394.7696787
0
LINE
8
right_labelLayer
10
994.262207
20
394.7696787
11
1002.0258789
21
394.7696787
0
LINE
8
right_labelLayer
10
1002.0258789
20
394.7696787
11
1002.0258789
21
391.6202647
0
LINE
8
right_labelLayer
10
1002.0258789
20
391.6202647
11
994.262207
21
391.6202647
0
LINE
8
right_labelLayer
10
994.262207
20
391.6202647
11
994.262207
21
375.8731944
0
ARC
8
right_labelLayer
10
998.5868738
20
384.178035
40
13.3097524
50
269.8803621
51
278.302828
0
ARC
8
right_labelLayer
10
998.713807
20
383.1413681
40
12.2656452
50
278.4153916
51
279.0080435
0
ARC
8
right_labelLayer
10
997.2203176
20
392.6823004
40
21.9227514
50
278.9589502
51
280.5104591
0
ARC
8
right_labelLayer
10
998.6434589
20
385.0463533
40
14.1553221
50
280.4847486
51
282.62684
0
ARC
8
right_labelLayer
10
999.8916231
20
379.5011394
40
8.471375
50
282.5876742
51
285.5795064
0
ARC
8
right_labelLayer
10
1000.5162903
20
377.2035532
40
6.0904543
50
285.7239938
51
286.2560288
0
ARC
8
right_labelLayer
10
1000.5173124
20
371.8598048
40
3.9862969
50
287.988839
51
295.3048269
0
ARC
8
right_labelLayer
10
999.555846
20
374.7686966
40
7.0499421
50
283.3069314
51
288.1197563
0
ARC
8
right_labelLayer
10
998.5401681
20
379.0053927
40
11.4066711
50
280.0070122
51
283.3735287
0
ARC
8
right_labelLayer
10
997.8603713
20
382.6946879
40
15.1579929
50
279.186308
51
280.1142508
0
ARC
8
right_labelLayer
10
997.44344
20
385.0660935
40
17.5655762
50
275.5260332
51
279.2939486
0
ARC
8
right_labelLayer
10
997.9135134
20
380.1561743
40
12.6332094
50
270.8932523
51
275.5483775
0
ARC
8
right_labelLayer
10
997.9725735
20
377.9109937
40
10.3874088
50
270.0031497
51
270.7605869
0
ARC
8
right_labelLayer
10
997.8096036
20
378.1074678
40
10.5851463
50
253.7847941
51
270.8852572
0
ARC
8
right_labelLayer
10
996.5555458
20
373.8306535
40
6.1282826
50
190.3817649
51
253.8772393
0
ARC
8
right_labelLayer
10
1002.9474666
20
375.5589156
40
12.7388009
50
179.3550995
51
192.8477604
0
ARC
8
right_labelLayer
10
1002.4229108
20
375.8221542
40
8.1608634
50
179.6416551
51
189.7505883
0
ARC
8
right_labelLayer
10
999.5419724
20
375.3083045
40
5.2345495
50
189.5479593
51
205.7873558
0
ARC
8
right_labelLayer
10
998.358018
20
374.762346
40
3.9310598
50
206.1294288
51
221.4084071
0
ARC
8
right_labelLayer
10
998.2252702
20
374.6616188
40
3.7648939
50
221.5949167
51
262.3505195
0
ARC
8
right_labelLayer
10
998.5409961
20
376.285199
40
5.4169178
50
261.3266174
51
270.1912984
0
LINE
8
bottom_outsideCutPath
10
1379
20
845
11
1379
21
742.75
0
LINE
8
bottom_outsideCutPath
10
1379
20
742.75
11
1376
21
742.75
0
LINE
8
bottom_outsideCutPath
10
1376
20
742.75
11
1376
21
672.25
0
LINE
8
bottom_outsideCutPath
10
1376
20
672.25
11
1379
21
672.25
0
LINE
8
bottom_outsideCutPath
10
1379
20
672.25
11
1379
21
601.75
0
LINE
8
bottom_outsideCutPath
10
1379
20
601.75
11
1376
21
601.75
0
LINE
8
bottom_outsideCutPath
10
1376
20
601.75
11
1376
21
531.25
0
LINE
8
bottom_outsideCutPath
10
1376
20
531.25
11
1379
21
531.25
0
LINE
8
bottom_outsideCutPath
10
1379
20
531.25
11
1379
21
460.75
0
LINE
8
bottom_outsideCutPath
10
1379
20
460.75
11
1376
21
460.75
0
LINE
8
bottom_outsideCutPath
10
1376
20
460.75
11
1376
21
390.25
0
LINE
8
bottom_outsideCutPath
10
1376
20
390.25
11
1379
21
390.25
0
LINE
8
bottom_outsideCutPath
10
1379
20
390.25
11
1379
21
319.75
0
LINE
8
bottom_outsideCutPath
10
1379
20
319.75
11
1376
21
319.75
0
LINE
8
bottom_outsideCutPath
10
1376
20
319.75
11
1376
21
249.25
0
LINE
8
bottom_outsideCutPath
10
1376
20
249.25
11
1379
21
249.25
0
LINE
8
bottom_outsideCutPath
10
1379
20
249.25
11
1379
21
178.75
0
LINE
8
bottom_outsideCutPath
10
1379
20
178.75
11
1376
21
178.75
0
LINE
8
bottom_outsideCutPath
10
1376
20
178.75
11
1376
21
108.25
0
LINE
8
bottom_outsideCutPath
10
1376
20
108.25
11
1379
21
108.25
0
LINE
8
bottom_outsideCutPath
10
1379
20
108.25
11
1379
21
37.75
0
LINE
8
bottom_outsideCutPath
10
1379
20
37.75
11
1379
21
6
0
LINE
8
bottom_outsideCutPath
10
1379
20
6
11
1462.25
21
6
0
LINE
8
bottom_outsideCutPath
10
1462.25
20
6
11
1462.25
21
3
0
LINE
8
bottom_outsideCutPath
10
1462.25
20
3
11
1532.75
21
3
0
LINE
8
bottom_outsideCutPath
10
1532.75
20
3
11
1532.75
21
6
0
LINE
8
bottom_outsideCutPath
10
1532.75
20
6
11
1603.25
21
6
0
LINE
8
bottom_outsideCutPath
10
1603.25
20
6
11
1603.25
21
3
0
LINE
8
bottom_outsideCutPath
10
1603.25
20
3
11
1673.75
21
3
0
LINE
8
bottom_outsideCutPath
10
1673.75
20
3
11
1673.75
21
6
0
LINE
8
bottom_outsideCutPath
10
1673.75
20
6
11
1744.25
21
6
0
LINE
8
bottom_outsideCutPath
10
1744.25
20
6
11
1744.25
21
3
0
LINE
8
bottom_outsideCutPath
10
1744.25
20
3
11
1814.75
21
3
0
LINE
8
bottom_outsideCutPath
10
1814.75
20
3
11
1814.75
21
6
0
LINE
8
bottom_outsideCutPath
10
1814.75
20
6
11
1885.25
21
6
0
LINE
8
bottom_outsideCutPath
10
1885.25
20
6
11
1898
21
6
0
LINE
8
bottom_outsideCutPath
10
1898
20
6
11
1898
21
108.25
0
LINE
8
bottom_outsideCutPath
10
1898
20
108.25
11
1901
21
108.25
0
LINE
8
bottom_outsideCutPath
10
1901
20
108.25
11
1901
21
178.75
0
LINE
8
bottom_outsideCutPath
10
1901
20
178.75
11
1898
21
178.75
0
LINE
8
bottom_outsideCutPath
10
1898
20
178.75
11
1898
21
249.25
0
LINE
8
bottom_outsideCutPath
10
1898
20
249.25
11
1901
21
249.25
0
LINE
8
bottom_outsideCutPath
10
1901
20
249.25
11
1901
21
319.75
0
LINE
8
bottom_outsideCutPath
10
1901
20
319.75
11
1898
21
319.75
0
LINE
8
bottom_outsideCutPath
10
1898
20
319.75
11
1898
21
390.25
0
LINE
8
bottom_outsideCutPath
10
1898
20
390.25
11
1901
21
390.25
0
LINE
8
bottom_outsideCutPath
10
1901
20
390.25
11
1901
21
460.75
0
LINE
8
bottom_outsideCutPath
10
1901
20
460.75
11
1898
21
460.75
0
LINE
8
bottom_outsideCutPath
10
1898
20
460.75
11
1898
21
531.25
0
LINE
8
bottom_outsideCutPath
10
1898
20
531.25
11
1901
21
531.25
0
LINE
8
bottom_outsideCutPath
10
1901
20
531.25
11
1901
21
601.75
0
LINE
8
bottom_outsideCutPath
10
1901
20
601.75
11
1898
21
601.75
0
LINE
8
bottom_outsideCutPath
10
1898
20
601.75
11
1898
21
672.25
0
LINE
8
bottom_outsideCutPath
10
1898
20
672.25
11
1901
21
672.25
0
LINE
8
bottom_outsideCutPath
10
1901
20
672.25
11
1901
21
742.75
0
LINE
8
bottom_outsideCutPath
10
1901
20
742.75
11
1898
21
742.75
0
LINE
8
bottom_outsideCutPath
10
1898
20
742.75
11
1898
21
813.25
0
LINE
8
bottom_outsideCutPath
10
1898
20
813.25
11
1898
21
845
0
LINE
8
bottom_outsideCutPath
10
1898
20
845
11
1814.75
21
845
0
LINE
8
bottom_outsideCutPath
10
1814.75
20
845
11
1814.75
21
848
0
LINE
8
bottom_outsideCutPath
10
1814.75
20
848
11
1744.25
21
848
0
LINE
8
bottom_outsideCutPath
10
1744.25
20
848
11
1744.25
21
845
0
LINE
8
bottom_outsideCutPath
10
1744.25
20
845
11
1673.75
21
845
0
LINE
8
bottom_outsideCutPath
10
1673.75
20
845
11
1673.75
21
848
0
LINE
8
bottom_outsideCutPath
10
1673.75
20
848
11
1603.25
21
848
0
LINE
8
bottom_outsideCutPath
10
1603.25
20
848
11
1603.25
21
845
0
LINE
8
bottom_outsideCutPath
10
1603.25
20
845
11
1532.75
21
845
0
LINE
8
bottom_outsideCutPath
10
1532.75
20
845
11
1532.75
21
848
0
LINE
8
bottom_outsideCutPath
10
1532.75
20
848
11
1462.25
21
848
0
LINE
8
bottom_outsideCutPath
10
1462.25
20
848
11
1462.25
21
845
0
LINE
8
bottom_outsideCutPath
10
1462.25
20
845
11
1391.75
21
845
0
LINE
8
bottom_outsideCutPath
10
1391.75
20
845
11
1379
21
845
0
LINE
8
bottom_labelLayer
10
1474.2834427
20
393.3553305
11
1473.6682083
21
393.3553305
0
LINE
8
bottom_labelLayer
10
1473.6682083
20
393.3553305
11
1471.8737747
21
386.1263266
0
LINE
8
bottom_labelLayer
10
1471.8737747
20
386.1263266
11
1465.7727005
21
386.1263266
0
LINE
8
bottom_labelLayer
10
1465.7727005
20
386.1263266
11
1465.7727005
21
465.9017172
0
LINE
8
bottom_labelLayer
10
1465.7727005
20
465.9017172
11
1474.2834427
21
465.9017172
0
LINE
8
bottom_labelLayer
10
1474.2834427
20
465.9017172
11
1474.2834427
21
446.5218344
0
LINE
8
bottom_labelLayer
10
1473.8732865
20
434.8323813
11
1474.2834427
21
434.8323813
0
ARC
8
bottom_labelLayer
10
1492.1754728
20
417.2300564
40
26.011781
50
74.2393324
51
90.5623797
0
ARC
8
bottom_labelLayer
10
1493.8954597
20
423.5399018
40
19.472062
50
38.5631292
51
74.0670377
0
ARC
8
bottom_labelLayer
10
1489.469155
20
420.0981943
40
25.0786583
50
16.4709303
51
38.4075256
0
ARC
8
bottom_labelLayer
10
1476.7176492
20
416.0996964
40
38.4412028
50
5.1338455
51
16.797339
0
ARC
8
bottom_labelLayer
10
1460.6199676
20
414.3896859
40
54.6279546
50
359.8779294
51
5.4093625
0
ARC
8
bottom_labelLayer
10
1465.3482263
20
413.978898
40
49.9004403
50
350.6562785
51
0.3380341
0
ARC
8
bottom_labelLayer
10
1482.7443161
20
411.0200116
40
32.2549052
50
335.8305961
51
350.825483
0
ARC
8
bottom_labelLayer
10
1490.3965575
20
407.7171967
40
23.9214768
50
321.3161469
51
335.5436166
0
ARC
8
bottom_labelLayer
10
1493.3220602
20
405.3333567
40
20.1478819
50
274.0640054
51
321.4081018
0
ARC
8
bottom_labelLayer
10
1491.9591659
20
413.9664638
40
28.8655543
50
269.9225794
51
275.5481602
0
ARC
8
bottom_labelLayer
10
1491.7766396
20
410.9154631
40
25.8149261
50
255.7755397
51
270.3185459
0
ARC
8
bottom_labelLayer
10
1491.0399494
20
407.642432
40
22.4614048
50
245.9801597
51
255.5455806
0
ARC
8
bottom_labelLayer
10
1489.613062
20
404.324198
40
18.8497555
50
215.5850177
51
245.8361689
0
ARC
8
bottom_labelLayer
10
1296.8408706
20
446.3718253
40
177.4426355
50
358.112324
51
0.0484376
0
ARC
8
bottom_labelLayer
10
1346.2258201
20
444.7138514
40
128.0298755
50
355.7238676
51
358.1258945
0
ARC
8
bottom_labelLayer
10
1367.9772201
20
443.2194951
40
106.2276827
50
355.4715486
51
355.6528543
0
ARC
8
bottom_labelLayer
10
1490.155606
20
423.7642946
40
19.350145
50
95.1835134
51
145.1108984
0
ARC
8
bottom_labelLayer
10
1491.8564097
20
414.1733271
40
29.0673272
50
89.8743363
51
96.8145418
0
ARC
8
bottom_labelLayer
10
1490.5115167
20
412.1988854
40
23.9158979
50
89.5731363
51
100.7324284
0
ARC
8
bottom_labelLayer
10
1488.7410709
20
421.1437817
40
14.7979563
50
100.446941
51
119.6700791
0
ARC
8
bottom_labelLayer
10
1487.0993351
20
424.2131981
40
11.3186845
50
120.1402906
51
142.4249043
0
ARC
8
bottom_labelLayer
10
1489.8154528
20
422.4163967
40
14.5688984
50
143.3382326
51
161.2559904
0
ARC
8
bottom_labelLayer
10
1501.1737375
20
418.3838256
40
26.6211457
50
160.8926379
51
171.2334311
0
ARC
8
bottom_labelLayer
10
1520.1350971
20
415.324912
40
45.8273893
50
171.066782
51
177.8456863
0
ARC
8
bottom_labelLayer
10
1539.8543035
20
414.3219819
40
65.5708789
50
177.6176623
51
180.0425389
0
ARC
8
bottom_labelLayer
10
1530.5553422
20
414.053564
40
56.2723285
50
179.7762677
51
185.7075261
0
ARC
8
bottom_labelLayer
10
1508.3691584
20
411.7676002
40
33.9688606
50
185.5924836
51
194.205072
0
ARC
8
bottom_labelLayer
10
1494.1569294
20
408.0790307
40
19.2862419
50
193.9430395
51
208.0218409
0
ARC
8
bottom_labelLayer
10
1488.4066073
20
405.1536828
40
12.8362392
50
208.5536536
51
217.5605422
0
ARC
8
bottom_labelLayer
10
1487.9381225
20
404.9588291
40
12.3467805
50
218.1690478
51
253.8047157
0
ARC
8
bottom_labelLayer
10
1490.2282095
20
412.0194003
40
19.7672346
50
253.138243
51
266.8483147
0
ARC
8
bottom_labelLayer
10
1490.8703882
20
419.5926002
40
27.3652104
50
266.3775596
51
270.0510511
0
ARC
8
bottom_labelLayer
10
1491.0763172
20
409.1925151
40
16.9660856
50
269.3868923
51
285.863063
0
ARC
8
bottom_labelLayer
10
1492.3367891
20
404.6369907
40
12.2395533
50
286.0162923
51
326.8497324
0
ARC
8
bottom_labelLayer
10
1486.2530944
20
408.6672162
40
19.5369945
50
326.7105016
51
343.6661767
0
ARC
8
bottom_labelLayer
10
1474.8647673
20
412.1471171
40
31.4446433
50
343.4171405
51
353.636916
0
ARC
8
bottom_labelLayer
10
1457.6638728
20
414.1881253
40
48.7659273
50
353.4934786
51
0.2205473
0
ARC
8
bottom_labelLayer
10
1456.147647
20
414.5793682
40
50.2822037
50
359.7680803
51
6.3095238
0
ARC
8
bottom_labelLayer
10
1475.0879221
20
416.7528793
40
31.2178871
50
6.1648647
51
16.0396404
0
ARC
8
bottom_labelLayer
10
1487.2889472
20
420.3485168
40
18.4985484
50
15.7779468
51
32.015125
0
ARC
8
bottom_labelLayer
10
1491.0934921
20
422.527227
40
14.1186343
50
32.7034353
51
35.5242248
0
ARC
8
bottom_labelLayer
10
1492.4852047
20
423.5163922
40
12.4112102
50
35.5408385
51
79.8011242
0
ARC
8
bottom_labelLayer
10
1490.8185058
20
416.4309267
40
19.6836143
50
78.6781314
51
90.3749564
0
ARC
8
bottom_labelLayer
10
1534.6564575
20
413.9769331
40
43.9614803
50
349.176193
51
0.3862622
0
ARC
8
bottom_labelLayer
10
1549.4572582
20
411.0263667
40
28.8701546
50
330.2507047
51
349.4116462
0
ARC
8
bottom_labelLayer
10
1554.0121946
20
408.6588892
40
23.7416632
50
318.143973
51
329.7566225
0
ARC
8
bottom_labelLayer
10
1554.8342922
20
408.0000592
40
22.6898073
50
278.8959167
51
317.9979129
0
ARC
8
bottom_labelLayer
10
1552.7160495
20
418.1487413
40
33.0481194
50
269.7502889
51
279.8033256
0
ARC
8
bottom_labelLayer
10
1552.3725126
20
412.4305862
40
27.3303784
50
253.5436938
51
270.4182474
0
ARC
8
bottom_labelLayer
10
1551.4627409
20
408.9113576
40
23.6979141
50
238.8115542
51
253.2428327
0
ARC
8
bottom_labelLayer
10
1551.1691242
20
408.3208959
40
23.0408065
50
207.7947034
51
238.6757962
0
ARC
8
bottom_labelLayer
10
1555.3822795
20
410.9012524
40
27.9729058
50
205.6560159
51
208.446127
0
ARC
8
bottom_labelLayer
10
1558.6274832
20
412.2534203
40
31.484159
50
188.9102473
51
205.3171441
0
ARC
8
bottom_labelLayer
10
1569.5640083
20
414.1057119
40
42.5758173
50
179.7744712
51
189.0932839
0
ARC
8
bottom_labelLayer
10
1571.1772697
20
414.5726052
40
44.1897625
50
169.244294
51
180.3880785
0
ARC
8
bottom_labelLayer
10
1556.1707791
20
417.5388473
40
28.8935662
50
150.7111481
51
169.4695454
0
ARC
8
bottom_labelLayer
10
1551.380236
20
419.9989691
40
23.5127351
50
138.1759434
51
150.2287439
0
ARC
8
bottom_labelLayer
10
1550.5833717
20
420.6104673
40
22.5112674
50
99.175937
51
137.9832731
0
ARC
8
bottom_labelLayer
10
1552.7766577
20
410.2886119
40
33.0548715
50
89.7326362
51
100.0759798
0
ARC
8
bottom_labelLayer
10
1553.2150182
20
414.7462813
40
28.5982535
50
73.522274
51
90.5692247
0
ARC
8
bottom_labelLayer
10
1554.8921372
20
420.8396982
40
22.2797142
50
41.1445651
51
73.2133842
0
ARC
8
bottom_labelLayer
10
1551.6906535
20
418.0880661
40
26.5010869
50
13.5014358
51
41.0703423
0
ARC
8
bottom_labelLayer
10
1539.3217685
20
414.8512923
40
39.2846923
50
1.1277191
51
13.880004
0
ARC
8
bottom_labelLayer
10
1528.6677962
20
414.2803605
40
49.9491431
50
359.9919001
51
1.5419787
0
ARC
8
bottom_labelLayer
10
1578.904525
20
414.0521225
40
43.0982123
50
179.7059611
51
187.9160803
0
ARC
8
bottom_labelLayer
10
1563.0974548
20
411.7814509
40
27.129143
50
187.763925
51
200.0976865
0
ARC
8
bottom_labelLayer
10
1554.3893915
20
408.590805
40
17.854955
50
200.0845899
51
216.9131616
0
ARC
8
bottom_labelLayer
10
1551.2095146
20
406.320224
40
13.9490946
50
217.3009564
51
261.7099086
0
ARC
8
bottom_labelLayer
10
1552.6857225
20
413.3645322
40
21.1373289
50
260.5033156
51
270.2476793
0
ARC
8
bottom_labelLayer
10
1552.9674868
20
411.9947502
40
19.7682662
50
269.4481656
51
284.7255732
0
ARC
8
bottom_labelLayer
10
1554.5324244
20
406.1909073
40
13.7573165
50
284.5662314
51
322.6333812
0
ARC
8
bottom_labelLayer
10
1550.8735168
20
408.8343033
40
18.2700039
50
323.0089291
51
342.6390468
0
ARC
8
bottom_labelLayer
10
1540.4082724
20
412.2546461
40
29.2794336
50
342.3615692
51
353.7537574
0
ARC
8
bottom_labelLayer
10
1524.9685317
20
414.1157042
40
44.8303249
50
353.5363079
51
0.2014161
0
ARC
8
bottom_labelLayer
10
1527.3341218
20
414.4900368
40
42.4650107
50
359.7075662
51
7.8972701
0
ARC
8
bottom_labelLayer
10
1542.8859909
20
416.7195396
40
26.7544034
50
7.7439941
51
20.0690166
0
ARC
8
bottom_labelLayer
10
1551.5521208
20
419.899684
40
17.523214
50
20.0257007
51
37.4350535
0
ARC
8
bottom_labelLayer
10
1554.4274626
20
421.9399834
40
14.0004318
50
37.9577665
51
80.4006189
0
ARC
8
bottom_labelLayer
10
1552.7934942
20
414.6493765
40
21.4650727
50
79.3453446
51
90.3174781
0
ARC
8
bottom_labelLayer
10
1552.4909446
20
415.8603673
40
20.2545845
50
89.4805966
51
103.8805002
0
ARC
8
bottom_labelLayer
10
1550.7890364
20
422.3412329
40
13.5550385
50
103.4685225
51
142.311889
0
ARC
8
bottom_labelLayer
10
1554.097677
20
420.0143609
40
17.5968306
50
142.9025717
51
162.3749632
0
ARC
8
bottom_labelLayer
10
1564.5232311
20
416.5400708
40
28.5853782
50
162.0653146
51
173.1674833
0
ARC
8
bottom_labelLayer
10
1580.7793837
20
414.4666938
40
44.9729192
50
173.0086161
51
180.2463866
0
LINE
8
bottom_labelLayer
10
1619.3762162
20
393.1502524
11
1619.3762162
21
386.6390219
0
LINE
8
bottom_labelLayer
10
1594.1516068
20
402.2762289
11
1594.1516068
21
435.7039633
0
LINE
8
bottom_labelLayer
10
1594.1516068
20
435.7039633
11
1586.1022904
21
435.7039633
0
LINE
8
bottom_labelLayer
10
1586.1022904
20
435.7039633
11
1586.1022904
21
439.8055258
0
LINE
8
bottom_labelLayer
10
1586.1022904
20
439.8055258
11
1594.1516068
21
443.3431235
0
LINE
8
bottom_labelLayer
10
1594.1516068
20
443.3431235
11
1597.740474
21
455.3401938
0
LINE
8
bottom_labelLayer
10
1597.740474
20
455.3401938
11
1602.662349
21
455.3401938
0
LINE
8
bottom_labelLayer
10
1602.662349
20
455.3401938
11
1602.662349
21
442.3177328
0
LINE
8
bottom_labelLayer
10
1602.662349
20
442.3177328
11
1618.9660599
21
442.3177328
0
LINE
8
bottom_labelLayer
10
1618.9660599
20
442.3177328
11
1618.9660599
21
435.7039633
0
LINE
8
bottom_labelLayer
10
1618.9660599
20
435.7039633
11
1602.662349
21
435.7039633
0
LINE
8
bottom_labelLayer
10
1602.662349
20
435.7039633
11
1602.662349
21
402.6351157
0
ARC
8
bottom_labelLayer
10
1611.7441509
20
420.0752645
40
27.9504637
50
269.8803585
51
278.3028294
0
ARC
8
bottom_labelLayer
10
1612.0096417
20
417.9050163
40
25.7646744
50
278.4155473
51
279.0080423
0
ARC
8
bottom_labelLayer
10
1608.874188
20
437.9353643
40
46.0389203
50
278.9589695
51
280.5104399
0
ARC
8
bottom_labelLayer
10
1611.8628421
20
421.8994163
40
29.726857
50
280.4847722
51
282.6268146
0
ARC
8
bottom_labelLayer
10
1614.4841592
20
410.2536605
40
17.7897431
50
282.5876577
51
285.5795142
0
ARC
8
bottom_labelLayer
10
1615.7991812
20
405.4174628
40
12.7780919
50
285.7237955
51
286.2563244
0
ARC
8
bottom_labelLayer
10
1615.7980666
20
394.2070159
40
8.3712417
50
287.9888252
51
295.304797
0
ARC
8
bottom_labelLayer
10
1613.7790282
20
400.3155259
40
14.8047293
50
283.3069195
51
288.1197929
0
ARC
8
bottom_labelLayer
10
1611.646104
20
409.2125808
40
23.9538534
50
280.0069885
51
283.3735268
0
ARC
8
bottom_labelLayer
10
1610.2187504
20
416.9587107
40
31.8302227
50
279.1862951
51
280.1142834
0
ARC
8
bottom_labelLayer
10
1609.3429513
20
421.940105
40
36.8876103
50
275.5260279
51
279.2939535
0
ARC
8
bottom_labelLayer
10
1610.3300916
20
411.6293947
40
26.5297609
50
270.8932535
51
275.548375
0
ARC
8
bottom_labelLayer
10
1610.4541337
20
406.9135707
40
21.8126348
50
270.00311
51
270.7605792
0
ARC
8
bottom_labelLayer
10
1610.111883
20
407.3270938
40
22.228811
50
253.7847939
51
270.885254
0
ARC
8
bottom_labelLayer
10
1607.4783602
20
398.34578
40
12.8693937
50
190.3817661
51
253.8772405
0
ARC
8
bottom_labelLayer
10
1620.9013824
20
401.9751286
40
26.7514702
50
179.3550955
51
192.8477623
0
ARC
8
bottom_labelLayer
10
1619.7998139
20
402.5279303
40
17.1378001
50
179.6416514
51
189.7505924
0
ARC
8
bottom_labelLayer
10
1613.7498514
20
401.4488446
40
10.9925487
50
189.5479518
51
205.7873562
0
ARC
8
bottom_labelLayer
10
1611.263565
20
400.3023422
40
8.2552409
50
206.1294391
51
221.4083891
0
ARC
8
bottom_labelLayer
10
1610.9847823
20
400.0908083
40
7.9062785
50
221.5949203
51
262.3505161
0
ARC
8
bottom_labelLayer
10
1611.6478035
20
403.5003049
40
11.3755066
50
261.3266145
51
270.1913117
0
LINE
8
bottom_labelLayer
10
1656.4440872
20
393.1502524
11
1656.4440872
21
386.6390219
0
LINE
8
bottom_labelLayer
10
1631.2194779
20
402.2762289
11
1631.2194779
21
435.7039633
0
LINE
8
bottom_labelLayer
10
1631.2194779
20
435.7039633
11
1623.1701615
21
435.7039633
0
LINE
8
bottom_labelLayer
10
1623.1701615
20
435.7039633
11
1623.1701615
21
439.8055258
0
LINE
8
bottom_labelLayer
10
1623.1701615
20
439.8055258
11
1631.2194779
21
443.3431235
0
LINE
8
bottom_labelLayer
10
1631.2194779
20
443.3431235
11
1634.8083451
21
455.3401938
0
LINE
8
bottom_labelLayer
10
1634.8083451
20
455.3401938
11
1639.7302201
21
455.3401938
0
LINE
8
bottom_labelLayer
10
1639.7302201
20
455.3401938
11
1639.7302201
21
442.3177328
0
LINE
8
bottom_labelLayer
10
1639.7302201
20
442.3177328
11
1656.033931
21
442.3177328
0
LINE
8
bottom_labelLayer
10
1656.033931
20
442.3177328
11
1656.033931
21
435.7039633
0
LINE
8
bottom_labelLayer
10
1656.033931
20
435.7039633
11
1639.7302201
21
435.7039633
0
LINE
8
bottom_labelLayer
10
1639.7302201
20
435.7039633
11
1639.7302201
21
402.6351157
0
ARC
8
bottom_labelLayer
10
1648.812022
20
420.0752645
40
27.9504637
50
269.8803585
51
278.3028294
0
ARC
8
bottom_labelLayer
10
1649.0775127
20
417.9050163
40
25.7646744
50
278.4155473
51
279.0080423
0
ARC
8
bottom_labelLayer
10
1645.9420591
20
437.9353643
40
46.0389203
50
278.9589695
51
280.5104399
0
ARC
8
bottom_labelLayer
10
1648.9307132
20
421.8994163
40
29.726857
50
280.4847722
51
282.6268146
0
ARC
8
bottom_labelLayer
10
1651.5520303
20
410.2536605
40
17.7897431
50
282.5876577
51
285.5795142
0
ARC
8
bottom_labelLayer
10
1652.8670523
20
405.4174628
40
12.7780919
50
285.7237955
51
286.2563244
0
ARC
8
bottom_labelLayer
10
1652.8659376
20
394.2070159
40
8.3712417
50
287.9888252
51
295.304797
0
ARC
8
bottom_labelLayer
10
1650.8468993
20
400.3155259
40
14.8047293
50
283.3069195
51
288.1197929
0
ARC
8
bottom_labelLayer
10
1648.7139751
20
409.2125808
40
23.9538534
50
280.0069885
51
283.3735268
0
ARC
8
bottom_labelLayer
10
1647.2866215
20
416.9587107
40
31.8302227
50
279.1862951
51
280.1142834
0
ARC
8
bottom_labelLayer
10
1646.4108224
20
421.940105
40
36.8876103
50
275.5260279
51
279.2939535
0
ARC
8
bottom_labelLayer
10
1647.3979627
20
411.6293947
40
26.5297609
50
270.8932535
51
275.548375
0
ARC
8
bottom_labelLayer
10
1647.5220048
20
406.9135707
40
21.8126348
50
270.00311
51
270.7605792
0
ARC
8
bottom_labelLayer
10
1647.1797541
20
407.3270938
40
22.228811
50
253.7847939
51
270.885254
0
ARC
8
bottom_labelLayer
10
1644.5462313
20
398.34578
40
12.8693937
50
190.3817661
51
253.8772405
0
ARC
8
bottom_labelLayer
10
1657.9692535
20
401.9751286
40
26.7514702
50
179.3550955
51
192.8477623
0
ARC
8
bottom_labelLayer
10
1656.867685
20
402.5279303
40
17.1378001
50
179.6416514
51
189.7505924
0
ARC
8
bottom_labelLayer
10
1650.8177225
20
401.4488446
40
10.9925487
50
189.5479518
51
205.7873562
0
ARC
8
bottom_labelLayer
10
1648.3314361
20
400.3023422
40
8.2552409
50
206.1294391
51
221.4083891
0
ARC
8
bottom_labelLayer
10
1648.0526534
20
400.0908083
40
7.9062785
50
221.5949203
51
262.3505161
0
ARC
8
bottom_labelLayer
10
1648.7156746
20
403.5003049
40
11.3755066
50
261.3266145
51
270.1913117
0
ARC
8
bottom_labelLayer
10
1672.2126099
20
413.9769331
40
43.9614803
50
349.176193
51
0.3862622
0
ARC
8
bottom_labelLayer
10
1687.0134105
20
411.0263667
40
28.8701546
50
330.2507047
51
349.4116462
0
ARC
8
bottom_labelLayer
10
1691.5683469
20
408.6588892
40
23.7416632
50
318.143973
51
329.7566225
0
ARC
8
bottom_labelLayer
10
1692.3904446
20
408.0000592
40
22.6898073
50
278.8959167
51
317.9979129
0
ARC
8
bottom_labelLayer
10
1690.2722018
20
418.1487413
40
33.0481194
50
269.7502889
51
279.8033256
0
ARC
8
bottom_labelLayer
10
1689.9286649
20
412.4305862
40
27.3303784
50
253.5436938
51
270.4182474
0
ARC
8
bottom_labelLayer
10
1689.0188933
20
408.9113576
40
23.6979141
50
238.8115542
51
253.2428327
0
ARC
8
bottom_labelLayer
10
1688.7252766
20
408.3208959
40
23.0408065
50
207.7947034
51
238.6757962
0
ARC
8
bottom_labelLayer
10
1692.9384318
20
410.9012524
40
27.9729058
50
205.6560159
51
208.446127
0
ARC
8
bottom_labelLayer
10
1696.1836355
20
412.2534203
40
31.484159
50
188.9102473
51
205.3171441
0
ARC
8
bottom_labelLayer
10
1707.1201607
20
414.1057119
40
42.5758173
50
179.7744712
51
189.0932839
0
ARC
8
bottom_labelLayer
10
1708.733422
20
414.5726052
40
44.1897625
50
169.244294
51
180.3880785
0
ARC
8
bottom_labelLayer
10
1693.7269314
20
417.5388473
40
28.8935662
50
150.7111481
51
169.4695454
0
ARC
8
bottom_labelLayer
10
1688.9363883
20
419.9989691
40
23.5127351
50
138.1759434
51
150.2287439
0
ARC
8
bottom_labelLayer
10
1688.1395241
20
420.6104673
40
22.5112674
50
99.175937
51
137.9832731
0
ARC
8
bottom_labelLayer
10
1690.33281
20
410.2886119
40
33.0548715
50
89.7326362
51
100.0759798
0
ARC
8
bottom_labelLayer
10
1690.7711705
20
414.7462813
40
28.5982535
50
73.522274
51
90.5692247
0
ARC
8
bottom_labelLayer
10
1692.4482896
20
420.8396982
40
22.2797142
50
41.1445651
51
73.2133842
0
ARC
8
bottom_labelLayer
10
1689.2468058
20
418.0880661
40
26.5010869
50
13.5014358
51
41.0703423
0
ARC
8
bottom_labelLayer
10
1676.8779208
20
414.8512923
40
39.2846923
50
1.1277191
51
13.880004
0
ARC
8
bottom_labelLayer
10
1666.2239486
20
414.2803605
40
49.9491431
50
359.9919001
51
1.5419787
0
ARC
8
bottom_labelLayer
10
1716.4606773
20
414.0521225
40
43.0982123
50
179.7059611
51
187.9160803
0
ARC
8
bottom_labelLayer
10
1700.6536071
20
411.7814509
40
27.129143
50
187.763925
51
200.0976865
0
ARC
8
bottom_labelLayer
10
1691.9455438
20
408.590805
40
17.854955
50
200.0845899
51
216.9131616
0
ARC
8
bottom_labelLayer
10
1688.7656669
20
406.320224
40
13.9490946
50
217.3009564
51
261.7099086
0
ARC
8
bottom_labelLayer
10
1690.2418748
20
413.3645322
40
21.1373289
50
260.5033156
51
270.2476793
0
ARC
8
bottom_labelLayer
10
1690.5236391
20
411.9947502
40
19.7682662
50
269.4481656
51
284.7255732
0
ARC
8
bottom_labelLayer
10
1692.0885768
20
406.1909073
40
13.7573165
50
284.5662314
51
322.6333812
0
ARC
8
bottom_labelLayer
10
1688.4296692
20
408.8343033
40
18.2700039
50
323.0089291
51
342.6390468
0
ARC
8
bottom_labelLayer
10
1677.9644248
20
412.2546461
40
29.2794336
50
342.3615692
51
353.7537574
0
ARC
8
bottom_labelLayer
10
1662.524684
20
414.1157042
40
44.8303249
50
353.5363079
51
0.2014161
0
ARC
8
bottom_labelLayer
10
1664.8902742
20
414.4900368
40
42.4650107
50
359.7075662
51
7.8972701
0
ARC
8
bottom_labelLayer
10
1680.4421433
20
416.7195396
40
26.7544034
50
7.7439941
51
20.0690166
0
ARC
8
bottom_labelLayer
10
1689.1082731
20
419.899684
40
17.523214
50
20.0257007
51
37.4350535
0
ARC
8
bottom_labelLayer
10
1691.983615
20
421.9399834
40
14.0004318
50
37.9577665
51
80.4006189
0
ARC
8
bottom_labelLayer
10
1690.3496465
20
414.6493765
40
21.4650727
50
79.3453446
51
90.3174781
0
ARC
8
bottom_labelLayer
10
1690.047097
20
415.8603673
40
20.2545845
50
89.4805966
51
103.8805002
0
ARC
8
bottom_labelLayer
10
1688.3451888
20
422.3412329
40
13.5550385
50
103.4685225
51
142.311889
0
ARC
8
bottom_labelLayer
10
1691.6538293
20
420.0143609
40
17.5968306
50
142.9025717
51
162.3749632
0
ARC
8
bottom_labelLayer
10
1702.0793834
20
416.5400708
40
28.5853782
50
162.0653146
51
173.1674833
0
ARC
8
bottom_labelLayer
10
1718.3355361
20
414.4666938
40
44.9729192
50
173.0086161
51
180.2463866
0
LINE
8
bottom_labelLayer
10
1811.2268021
20
386.1263266
11
1802.7160599
21
386.1263266
0
LINE
8
bottom_labelLayer
10
1802.7160599
20
386.1263266
11
1802.7160599
21
422.6815024
0
LINE
8
bottom_labelLayer
10
1775.3893997
20
417.5032797
11
1775.3893997
21
386.1263266
0
LINE
8
bottom_labelLayer
10
1775.3893997
20
386.1263266
11
1766.8786576
21
386.1263266
0
LINE
8
bottom_labelLayer
10
1766.8786576
20
386.1263266
11
1766.8786576
21
422.6815024
0
LINE
8
bottom_labelLayer
10
1739.6032669
20
415.6063071
11
1739.6032669
21
386.1263266
0
LINE
8
bottom_labelLayer
10
1739.6032669
20
386.1263266
11
1731.0925247
21
386.1263266
0
LINE
8
bottom_labelLayer
10
1731.0925247
20
386.1263266
11
1731.0925247
21
442.3177328
0
LINE
8
bottom_labelLayer
10
1731.0925247
20
442.3177328
11
1738.0139115
21
442.3177328
0
LINE
8
bottom_labelLayer
10
1738.0139115
20
442.3177328
11
1739.3981888
21
434.6273032
0
LINE
8
bottom_labelLayer
10
1739.3981888
20
434.6273032
11
1739.8083451
21
434.6273032
0
LINE
8
bottom_labelLayer
10
1773.6462357
20
433.8069907
11
1774.0563919
21
433.8069907
0
LINE
8
bottom_labelLayer
10
1811.2268021
20
422.7840414
11
1811.2268021
21
386.1263266
0
ARC
8
bottom_labelLayer
10
1777.6090664
20
422.8152287
40
25.1073496
50
359.6948308
51
8.1471527
0
ARC
8
bottom_labelLayer
10
1786.8568976
20
424.1838054
40
15.7589663
50
7.9864557
51
20.7949657
0
ARC
8
bottom_labelLayer
10
1791.9688215
20
426.1419965
40
10.2848548
50
20.7071207
51
40.0217588
0
ARC
8
bottom_labelLayer
10
1793.0902682
20
426.8757441
40
8.9556098
50
41.0408091
51
73.1792667
0
ARC
8
bottom_labelLayer
10
1791.4675465
20
421.967803
40
14.1237708
50
72.6395478
51
86.2568053
0
ARC
8
bottom_labelLayer
10
1790.9476992
20
416.3582642
40
19.7558693
50
85.8144589
51
90.0685359
0
ARC
8
bottom_labelLayer
10
1790.7567089
20
414.2152837
40
21.8994753
50
89.5621336
51
101.2961713
0
ARC
8
bottom_labelLayer
10
1789.1073072
20
422.1115295
40
13.8332926
50
101.0032247
51
121.7840519
0
ARC
8
bottom_labelLayer
10
1787.8533597
20
424.3501835
40
11.2704392
50
122.3597291
51
140.2884107
0
ARC
8
bottom_labelLayer
10
1790.1093533
20
422.6960114
40
14.0638119
50
140.97653
51
161.1699466
0
ARC
8
bottom_labelLayer
10
1798.6081813
20
419.6714701
40
23.0843005
50
160.8731754
51
172.5272517
0
ARC
8
bottom_labelLayer
10
1812.8095524
20
417.710154
40
37.4202629
50
172.3776521
51
180.1829585
0
ARC
8
bottom_labelLayer
10
1822.5841825
20
417.503332
40
47.1947828
50
179.8939779
51
180.0000635
0
ARC
8
bottom_labelLayer
10
1741.7716641
20
422.8152287
40
25.1073496
50
359.6948308
51
8.1471527
0
ARC
8
bottom_labelLayer
10
1751.0194952
20
424.1838054
40
15.7589663
50
7.9864557
51
20.7949657
0
ARC
8
bottom_labelLayer
10
1756.1314191
20
426.1419965
40
10.2848548
50
20.7071207
51
40.0217588
0
ARC
8
bottom_labelLayer
10
1757.276183
20
426.8918567
40
8.927444
50
41.0610717
51
72.8993559
0
ARC
8
bottom_labelLayer
10
1755.6227224
20
421.9693241
40
14.1191771
50
72.3601007
51
85.9561845
0
ARC
8
bottom_labelLayer
10
1755.0629942
20
416.1846028
40
19.929536
50
85.5237924
51
90.0793431
0
ARC
8
bottom_labelLayer
10
1754.8720811
20
414.9764978
40
21.1382526
50
89.5573267
51
101.4832115
0
ARC
8
bottom_labelLayer
10
1753.2496454
20
422.5779715
40
13.3661612
50
101.1546306
51
123.0655704
0
ARC
8
bottom_labelLayer
10
1752.1468063
20
424.4990686
40
11.1551729
50
123.7020522
51
142.3022083
0
ARC
8
bottom_labelLayer
10
1754.7301501
20
422.7464957
40
14.2722334
50
143.076979
51
161.3913818
0
ARC
8
bottom_labelLayer
10
1765.1434222
20
419.0687662
40
25.3151964
50
161.023447
51
171.4469142
0
ARC
8
bottom_labelLayer
10
1782.3824125
20
416.368331
40
42.76422
50
171.3041959
51
178.3501603
0
ARC
8
bottom_labelLayer
10
1798.8585002
20
415.6324861
40
59.2552391
50
178.0976218
51
180.0253134
0
ARC
8
bottom_labelLayer
10
1754.2266935
20
426.1486029
40
16.7265397
50
117.1209562
51
149.5423711
0
ARC
8
bottom_labelLayer
10
1755.9337808
20
423.11447
40
20.2057276
50
93.8343316
51
117.5072127
0
ARC
8
bottom_labelLayer
10
1756.4052777
20
418.9381952
40
24.4049326
50
89.9662035
51
94.2831406
0
ARC
8
bottom_labelLayer
10
1756.6877787
20
415.4801883
40
27.864225
50
77.5572254
51
90.5513001
0
ARC
8
bottom_labelLayer
10
1759.2732734
20
426.6008815
40
16.448159
50
52.7027051
51
78.0053792
0
ARC
8
bottom_labelLayer
10
1760.1944357
20
428.3147308
40
14.529826
50
22.2097919
51
51.4970563
0
ARC
8
bottom_labelLayer
10
1789.4739741
20
424.9711398
40
17.7700337
50
119.4041776
51
150.1828815
0
ARC
8
bottom_labelLayer
10
1791.4447763
20
421.9741324
40
21.3499715
50
118.2583767
51
120.0629924
0
ARC
8
bottom_labelLayer
10
1791.439143
20
421.7550821
40
21.5405227
50
95.8635166
51
117.969321
0
ARC
8
bottom_labelLayer
10
1792.16816
20
416.4837426
40
26.8594074
50
89.9196945
51
96.2617563
0
ARC
8
bottom_labelLayer
10
1792.4022034
20
413.7599754
40
29.5838
50
79.9360991
51
90.3803712
0
ARC
8
bottom_labelLayer
10
1794.373416
20
424.4358361
40
18.727893
50
62.9723237
51
80.1665144
0
ARC
8
bottom_labelLayer
10
1796.4340612
20
428.6634825
40
14.0258208
50
44.2289991
51
62.6229115
0
ARC
8
bottom_labelLayer
10
1795.8211751
20
428.3927302
40
14.6557064
50
19.5612033
51
43.3161211
0
ARC
8
bottom_labelLayer
10
1786.9201133
20
425.0494825
40
24.1630013
50
7.50419
51
19.9645357
0
ARC
8
bottom_labelLayer
10
1772.1912912
20
422.9811172
40
39.0360082
50
359.7107374
51
7.6907222
0
ENDSEC
0
EOF