0
SECTION
2
HEADER
9
$INSUNITS
70
4
0
ENDSEC
0
SECTION
2
TABLES
0
TABLE
2
LTYPE
0
LTYPE
72
65
70
64
2
CONTINUOUS
3
______
73
0
40
0
0
ENDTAB
0
TABLE
2
LAYER
0
ENDTAB
0
ENDSEC
0
SECTION
2
ENTITIES
0
LINE
8
front_outsideCutPath
10
0
20
50
11
0
21
36.01
0
LINE
8
front_outsideCutPath
10
0
20
36.01
11
3
21
36.01
0
LINE
8
front_outsideCutPath
10
3
20
36.01
11
3
21
16.99
0
LINE
8
front_outsideCutPath
10
3
20
16.99
11
0
21
16.99
0
LINE
8
front_outsideCutPath
10
0
20
16.99
11
0
21
3
0
LINE
8
front_outsideCutPath
10
0
20
3
11
29.91
21
3
0
LINE
8
front_outsideCutPath
10
29.91
20
3
11
29.91
21
6
0
LINE
8
front_outsideCutPath
10
29.91
20
6
11
48.93
21
6
0
LINE
8
front_outsideCutPath
10
48.93
20
6
11
48.93
21
3
0
LINE
8
front_outsideCutPath
10
48.93
20
3
11
67.95
21
3
0
LINE
8
front_outsideCutPath
10
67.95
20
3
11
67.95
21
6
0
LINE
8
front_outsideCutPath
10
67.95
20
6
11
86.97
21
6
0
LINE
8
front_outsideCutPath
10
86.97
20
6
11
86.97
21
3
0
LINE
8
front_outsideCutPath
10
86.97
20
3
11
105.99
21
3
0
LINE
8
front_outsideCutPath
10
105.99
20
3
11
105.99
21
6
0
LINE
8
front_outsideCutPath
10
105.99
20
6
11
125.01
21
6
0
LINE
8
front_outsideCutPath
10
125.01
20
6
11
125.01
21
3
0
LINE
8
front_outsideCutPath
10
125.01
20
3
11
144.03
21
3
0
LINE
8
front_outsideCutPath
10
144.03
20
3
11
144.03
21
6
0
LINE
8
front_outsideCutPath
10
144.03
20
6
11
163.05
21
6
0
LINE
8
front_outsideCutPath
10
163.05
20
6
11
163.05
21
3
0
LINE
8
front_outsideCutPath
10
163.05
20
3
11
182.07
21
3
0
LINE
8
front_outsideCutPath
10
182.07
20
3
11
182.07
21
6
0
LINE
8
front_outsideCutPath
10
182.07
20
6
11
201.09
21
6
0
LINE
8
front_outsideCutPath
10
201.09
20
6
11
201.09
21
3
0
LINE
8
front_outsideCutPath
10
201.09
20
3
11
220.11
21
3
0
LINE
8
front_outsideCutPath
10
220.11
20
3
11
231
21
3
0
LINE
8
front_outsideCutPath
10
231
20
3
11
231
21
16.99
0
LINE
8
front_outsideCutPath
10
231
20
16.99
11
228
21
16.99
0
LINE
8
front_outsideCutPath
10
228
20
16.99
11
228
21
36.01
0
LINE
8
front_outsideCutPath
10
228
20
36.01
11
231
21
36.01
0
LINE
8
front_outsideCutPath
10
231
20
36.01
11
231
21
50
0
LINE
8
front_outsideCutPath
10
231
20
50
11
0
21
50
0
LINE
8
front_labelLayer
10
107.7133301
20
27.9803242
11
107.7133301
21
27.3882344
0
LINE
8
front_labelLayer
10
107.7133301
20
27.3882344
11
106.4327636
21
27.3882344
0
LINE
8
front_labelLayer
10
106.4327636
20
27.3882344
11
106.4327636
21
22.9498555
0
LINE
8
front_labelLayer
10
106.4327636
20
22.9498555
11
105.6708496
21
22.9498555
0
LINE
8
front_labelLayer
10
105.6708496
20
22.9498555
11
105.6708496
21
27.3882344
0
LINE
8
front_labelLayer
10
105.6708496
20
27.3882344
11
104.7712402
21
27.3882344
0
LINE
8
front_labelLayer
10
104.7712402
20
27.3882344
11
104.7712402
21
27.7324726
0
LINE
8
front_labelLayer
10
104.7712402
20
27.7324726
11
105.6708496
21
28.0078633
0
LINE
8
front_labelLayer
10
105.6708496
20
28.0078633
11
105.6708496
21
28.2878437
0
LINE
8
front_labelLayer
10
108.2273926
20
29.9814961
11
108.0300293
21
29.3710469
0
LINE
8
front_labelLayer
10
106.4327636
20
28.3062031
11
106.4327636
21
27.9803242
0
LINE
8
front_labelLayer
10
106.4327636
20
27.9803242
11
107.7133301
21
27.9803242
0
ARC
8
front_labelLayer
10
108.7586231
20
28.3233416
40
3.0879775
50
167.577592
51
180.6586588
0
ARC
8
front_labelLayer
10
107.3065512
20
28.6618813
40
1.5971799
50
141.7433584
51
168.2322237
0
ARC
8
front_labelLayer
10
107.0701279
20
28.785277
40
1.3360421
50
98.2551614
51
139.6203406
0
ARC
8
front_labelLayer
10
107.2777124
20
27.8263132
40
2.3158658
50
89.6696616
51
99.9314197
0
ARC
8
front_labelLayer
10
107.278291
20
27.6886116
40
2.4535622
50
81.564134
51
89.7017121
0
ARC
8
front_labelLayer
10
107.1058012
20
26.4852362
40
3.6692273
50
75.9740354
51
81.6564876
0
ARC
8
front_labelLayer
10
106.8097833
20
25.2574323
40
4.9321796
50
73.2964154
51
76.0946185
0
ARC
8
front_labelLayer
10
106.8843282
20
25.8530116
40
3.6998923
50
71.9613811
51
76.5918007
0
ARC
8
front_labelLayer
10
107.1713785
20
27.0706978
40
2.4488358
50
76.5183417
51
83.021652
0
ARC
8
front_labelLayer
10
107.2713663
20
27.8747747
40
1.6385681
50
83.0760751
51
89.7926939
0
ARC
8
front_labelLayer
10
107.2680764
20
28.4858424
40
1.0275309
50
89.4859651
51
103.4196955
0
ARC
8
front_labelLayer
10
107.1754373
20
28.841757
40
0.659877
50
102.7677538
51
144.33802
0
ARC
8
front_labelLayer
10
107.3620665
20
28.7216782
40
0.8815857
50
145.0688528
51
162.1801428
0
ARC
8
front_labelLayer
10
108.001937
20
28.5063921
40
1.5566671
50
161.8436956
51
171.7847207
0
ARC
8
front_labelLayer
10
109.045602
20
28.3496349
40
2.6120285
50
171.6527521
51
178.4383577
0
ARC
8
front_labelLayer
10
110.0301041
20
28.3076578
40
3.5973407
50
178.1973541
51
180.0231689
0
LINE
8
front_labelLayer
10
111.5274902
20
28.017043
11
111.4219238
21
27.310207
0
LINE
8
front_labelLayer
10
109.3932129
20
25.6486836
11
109.3932129
21
22.9498555
0
LINE
8
front_labelLayer
10
109.3932129
20
22.9498555
11
108.6312988
21
22.9498555
0
LINE
8
front_labelLayer
10
108.6312988
20
22.9498555
11
108.6312988
21
27.9803242
0
LINE
8
front_labelLayer
10
108.6312988
20
27.9803242
11
109.2601074
21
27.9803242
0
LINE
8
front_labelLayer
10
109.2601074
20
27.9803242
11
109.3473144
21
27.0485859
0
LINE
8
front_labelLayer
10
109.3473144
20
27.0485859
11
109.3840332
21
27.0485859
0
ARC
8
front_labelLayer
10
110.9340432
20
24.5743504
40
3.4977794
50
84.992255
51
90.1281372
0
ARC
8
front_labelLayer
10
111.0180419
20
25.5154425
40
2.5529478
50
78.4891803
51
85.0265876
0
ARC
8
front_labelLayer
10
110.6920191
20
24.0326259
40
3.3578712
50
77.4453179
51
81.6360825
0
ARC
8
front_labelLayer
10
110.8382991
20
25.0409224
40
2.3390217
50
81.5884966
51
87.1915778
0
ARC
8
front_labelLayer
10
110.8700817
20
25.5920873
40
1.7869677
50
87.3435322
51
89.9659841
0
ARC
8
front_labelLayer
10
110.8626992
20
26.0589092
40
1.3201725
50
89.6335537
51
137.0880592
0
ARC
8
front_labelLayer
10
111.1867121
20
25.6945516
40
1.8061533
50
135.6209222
51
138.8376923
0
ARC
8
front_labelLayer
10
111.1392186
20
25.7409099
40
1.739889
50
138.9575841
51
174.5422163
0
ARC
8
front_labelLayer
10
111.7058655
20
25.652245
40
2.3126556
50
173.6907253
51
180.0882331
0
ARC
8
front_labelLayer
10
111.6257505
20
25.785612
40
2.5730137
50
139.4139415
51
150.6032767
0
ARC
8
front_labelLayer
10
111.1644075
20
26.1809334
40
1.9654642
50
124.2321676
51
139.4160937
0
ARC
8
front_labelLayer
10
110.9177293
20
26.5532914
40
1.5188535
50
89.6796767
51
124.4405599
0
ARC
8
front_labelLayer
10
112.8748917
20
25.4431487
40
3.9355981
50
349.1761771
51
0.3862492
0
ARC
8
front_labelLayer
10
114.1999201
20
25.1789999
40
2.5845605
50
330.2506827
51
349.4116669
0
ARC
8
front_labelLayer
10
114.6076905
20
24.9670563
40
2.1254436
50
318.1439634
51
329.7566156
0
ARC
8
front_labelLayer
10
114.6812873
20
24.9080752
40
2.0312779
50
278.8959153
51
317.9979138
0
ARC
8
front_labelLayer
10
114.4916531
20
25.8166247
40
2.9585944
50
269.7503076
51
279.8033418
0
ARC
8
front_labelLayer
10
114.4609001
20
25.3047158
40
2.4467224
50
253.5436968
51
270.4182304
0
ARC
8
front_labelLayer
10
114.3794536
20
24.9896584
40
2.1215278
50
238.8115463
51
253.2428226
0
ARC
8
front_labelLayer
10
114.3531656
20
24.9367961
40
2.0626983
50
207.7946836
51
238.6758143
0
ARC
8
front_labelLayer
10
114.7301762
20
25.1677125
40
2.5040503
50
205.6558603
51
208.446184
0
ARC
8
front_labelLayer
10
115.020871
20
25.2888534
40
2.8185849
50
188.9102573
51
205.3171365
0
ARC
8
front_labelLayer
10
115.9999399
20
25.4546764
40
3.8115418
50
179.7744683
51
189.0932996
0
ARC
8
front_labelLayer
10
116.144373
20
25.4964747
40
3.956036
50
169.2442945
51
180.3880787
0
ARC
8
front_labelLayer
10
114.8009373
20
25.7620227
40
2.586665
50
150.7111528
51
169.4695288
0
ARC
8
front_labelLayer
10
114.3720688
20
25.9822629
40
2.1049515
50
138.1759666
51
150.2287568
0
ARC
8
front_labelLayer
10
114.3007283
20
26.0370077
40
2.0152937
50
99.1759289
51
137.9832782
0
ARC
8
front_labelLayer
10
114.497081
20
25.1129407
40
2.9592126
50
89.7326569
51
100.0759493
0
ARC
8
front_labelLayer
10
114.5363243
20
25.5120255
40
2.5602219
50
73.5222702
51
90.569239
0
ARC
8
front_labelLayer
10
114.6864652
20
26.0575277
40
1.994566
50
41.144576
51
73.2133767
0
ARC
8
front_labelLayer
10
114.3998539
20
25.8111907
40
2.3724813
50
13.501454
51
41.0703243
0
ARC
8
front_labelLayer
10
113.2925596
20
25.5214254
40
3.5169027
50
1.1276966
51
13.8800274
0
ARC
8
front_labelLayer
10
112.3386747
20
25.4703119
40
4.4717257
50
359.9918994
51
1.5419474
0
ARC
8
front_labelLayer
10
116.8361538
20
25.4498805
40
3.8583238
50
179.7059823
51
187.916085
0
ARC
8
front_labelLayer
10
115.4210325
20
25.2465988
40
2.4286995
50
187.7639129
51
200.0976983
0
ARC
8
front_labelLayer
10
114.641452
20
24.9609579
40
1.5984368
50
200.0845569
51
216.9132005
0
ARC
8
front_labelLayer
10
114.3567836
20
24.7576903
40
1.2487764
50
217.3009571
51
261.7098993
0
ARC
8
front_labelLayer
10
114.4889391
20
25.3883175
40
1.8922884
50
260.5032866
51
270.2476804
0
ARC
8
front_labelLayer
10
114.5141643
20
25.2656903
40
1.7697255
50
269.4481433
51
284.7255945
0
ARC
8
front_labelLayer
10
114.6542622
20
24.746114
40
1.2316084
50
284.5662521
51
322.6333676
0
ARC
8
front_labelLayer
10
114.3267022
20
24.9827606
40
1.6356017
50
323.0089423
51
342.6390432
0
ARC
8
front_labelLayer
10
113.3898033
20
25.2889643
40
2.6212182
50
342.3616013
51
353.7537379
0
ARC
8
front_labelLayer
10
112.0076099
20
25.4555693
40
4.0133621
50
353.5363029
51
0.2014433
0
ARC
8
front_labelLayer
10
112.2193796
20
25.4890843
40
3.8016172
50
359.707543
51
7.8972737
0
ARC
8
front_labelLayer
10
113.6116283
20
25.6886763
40
2.3951576
50
7.7439921
51
20.0690072
0
ARC
8
front_labelLayer
10
114.3874525
20
25.973374
40
1.5687473
50
20.0257107
51
37.4350361
0
ARC
8
front_labelLayer
10
114.6448661
20
26.1560304
40
1.2533722
50
37.9577631
51
80.4006095
0
ARC
8
front_labelLayer
10
114.4985863
20
25.5033379
40
1.9216447
50
79.3453706
51
90.317449
0
ARC
8
front_labelLayer
10
114.4715011
20
25.6117654
40
1.8132622
50
89.4805724
51
103.8805191
0
ARC
8
front_labelLayer
10
114.3191404
20
26.1919521
40
1.2134983
50
103.4685188
51
142.3118965
0
ARC
8
front_labelLayer
10
114.6153412
20
25.9836414
40
1.5753341
50
142.9025421
51
162.3749495
0
ARC
8
front_labelLayer
10
115.5486769
20
25.6726092
40
2.5590711
50
162.0652961
51
173.167469
0
ARC
8
front_labelLayer
10
117.0040084
20
25.4869929
40
4.0261646
50
173.0086447
51
180.2463834
0
LINE
8
front_labelLayer
10
122.3503418
20
22.9498555
11
121.5884277
21
22.9498555
0
LINE
8
front_labelLayer
10
121.5884277
20
22.9498555
11
121.5884277
21
26.2040547
0
LINE
8
front_labelLayer
10
118.907959
20
25.5890156
11
118.907959
21
22.9498555
0
LINE
8
front_labelLayer
10
118.907959
20
22.9498555
11
118.1460449
21
22.9498555
0
LINE
8
front_labelLayer
10
118.1460449
20
22.9498555
11
118.1460449
21
27.9803242
0
LINE
8
front_labelLayer
10
118.1460449
20
27.9803242
11
118.7656738
21
27.9803242
0
LINE
8
front_labelLayer
10
118.7656738
20
27.9803242
11
118.8895996
21
27.2918476
0
LINE
8
front_labelLayer
10
118.8895996
20
27.2918476
11
118.9263183
21
27.2918476
0
LINE
8
front_labelLayer
10
122.3503418
20
26.2315937
11
122.3503418
21
22.9498555
0
ARC
8
front_labelLayer
10
119.4347231
20
26.2164062
40
2.15374
50
359.6714119
51
8.6877219
0
ARC
8
front_labelLayer
10
120.2329512
20
26.3429984
40
1.3455567
50
8.493199
51
22.6579444
0
ARC
8
front_labelLayer
10
120.638523
20
26.5115407
40
0.9063594
50
22.7024199
51
42.3420112
0
ARC
8
front_labelLayer
10
120.6841076
20
26.532047
40
0.8589948
50
43.3790524
51
71.5386176
0
ARC
8
front_labelLayer
10
120.5136364
20
26.0557071
40
1.3648464
50
71.0827989
51
84.3691449
0
ARC
8
front_labelLayer
10
120.4371109
20
25.4050714
40
2.0198889
50
84.0197724
51
90.1510143
0
ARC
8
front_labelLayer
10
120.4154193
20
25.1190486
40
2.3059626
50
89.5933087
51
100.3717911
0
ARC
8
front_labelLayer
10
120.2524606
20
25.9740437
40
1.4356138
50
100.1176789
51
118.1602295
0
ARC
8
front_labelLayer
10
120.0882366
20
26.2960755
40
1.074221
50
118.5439599
51
139.1926703
0
ARC
8
front_labelLayer
10
120.2314298
20
26.199992
40
1.2455723
50
140.151921
51
160.3146396
0
ARC
8
front_labelLayer
10
121.0961314
20
25.8761121
40
2.1688814
50
159.9534497
51
171.3800946
0
ARC
8
front_labelLayer
10
122.508652
20
25.6490569
40
3.5995002
50
171.1766097
51
178.321736
0
ARC
8
front_labelLayer
10
123.7891435
20
25.5910308
40
4.8811849
50
178.0811114
51
180.0236545
0
ARC
8
front_labelLayer
10
120.2296883
20
26.4663804
40
1.5427798
50
116.9442884
51
147.6525681
0
ARC
8
front_labelLayer
10
120.3902783
20
26.1977969
40
1.8550991
50
115.8073958
51
117.6069832
0
ARC
8
front_labelLayer
10
120.4723687
20
26.0063709
40
2.0631919
50
94.3226922
51
115.5454112
0
ARC
8
front_labelLayer
10
120.5217501
20
25.5773254
40
2.4947964
50
89.9578831
51
94.7108734
0
ARC
8
front_labelLayer
10
120.5421618
20
25.064031
40
3.0081474
50
80.5584988
51
90.3538522
0
ARC
8
front_labelLayer
10
120.7301516
20
26.1529298
40
1.9031736
50
65.1094191
51
80.7638068
0
ARC
8
front_labelLayer
10
120.9499051
20
26.6396783
40
1.3691575
50
46.5584469
51
64.8782285
0
ARC
8
front_labelLayer
10
120.9674926
20
26.6903808
40
1.3204352
50
19.3849073
51
45.5997112
0
ARC
8
front_labelLayer
10
120.2035768
20
26.4037476
40
2.1362479
50
6.963372
51
19.8363231
0
ARC
8
front_labelLayer
10
119.0253568
20
26.2453372
40
3.3250134
50
359.763176
51
7.2115225
0
LINE
8
front_labelLayer
10
126.2287597
20
23.578664
11
126.2287597
21
22.9957539
0
LINE
8
front_labelLayer
10
123.9705566
20
24.3956562
11
123.9705566
21
27.3882344
0
LINE
8
front_labelLayer
10
123.9705566
20
27.3882344
11
123.2499511
21
27.3882344
0
LINE
8
front_labelLayer
10
123.2499511
20
27.3882344
11
123.2499511
21
27.7554219
0
LINE
8
front_labelLayer
10
123.2499511
20
27.7554219
11
123.9705566
21
28.0721211
0
LINE
8
front_labelLayer
10
123.9705566
20
28.0721211
11
124.2918457
21
29.1461445
0
LINE
8
front_labelLayer
10
124.2918457
20
29.1461445
11
124.7324707
21
29.1461445
0
LINE
8
front_labelLayer
10
124.7324707
20
29.1461445
11
124.7324707
21
27.9803242
0
LINE
8
front_labelLayer
10
124.7324707
20
27.9803242
11
126.192041
21
27.9803242
0
LINE
8
front_labelLayer
10
126.192041
20
27.9803242
11
126.192041
21
27.3882344
0
LINE
8
front_labelLayer
10
126.192041
20
27.3882344
11
124.7324707
21
27.3882344
0
LINE
8
front_labelLayer
10
124.7324707
20
27.3882344
11
124.7324707
21
24.4277851
0
ARC
8
front_labelLayer
10
125.5455071
20
25.9890986
40
2.5022369
50
269.8803843
51
278.3028385
0
ARC
8
front_labelLayer
10
125.5688586
20
25.7976074
40
2.3093853
50
278.4156143
51
279.0073824
0
ARC
8
front_labelLayer
10
125.2885282
20
27.5882749
40
4.1218609
50
278.959056
51
280.5104204
0
ARC
8
front_labelLayer
10
125.5561534
20
26.1522878
40
2.6611489
50
280.4847942
51
282.6269272
0
ARC
8
front_labelLayer
10
125.7908096
20
25.1098178
40
1.5925961
50
282.5875343
51
285.5794088
0
ARC
8
front_labelLayer
10
125.9081703
20
24.6781448
40
1.1452667
50
285.7238511
51
286.2557648
0
ARC
8
front_labelLayer
10
125.908442
20
23.6732408
40
0.7493944
50
287.9886431
51
295.3049186
0
ARC
8
front_labelLayer
10
125.7276666
20
24.2201697
40
1.3254203
50
283.3069788
51
288.1196902
0
ARC
8
front_labelLayer
10
125.5367448
20
25.0165547
40
2.1443687
50
280.0069413
51
283.373592
0
ARC
8
front_labelLayer
10
125.4091451
20
25.7089794
40
2.848437
50
279.1859508
51
280.1143059
0
ARC
8
front_labelLayer
10
125.3305463
20
26.1560178
40
3.3022958
50
275.5260213
51
279.2939739
0
ARC
8
front_labelLayer
10
125.4189158
20
25.2330055
40
2.3750635
50
270.8932568
51
275.5483426
0
ARC
8
front_labelLayer
10
125.4300195
20
24.8115627
40
1.953504
50
270.0031518
51
270.7603288
0
ARC
8
front_labelLayer
10
125.3993807
20
24.8478229
40
1.9900019
50
253.784764
51
270.8852757
0
ARC
8
front_labelLayer
10
125.1636185
20
24.0437876
40
1.1521173
50
190.3817696
51
253.8772347
0
ARC
8
front_labelLayer
10
126.3652995
20
24.3687013
40
2.3948947
50
179.3551141
51
192.8477746
0
ARC
8
front_labelLayer
10
126.2666828
20
24.4181886
40
1.5342421
50
179.6416188
51
189.750554
0
ARC
8
front_labelLayer
10
125.7250614
20
24.3215843
40
0.98409
50
189.5479215
51
205.7874062
0
ARC
8
front_labelLayer
10
125.5024822
20
24.2189453
40
0.7390383
50
206.129437
51
221.4084346
0
ARC
8
front_labelLayer
10
125.4775265
20
24.2000092
40
0.7078002
50
221.5949328
51
262.3505266
0
ARC
8
front_labelLayer
10
125.536884
20
24.5052441
40
1.0183828
50
261.3265814
51
270.1912435
0
LINE
8
left_outsideCutPath
10
237
20
50
11
237
21
36.01
0
LINE
8
left_outsideCutPath
10
237
20
36.01
11
234
21
36.01
0
LINE
8
left_outsideCutPath
10
234
20
36.01
11
234
21
16.99
0
LINE
8
left_outsideCutPath
10
234
20
16.99
11
237
21
16.99
0
LINE
8
left_outsideCutPath
10
237
20
16.99
11
237
21
3
0
LINE
8
left_outsideCutPath
10
237
20
3
11
257.43
21
3
0
LINE
8
left_outsideCutPath
10
257.43
20
3
11
257.43
21
6
0
LINE
8
left_outsideCutPath
10
257.43
20
6
11
276.45
21
6
0
LINE
8
left_outsideCutPath
10
276.45
20
6
11
276.45
21
3
0
LINE
8
left_outsideCutPath
10
276.45
20
3
11
295.47
21
3
0
LINE
8
left_outsideCutPath
10
295.47
20
3
11
295.47
21
6
0
LINE
8
left_outsideCutPath
10
295.47
20
6
11
314.49
21
6
0
LINE
8
left_outsideCutPath
10
314.49
20
6
11
314.49
21
3
0
LINE
8
left_outsideCutPath
10
314.49
20
3
11
333.51
21
3
0
LINE
8
left_outsideCutPath
10
333.51
20
3
11
333.51
21
6
0
LINE
8
left_outsideCutPath
10
333.51
20
6
11
352.53
21
6
0
LINE
8
left_outsideCutPath
10
352.53
20
6
11
352.53
21
3
0
LINE
8
left_outsideCutPath
10
352.53
20
3
11
371.55
21
3
0
LINE
8
left_outsideCutPath
10
371.55
20
3
11
371.55
21
6
0
LINE
8
left_outsideCutPath
10
371.55
20
6
11
390.57
21
6
0
LINE
8
left_outsideCutPath
10
390.57
20
6
11
390.57
21
3
0
LINE
8
left_outsideCutPath
10
390.57
20
3
11
409.59
21
3
0
LINE
8
left_outsideCutPath
10
409.59
20
3
11
411
21
3
0
LINE
8
left_outsideCutPath
10
411
20
3
11
411
21
16.99
0
LINE
8
left_outsideCutPath
10
411
20
16.99
11
414
21
16.99
0
LINE
8
left_outsideCutPath
10
414
20
16.99
11
414
21
36.01
0
LINE
8
left_outsideCutPath
10
414
20
36.01
11
411
21
36.01
0
LINE
8
left_outsideCutPath
10
411
20
36.01
11
411
21
50
0
LINE
8
left_outsideCutPath
10
411
20
50
11
237
21
50
0
LINE
8
left_labelLayer
10
318.1869629
20
30.0916523
11
318.1869629
21
22.9498555
0
LINE
8
left_labelLayer
10
318.1869629
20
22.9498555
11
317.4250488
21
22.9498555
0
LINE
8
left_labelLayer
10
317.4250488
20
22.9498555
11
317.4250488
21
30.0916523
0
LINE
8
left_labelLayer
10
317.4250488
20
30.0916523
11
318.1869629
21
30.0916523
0
LINE
8
left_labelLayer
10
323.7773926
20
25.8093281
11
323.7773926
21
25.3273945
0
LINE
8
left_labelLayer
10
323.7773926
20
25.3273945
11
320.3120605
21
25.3273945
0
LINE
8
left_labelLayer
10
323.5616699
20
23.8632344
11
323.5616699
21
23.1839375
0
LINE
8
left_labelLayer
10
320.3304199
20
25.9470234
11
322.9604004
21
25.9470234
0
ARC
8
left_labelLayer
10
321.9026322
20
25.8187088
40
2.9607563
50
256.0087775
51
270.4848305
0
ARC
8
left_labelLayer
10
321.6870318
20
24.9817059
40
2.0964696
50
223.5465889
51
256.1956926
0
ARC
8
left_labelLayer
10
321.8059669
20
25.0681492
40
2.242313
50
194.0877133
51
223.0538284
0
ARC
8
left_labelLayer
10
322.8957585
20
25.3661686
40
3.3719522
50
181.3574633
51
194.4920092
0
ARC
8
left_labelLayer
10
323.8749869
20
25.4229302
40
4.3523797
50
179.9887966
51
181.7990981
0
ARC
8
left_labelLayer
10
323.5233194
20
25.4506178
40
4.000802
50
168.9539369
51
180.3843311
0
ARC
8
left_labelLayer
10
322.2166737
20
25.7166721
40
2.6674102
50
149.4071168
51
169.1853711
0
ARC
8
left_labelLayer
10
321.8526079
20
25.9090298
40
2.2562089
50
140.1055859
51
148.9067561
0
ARC
8
left_labelLayer
10
321.6289574
20
26.1152274
40
1.9524238
50
92.4762725
51
140.5386388
0
ARC
8
left_labelLayer
10
321.7286183
20
25.3787465
40
2.6933751
50
89.9637523
51
93.9176115
0
ARC
8
left_labelLayer
10
321.7524015
20
25.750965
40
2.3212611
50
74.2125805
51
90.5449923
0
ARC
8
left_labelLayer
10
321.8977891
20
26.286636
40
1.7662511
50
41.2064774
51
74.0232585
0
ARC
8
left_labelLayer
10
321.6224554
20
26.0483547
40
2.1303705
50
11.5994092
51
41.1496163
0
ARC
8
left_labelLayer
10
320.6764052
20
25.8301774
40
3.1010574
50
359.6147816
51
12.0336288
0
ARC
8
left_labelLayer
10
323.3694852
20
25.3884865
40
3.0580349
50
181.1447042
51
190.8007278
0
ARC
8
left_labelLayer
10
322.2906452
20
25.1757077
40
1.9584454
50
190.6005736
51
206.027552
0
ARC
8
left_labelLayer
10
321.8133327
20
24.950055
40
1.430539
50
206.2950445
51
222.5557908
0
ARC
8
left_labelLayer
10
321.7710358
20
24.9279076
40
1.3844584
50
223.0644827
51
258.140154
0
ARC
8
left_labelLayer
10
321.9394102
20
25.6212026
40
2.0976763
50
257.5311703
51
270.4319571
0
ARC
8
left_labelLayer
10
321.9412903
20
27.5476487
40
4.0240869
50
270.198399
51
292.2090468
0
ARC
8
left_labelLayer
10
321.7480062
20
28.1027085
40
4.6111296
50
291.8255812
51
293.1614287
0
ARC
8
left_labelLayer
10
321.73878
20
27.3790699
40
4.5740643
50
287.9023264
51
293.4861515
0
ARC
8
left_labelLayer
10
322.0705869
20
26.3553386
40
3.4979042
50
281.993617
51
287.8851052
0
ARC
8
left_labelLayer
10
322.1510111
20
26.0662864
40
3.1985035
50
275.9054514
51
281.6603785
0
ARC
8
left_labelLayer
10
321.9900321
20
27.5688499
40
4.7096589
50
271.9119671
51
275.9727286
0
ARC
8
left_labelLayer
10
321.9312694
20
29.0657157
40
6.2076581
50
269.966921
51
271.9930851
0
ARC
8
left_labelLayer
10
321.7065218
20
25.9322925
40
1.5019114
50
89.4422312
51
106.208944
0
ARC
8
left_labelLayer
10
321.6161662
20
26.2617471
40
1.1603422
50
106.4657242
51
137.9176551
0
ARC
8
left_labelLayer
10
321.8752223
20
26.034253
40
1.505083
50
138.0994972
51
160.5866255
0
ARC
8
left_labelLayer
10
322.541116
20
25.7892811
40
2.2145629
50
160.335316
51
172.5315213
0
ARC
8
left_labelLayer
10
323.1967222
20
25.6842339
40
2.8783236
50
172.1545039
51
174.76163
0
ARC
8
left_labelLayer
10
320.364119
20
25.9617724
40
2.5963233
50
359.6745167
51
8.9224838
0
ARC
8
left_labelLayer
10
321.291835
20
26.1129308
40
1.6563982
50
8.7342338
51
23.277167
0
ARC
8
left_labelLayer
10
321.7322688
20
26.2978133
40
1.1787596
50
23.4821214
51
39.7071955
0
ARC
8
left_labelLayer
10
321.8404536
20
26.3787705
40
1.0438326
50
40.0822887
51
80.6243428
0
ARC
8
left_labelLayer
10
321.7290954
20
25.8682998
40
1.5658531
50
79.6469026
51
90.2910037
0
LINE
8
left_labelLayer
10
327.3437011
20
27.9803242
11
327.3437011
21
27.3882344
0
LINE
8
left_labelLayer
10
327.3437011
20
27.3882344
11
326.0631347
21
27.3882344
0
LINE
8
left_labelLayer
10
326.0631347
20
27.3882344
11
326.0631347
21
22.9498555
0
LINE
8
left_labelLayer
10
326.0631347
20
22.9498555
11
325.3012207
21
22.9498555
0
LINE
8
left_labelLayer
10
325.3012207
20
22.9498555
11
325.3012207
21
27.3882344
0
LINE
8
left_labelLayer
10
325.3012207
20
27.3882344
11
324.4016113
21
27.3882344
0
LINE
8
left_labelLayer
10
324.4016113
20
27.3882344
11
324.4016113
21
27.7324726
0
LINE
8
left_labelLayer
10
324.4016113
20
27.7324726
11
325.3012207
21
28.0078633
0
LINE
8
left_labelLayer
10
325.3012207
20
28.0078633
11
325.3012207
21
28.2878437
0
LINE
8
left_labelLayer
10
327.8577636
20
29.9814961
11
327.6604004
21
29.3710469
0
LINE
8
left_labelLayer
10
326.0631347
20
28.3062031
11
326.0631347
21
27.9803242
0
LINE
8
left_labelLayer
10
326.0631347
20
27.9803242
11
327.3437011
21
27.9803242
0
ARC
8
left_labelLayer
10
328.3889942
20
28.3233416
40
3.0879775
50
167.577592
51
180.6586588
0
ARC
8
left_labelLayer
10
326.9369223
20
28.6618813
40
1.5971799
50
141.7433584
51
168.2322237
0
ARC
8
left_labelLayer
10
326.700499
20
28.785277
40
1.3360421
50
98.2551614
51
139.6203406
0
ARC
8
left_labelLayer
10
326.9080835
20
27.8263132
40
2.3158658
50
89.6696616
51
99.9314197
0
ARC
8
left_labelLayer
10
326.9086621
20
27.6886116
40
2.4535622
50
81.564134
51
89.7017121
0
ARC
8
left_labelLayer
10
326.7361723
20
26.4852362
40
3.6692273
50
75.9740354
51
81.6564876
0
ARC
8
left_labelLayer
10
326.4401544
20
25.2574323
40
4.9321796
50
73.2964154
51
76.0946185
0
ARC
8
left_labelLayer
10
326.5146993
20
25.8530116
40
3.6998923
50
71.9613811
51
76.5918007
0
ARC
8
left_labelLayer
10
326.8017495
20
27.0706978
40
2.4488358
50
76.5183417
51
83.021652
0
ARC
8
left_labelLayer
10
326.9017374
20
27.8747747
40
1.6385681
50
83.0760751
51
89.7926939
0
ARC
8
left_labelLayer
10
326.8984475
20
28.4858424
40
1.0275309
50
89.4859651
51
103.4196955
0
ARC
8
left_labelLayer
10
326.8058084
20
28.841757
40
0.659877
50
102.7677538
51
144.33802
0
ARC
8
left_labelLayer
10
326.9924376
20
28.7216782
40
0.8815857
50
145.0688528
51
162.1801428
0
ARC
8
left_labelLayer
10
327.6323081
20
28.5063921
40
1.5566671
50
161.8436956
51
171.7847207
0
ARC
8
left_labelLayer
10
328.6759731
20
28.3496349
40
2.6120285
50
171.6527521
51
178.4383577
0
ARC
8
left_labelLayer
10
329.6604752
20
28.3076578
40
3.5973407
50
178.1973541
51
180.0231689
0
LINE
8
left_labelLayer
10
330.5749511
20
23.578664
11
330.5749511
21
22.9957539
0
LINE
8
left_labelLayer
10
328.316748
20
24.3956562
11
328.316748
21
27.3882344
0
LINE
8
left_labelLayer
10
328.316748
20
27.3882344
11
327.5961426
21
27.3882344
0
LINE
8
left_labelLayer
10
327.5961426
20
27.3882344
11
327.5961426
21
27.7554219
0
LINE
8
left_labelLayer
10
327.5961426
20
27.7554219
11
328.316748
21
28.0721211
0
LINE
8
left_labelLayer
10
328.316748
20
28.0721211
11
328.6380371
21
29.1461445
0
LINE
8
left_labelLayer
10
328.6380371
20
29.1461445
11
329.0786621
21
29.1461445
0
LINE
8
left_labelLayer
10
329.0786621
20
29.1461445
11
329.0786621
21
27.9803242
0
LINE
8
left_labelLayer
10
329.0786621
20
27.9803242
11
330.5382324
21
27.9803242
0
LINE
8
left_labelLayer
10
330.5382324
20
27.9803242
11
330.5382324
21
27.3882344
0
LINE
8
left_labelLayer
10
330.5382324
20
27.3882344
11
329.0786621
21
27.3882344
0
LINE
8
left_labelLayer
10
329.0786621
20
27.3882344
11
329.0786621
21
24.4277851
0
ARC
8
left_labelLayer
10
329.8916985
20
25.9890986
40
2.5022369
50
269.8803843
51
278.3028385
0
ARC
8
left_labelLayer
10
329.91505
20
25.7976074
40
2.3093853
50
278.4156143
51
279.0073824
0
ARC
8
left_labelLayer
10
329.6347196
20
27.5882749
40
4.1218609
50
278.959056
51
280.5104204
0
ARC
8
left_labelLayer
10
329.9023448
20
26.1522878
40
2.6611489
50
280.4847942
51
282.6269272
0
ARC
8
left_labelLayer
10
330.137001
20
25.1098178
40
1.5925961
50
282.5875343
51
285.5794088
0
ARC
8
left_labelLayer
10
330.2543617
20
24.6781448
40
1.1452667
50
285.7238511
51
286.2557648
0
ARC
8
left_labelLayer
10
330.2546334
20
23.6732408
40
0.7493944
50
287.9886431
51
295.3049186
0
ARC
8
left_labelLayer
10
330.073858
20
24.2201697
40
1.3254203
50
283.3069788
51
288.1196902
0
ARC
8
left_labelLayer
10
329.8829362
20
25.0165547
40
2.1443687
50
280.0069413
51
283.373592
0
ARC
8
left_labelLayer
10
329.7553365
20
25.7089794
40
2.848437
50
279.1859508
51
280.1143059
0
ARC
8
left_labelLayer
10
329.6767377
20
26.1560178
40
3.3022958
50
275.5260213
51
279.2939739
0
ARC
8
left_labelLayer
10
329.7651072
20
25.2330055
40
2.3750635
50
270.8932568
51
275.5483426
0
ARC
8
left_labelLayer
10
329.7762109
20
24.8115627
40
1.953504
50
270.0031518
51
270.7603288
0
ARC
8
left_labelLayer
10
329.7455721
20
24.8478229
40
1.9900019
50
253.784764
51
270.8852757
0
ARC
8
left_labelLayer
10
329.5098099
20
24.0437876
40
1.1521173
50
190.3817696
51
253.8772347
0
ARC
8
left_labelLayer
10
330.7114909
20
24.3687013
40
2.3948947
50
179.3551141
51
192.8477746
0
ARC
8
left_labelLayer
10
330.6128742
20
24.4181886
40
1.5342421
50
179.6416188
51
189.750554
0
ARC
8
left_labelLayer
10
330.0712528
20
24.3215843
40
0.98409
50
189.5479215
51
205.7874062
0
ARC
8
left_labelLayer
10
329.8486736
20
24.2189453
40
0.7390383
50
206.129437
51
221.4084346
0
ARC
8
left_labelLayer
10
329.8237179
20
24.2000092
40
0.7078002
50
221.5949328
51
262.3505266
0
ARC
8
left_labelLayer
10
329.8830754
20
24.5052441
40
1.0183828
50
261.3265814
51
270.1912435
0
LINE
8
back_outsideCutPath
10
0
20
100
11
0
21
86.01
0
LINE
8
back_outsideCutPath
10
0
20
86.01
11
3
21
86.01
0
LINE
8
back_outsideCutPath
10
3
20
86.01
11
3
21
66.99
0
LINE
8
back_outsideCutPath
10
3
20
66.99
11
0
21
66.99
0
LINE
8
back_outsideCutPath
10
0
20
66.99
11
0
21
53
0
LINE
8
back_outsideCutPath
10
0
20
53
11
29.91
21
53
0
LINE
8
back_outsideCutPath
10
29.91
20
53
11
29.91
21
56
0
LINE
8
back_outsideCutPath
10
29.91
20
56
11
48.93
21
56
0
LINE
8
back_outsideCutPath
10
48.93
20
56
11
48.93
21
53
0
LINE
8
back_outsideCutPath
10
48.93
20
53
11
67.95
21
53
0
LINE
8
back_outsideCutPath
10
67.95
20
53
11
67.95
21
56
0
LINE
8
back_outsideCutPath
10
67.95
20
56
11
86.97
21
56
0
LINE
8
back_outsideCutPath
10
86.97
20
56
11
86.97
21
53
0
LINE
8
back_outsideCutPath
10
86.97
20
53
11
105.99
21
53
0
LINE
8
back_outsideCutPath
10
105.99
20
53
11
105.99
21
56
0
LINE
8
back_outsideCutPath
10
105.99
20
56
11
125.01
21
56
0
LINE
8
back_outsideCutPath
10
125.01
20
56
11
125.01
21
53
0
LINE
8
back_outsideCutPath
10
125.01
20
53
11
144.03
21
53
0
LINE
8
back_outsideCutPath
10
144.03
20
53
11
144.03
21
56
0
LINE
8
back_outsideCutPath
10
144.03
20
56
11
163.05
21
56
0
LINE
8
back_outsideCutPath
10
163.05
20
56
11
163.05
21
53
0
LINE
8
back_outsideCutPath
10
163.05
20
53
11
182.07
21
53
0
LINE
8
back_outsideCutPath
10
182.07
20
53
11
182.07
21
56
0
LINE
8
back_outsideCutPath
10
182.07
20
56
11
201.09
21
56
0
LINE
8
back_outsideCutPath
10
201.09
20
56
11
201.09
21
53
0
LINE
8
back_outsideCutPath
10
201.09
20
53
11
220.11
21
53
0
LINE
8
back_outsideCutPath
10
220.11
20
53
11
231
21
53
0
LINE
8
back_outsideCutPath
10
231
20
53
11
231
21
66.99
0
LINE
8
back_outsideCutPath
10
231
20
66.99
11
228
21
66.99
0
LINE
8
back_outsideCutPath
10
228
20
66.99
11
228
21
86.01
0
LINE
8
back_outsideCutPath
10
228
20
86.01
11
231
21
86.01
0
LINE
8
back_outsideCutPath
10
231
20
86.01
11
231
21
100
0
LINE
8
back_outsideCutPath
10
231
20
100
11
0
21
100
0
LINE
8
back_labelLayer
10
106.5176758
20
73.6222198
11
106.4625977
21
73.6222198
0
LINE
8
back_labelLayer
10
106.4625977
20
73.6222198
11
106.3019531
21
72.9750518
0
LINE
8
back_labelLayer
10
106.3019531
20
72.9750518
11
105.7557617
21
72.9750518
0
LINE
8
back_labelLayer
10
105.7557617
20
72.9750518
11
105.7557617
21
80.1168487
0
LINE
8
back_labelLayer
10
105.7557617
20
80.1168487
11
106.5176758
21
80.1168487
0
LINE
8
back_labelLayer
10
106.5176758
20
80.1168487
11
106.5176758
21
78.3818878
0
LINE
8
back_labelLayer
10
106.480957
20
77.3354034
11
106.5176758
21
77.3354034
0
ARC
8
back_labelLayer
10
108.1194384
20
75.7595791
40
2.3286709
50
74.2393112
51
90.5623781
0
ARC
8
back_labelLayer
10
108.2734189
20
76.3244589
40
1.7432118
50
38.5631096
51
74.0670459
0
ARC
8
back_labelLayer
10
107.8771598
20
76.0163435
40
2.2451357
50
16.4709241
51
38.4075322
0
ARC
8
back_labelLayer
10
106.7355869
20
75.6583806
40
3.4414113
50
5.1338582
51
16.7973229
0
ARC
8
back_labelLayer
10
105.2944691
20
75.5052974
40
4.8905028
50
359.8779065
51
5.4093393
0
ARC
8
back_labelLayer
10
105.7177616
20
75.4685202
40
4.4672771
50
350.6562766
51
0.338033
0
ARC
8
back_labelLayer
10
107.275121
20
75.2036307
40
2.8875865
50
335.830607
51
350.8254702
0
ARC
8
back_labelLayer
10
107.9601878
20
74.9079462
40
2.1415365
50
321.3161253
51
335.54363
0
ARC
8
back_labelLayer
10
108.2220854
20
74.6945383
40
1.803715
50
274.0640029
51
321.4081015
0
ARC
8
back_labelLayer
10
108.1000721
20
75.4674173
40
2.5841648
50
269.9226186
51
275.5481768
0
ARC
8
back_labelLayer
10
108.0837341
20
75.1942775
40
2.3110582
50
255.7755686
51
270.3185265
0
ARC
8
back_labelLayer
10
108.01778
20
74.9012521
40
2.0108266
50
245.9801751
51
255.5456148
0
ARC
8
back_labelLayer
10
107.8900424
20
74.6041954
40
1.6875029
50
215.5850259
51
245.8361587
0
ARC
8
back_labelLayer
10
90.6321534
20
78.3684641
40
15.885528
50
358.1123258
51
0.0484166
0
ARC
8
back_labelLayer
10
95.0536788
20
78.2200208
40
11.4615128
50
355.7238368
51
358.1259075
0
ARC
8
back_labelLayer
10
96.9744717
20
78.0883197
40
9.5362542
50
355.471611
51
355.6524158
0
ARC
8
back_labelLayer
10
107.9386124
20
76.3445459
40
1.7322989
50
95.1835161
51
145.1108947
0
ARC
8
back_labelLayer
10
108.0908763
20
75.4859128
40
2.6022314
50
89.8743718
51
96.8145414
0
ARC
8
back_labelLayer
10
107.9704756
20
75.3091549
40
2.141054
50
89.5731605
51
100.7323914
0
ARC
8
back_labelLayer
10
107.8119789
20
76.1099447
40
1.3247727
50
100.446968
51
119.670058
0
ARC
8
back_labelLayer
10
107.6650019
20
76.3847347
40
1.0132901
50
120.1402516
51
142.4249032
0
ARC
8
back_labelLayer
10
107.9081641
20
76.2238752
40
1.3042674
50
143.3382586
51
161.2559601
0
ARC
8
back_labelLayer
10
108.9250073
20
75.8628645
40
2.3832362
50
160.8926807
51
171.2334306
0
ARC
8
back_labelLayer
10
110.6225022
20
75.5890185
40
4.1026543
50
171.0667807
51
177.8456655
0
ARC
8
back_labelLayer
10
112.3878601
20
75.4992339
40
5.8701859
50
177.6176704
51
180.0425342
0
ARC
8
back_labelLayer
10
111.5553485
20
75.4752046
40
5.0377112
50
179.776269
51
185.7075298
0
ARC
8
back_labelLayer
10
109.5691649
20
75.2705578
40
3.0410279
50
185.5925002
51
194.2050712
0
ARC
8
back_labelLayer
10
108.2968216
20
74.9403395
40
1.726573
50
193.9430087
51
208.0218498
0
ARC
8
back_labelLayer
10
107.7820354
20
74.6784532
40
1.1491491
50
208.5536498
51
217.5605377
0
ARC
8
back_labelLayer
10
107.7400946
20
74.661009
40
1.1053306
50
218.1690414
51
253.8047178
0
ARC
8
back_labelLayer
10
107.9451119
20
75.2931013
40
1.7696408
50
253.1382725
51
266.848323
0
ARC
8
back_labelLayer
10
108.0026023
20
75.9711086
40
2.4498662
50
266.3776017
51
270.0510507
0
ARC
8
back_labelLayer
10
108.0210373
20
75.0400291
40
1.5188728
50
269.3869139
51
285.8630388
0
ARC
8
back_labelLayer
10
108.1338803
20
74.6321967
40
1.0957311
50
286.0162879
51
326.8497406
0
ARC
8
back_labelLayer
10
107.5892396
20
74.9930006
40
1.7490317
50
326.710526
51
343.6661472
0
ARC
8
back_labelLayer
10
106.5697009
20
75.3045358
40
2.8150619
50
343.4171693
51
353.6368807
0
ARC
8
back_labelLayer
10
105.0298603
20
75.4872495
40
4.3656798
50
353.4934504
51
0.2205681
0
ARC
8
back_labelLayer
10
104.894124
20
75.5222782
40
4.5014207
50
359.7680577
51
6.3095503
0
ARC
8
back_labelLayer
10
106.5896867
20
75.716856
40
2.7947534
50
6.1648748
51
16.0396179
0
ARC
8
back_labelLayer
10
107.6819816
20
76.0387541
40
1.6560567
50
15.7779314
51
32.0151469
0
ARC
8
back_labelLayer
10
108.0226497
20
76.2338509
40
1.2638634
50
32.703278
51
35.5242695
0
ARC
8
back_labelLayer
10
108.1471669
20
76.3223533
40
1.1110986
50
35.5408239
51
79.8011208
0
ARC
8
back_labelLayer
10
107.9979567
20
75.6880308
40
1.7621566
50
78.6781296
51
90.3749254
0
LINE
8
back_labelLayer
10
115.1741211
20
72.9750518
11
114.6095703
21
72.9750518
0
LINE
8
back_labelLayer
10
114.6095703
20
72.9750518
11
114.4581055
21
73.6910675
0
LINE
8
back_labelLayer
10
114.4581055
20
73.6910675
11
114.4213867
21
73.6910675
0
LINE
8
back_labelLayer
10
113.5768555
20
75.9630401
11
114.4305664
21
75.9905792
0
LINE
8
back_labelLayer
10
114.4305664
20
75.9905792
11
114.4305664
21
76.3026886
0
LINE
8
back_labelLayer
10
111.9382813
20
77.0737823
11
111.7041992
21
77.6566925
0
LINE
8
back_labelLayer
10
115.1741211
20
76.408255
11
115.1741211
21
72.9750518
0
LINE
8
back_labelLayer
10
114.412207
20
74.9945831
11
114.412207
21
75.4489776
0
LINE
8
back_labelLayer
10
114.412207
20
75.4489776
11
113.650293
21
75.4168487
0
ARC
8
back_labelLayer
10
111.9424092
20
75.6483419
40
3.1585206
50
314.7445207
51
321.7071759
0
ARC
8
back_labelLayer
10
112.7184106
20
74.859867
40
2.0522442
50
304.8485568
51
314.8530481
0
ARC
8
back_labelLayer
10
113.091195
20
74.3292441
40
1.4037707
50
294.3932061
51
304.7371996
0
ARC
8
back_labelLayer
10
112.9638354
20
74.6592331
40
1.7570187
50
281.2979179
51
293.7314197
0
ARC
8
back_labelLayer
10
112.7954772
20
75.4751733
40
2.5901359
50
272.9334837
51
281.4139275
0
ARC
8
back_labelLayer
10
112.7396685
20
76.3121304
40
3.4288766
50
269.9539736
51
273.1490903
0
ARC
8
back_labelLayer
10
112.720396
20
75.221404
40
2.3382073
50
258.6719726
51
270.4047655
0
ARC
8
back_labelLayer
10
112.5579805
20
74.444477
40
1.5445275
50
238.3273077
51
258.9183957
0
ARC
8
back_labelLayer
10
112.4460493
20
74.2402759
40
1.312023
50
227.7688981
51
237.8050684
0
ARC
8
back_labelLayer
10
112.4110477
20
74.1914142
40
1.2523375
50
192.082746
51
227.4520936
0
ARC
8
back_labelLayer
10
113.0567019
20
74.3505748
40
1.9171137
50
179.5457288
51
192.6949402
0
ARC
8
back_labelLayer
10
112.4568954
20
74.4199891
40
1.3183622
50
115.4904635
51
182.3568201
0
ARC
8
back_labelLayer
10
113.1171469
20
73.2089513
40
2.6966976
50
101.3568317
51
117.0798597
0
ARC
8
back_labelLayer
10
113.6473909
20
70.731059
40
5.2305846
50
92.4696501
51
101.7064679
0
ARC
8
back_labelLayer
10
113.7998229
20
68.5230187
40
7.4433617
50
91.7165634
51
92.9095356
0
ARC
8
back_labelLayer
10
112.2422143
20
76.3144029
40
2.1883835
50
359.6932951
51
8.0036021
0
ARC
8
back_labelLayer
10
113.0700214
20
76.4349983
40
1.351855
50
7.8272607
51
20.6041183
0
ARC
8
back_labelLayer
10
113.5384772
20
76.614204
40
0.850305
50
20.4094547
51
41.4478974
0
ARC
8
back_labelLayer
10
113.6076946
20
76.65225
40
0.7734319
50
42.7295855
51
71.0380166
0
ARC
8
back_labelLayer
10
113.444743
20
76.2091853
40
1.2454444
50
70.5715668
51
83.9928946
0
ARC
8
back_labelLayer
10
113.3668927
20
75.5768186
40
1.8825194
50
83.6506588
51
90.1753071
0
ARC
8
back_labelLayer
10
113.3805488
20
74.9787774
40
2.4806278
50
90.4484622
51
103.7665422
0
ARC
8
back_labelLayer
10
113.6722579
20
73.7486307
40
3.7448652
50
103.6226591
51
112.4320054
0
ARC
8
back_labelLayer
10
114.1722609
20
72.4861541
40
5.1026462
50
112.2122027
51
115.9641103
0
ARC
8
back_labelLayer
10
113.3715328
20
74.5646429
40
3.5129435
50
106.3568599
51
118.3349877
0
ARC
8
back_labelLayer
10
113.5212891
20
74.1019762
40
3.999081
50
104.5163188
51
106.5488361
0
ARC
8
back_labelLayer
10
113.4114318
20
74.5596266
40
3.5285141
50
90.0714553
51
104.6521074
0
ARC
8
back_labelLayer
10
113.4252788
20
74.8702733
40
3.2179162
50
81.5680027
51
90.3249033
0
ARC
8
back_labelLayer
10
113.6113335
20
76.0823773
40
1.991642
50
68.2273455
51
81.7494194
0
ARC
8
back_labelLayer
10
113.8704765
20
76.7271487
40
1.2967451
50
47.8683183
51
68.2933958
0
ARC
8
back_labelLayer
10
113.912535
20
76.8111282
40
1.2065132
50
19.2331165
51
46.674092
0
ARC
8
back_labelLayer
10
113.211888
20
76.5504875
40
1.9539726
50
6.3379172
51
19.6815086
0
ARC
8
back_labelLayer
10
112.1761523
20
76.4185782
40
2.9979866
50
359.8027081
51
6.6583423
0
ARC
8
back_labelLayer
10
112.9037864
20
75.6097643
40
2.0977573
50
269.5791742
51
282.0414103
0
ARC
8
back_labelLayer
10
113.0568034
20
74.9310551
40
1.4020827
50
281.7120847
51
306.4593976
0
ARC
8
back_labelLayer
10
113.1246469
20
74.8194804
40
1.2720836
50
306.9881208
51
313.8558811
0
ARC
8
back_labelLayer
10
113.1165797
20
74.8171614
40
1.2760222
50
314.1892267
51
347.4269648
0
ARC
8
back_labelLayer
10
112.4773937
20
74.9773382
40
1.9348245
50
346.9177588
51
0.2824839
0
ARC
8
back_labelLayer
10
112.0208966
20
74.9945163
40
2.3913104
50
359.8169709
51
0.0015995
0
ARC
8
back_labelLayer
10
113.8315244
20
69.8254197
40
5.5943653
50
91.8564414
51
96.4478517
0
ARC
8
back_labelLayer
10
113.5792393
20
72.0085085
40
3.3967588
50
96.3545583
51
102.9953282
0
ARC
8
back_labelLayer
10
113.2367724
20
73.4635519
40
1.9019815
50
102.7995857
51
113.2432976
0
ARC
8
back_labelLayer
10
112.9544361
20
74.138788
40
1.1701505
50
113.5885776
51
121.6805861
0
ARC
8
back_labelLayer
10
112.7582983
20
74.437497
40
0.813006
50
120.9734209
51
172.4179714
0
ARC
8
back_labelLayer
10
113.1416827
20
74.3609178
40
1.2034092
50
171.2121838
51
180.2058217
0
ARC
8
back_labelLayer
10
113.0271026
20
74.3475974
40
1.0888586
50
179.5265497
51
192.778737
0
ARC
8
back_labelLayer
10
112.6587644
20
74.2583105
40
0.7099165
50
192.3264573
51
222.0579721
0
ARC
8
back_labelLayer
10
112.6313728
20
74.2419325
40
0.678636
50
222.5804992
51
229.2545861
0
ARC
8
back_labelLayer
10
112.7239487
20
74.361123
40
0.8293962
50
229.7836511
51
254.272427
0
ARC
8
back_labelLayer
10
112.8472589
20
74.7720435
40
1.2583785
50
253.9396782
51
266.4533457
0
ARC
8
back_labelLayer
10
112.8866166
20
75.2256869
40
1.7136244
50
266.0782188
51
270.0589228
0
LINE
8
back_labelLayer
10
120.0990234
20
77.8356964
11
119.8649414
21
77.1885284
0
LINE
8
back_labelLayer
10
120.0255859
20
73.8195831
11
120.0255859
21
73.1448761
0
ARC
8
back_labelLayer
10
118.729898
20
75.7307339
40
2.8475826
50
256.4243799
51
270.488967
0
ARC
8
back_labelLayer
10
118.5023483
20
74.8426269
40
1.9309181
50
221.7976199
51
256.8020616
0
ARC
8
back_labelLayer
10
118.7227032
20
75.0054389
40
2.2038553
50
196.0166547
51
221.1349196
0
ARC
8
back_labelLayer
10
119.8301869
20
75.3439436
40
3.3618056
50
183.5913843
51
196.3539611
0
ARC
8
back_labelLayer
10
121.0707533
20
75.4532379
40
4.6068887
50
179.9388172
51
183.981535
0
ARC
8
back_labelLayer
10
120.6677245
20
75.4852246
40
4.2039445
50
169.8978579
51
180.3689041
0
ARC
8
back_labelLayer
10
119.2042295
20
75.7559492
40
2.7156701
50
153.0875003
51
170.1051536
0
ARC
8
back_labelLayer
10
118.6489635
20
76.0212694
40
2.1005001
50
138.655037
51
152.6853228
0
ARC
8
back_labelLayer
10
118.5453182
20
76.0967987
40
1.9728299
50
101.4912843
51
138.3133852
0
ARC
8
back_labelLayer
10
118.7832442
20
75.1065788
40
2.9908157
50
89.5892023
51
102.1787839
0
ARC
8
back_labelLayer
10
118.8015402
20
74.65903
40
3.438289
50
77.7702153
51
89.947553
0
ARC
8
back_labelLayer
10
118.7364941
20
74.3001225
40
3.8028507
50
74.6796493
51
77.9579208
0
ARC
8
back_labelLayer
10
119.0880024
20
75.5735574
40
2.4817963
50
70.094548
51
74.7386488
0
ARC
8
back_labelLayer
10
119.4223832
20
76.4899219
40
1.506335
50
63.5033309
51
70.1862063
0
ARC
8
back_labelLayer
10
119.5756428
20
76.8116541
40
1.1500389
50
62.9287512
51
63.1855634
0
ARC
8
back_labelLayer
10
118.613316
20
74.0386226
40
3.3894649
50
68.3294386
51
74.883146
0
ARC
8
back_labelLayer
10
118.4345297
20
73.4046872
40
4.0480957
50
74.7801568
51
77.449803
0
ARC
8
back_labelLayer
10
118.6222272
20
74.2857203
40
3.147339
50
77.2999552
51
81.7345083
0
ARC
8
back_labelLayer
10
118.7591649
20
75.2398915
40
2.1833938
50
81.6910363
51
87.5078614
0
ARC
8
back_labelLayer
10
118.7855814
20
75.7333907
40
1.6892198
50
87.6751829
51
89.9746721
0
ARC
8
back_labelLayer
10
118.7485582
20
75.7329927
40
1.6900398
50
88.7194179
51
112.5667464
0
ARC
8
back_labelLayer
10
118.6284693
20
76.1300391
40
1.277982
50
114.4265775
51
161.6632797
0
ARC
8
back_labelLayer
10
119.8214195
20
75.6631037
40
2.5581592
50
160.1418061
51
175.1368409
0
ARC
8
back_labelLayer
10
121.4634231
20
75.4787208
40
4.2101181
50
174.5310058
51
180.1549226
0
ARC
8
back_labelLayer
10
120.9432008
20
75.4482827
40
3.6899297
50
179.7041305
51
188.0743492
0
ARC
8
back_labelLayer
10
119.6141258
20
75.2538257
40
2.3467245
50
187.9315189
51
200.388551
0
ARC
8
back_labelLayer
10
118.8954946
20
74.9876099
40
1.580369
50
200.4183646
51
216.6392575
0
ARC
8
back_labelLayer
10
118.5942217
20
74.772238
40
1.2101166
50
216.9695458
51
261.3103067
0
ARC
8
back_labelLayer
10
118.7271772
20
75.3920896
40
1.8433276
50
260.1359054
51
270.2692594
0
ARC
8
back_labelLayer
10
118.7210405
20
76.7382147
40
3.1894668
50
270.2658574
51
286.2891434
0
ARC
8
back_labelLayer
10
118.5271376
20
77.4613395
40
3.9379865
50
286.0460758
51
292.3653575
0
ARC
8
back_labelLayer
10
119.0435198
20
75.0768331
40
2.167236
50
282.0343941
51
296.9454663
0
ARC
8
back_labelLayer
10
118.8206325
20
76.081285
40
3.196096
50
272.5980185
51
282.1878783
0
ARC
8
back_labelLayer
10
118.7567145
20
77.0615799
40
4.1783257
50
269.9655093
51
272.8642791
0
LINE
8
back_labelLayer
10
121.9349609
20
75.5499542
11
121.9716797
21
75.5499542
0
LINE
8
back_labelLayer
10
122.5729492
20
76.2843292
11
124.1977539
21
78.0055206
0
LINE
8
back_labelLayer
10
124.1977539
20
78.0055206
11
125.1019531
21
78.0055206
0
LINE
8
back_labelLayer
10
125.1019531
20
78.0055206
11
123.0640625
21
75.8620636
0
LINE
8
back_labelLayer
10
123.0640625
20
75.8620636
11
125.2442383
21
72.9750518
0
LINE
8
back_labelLayer
10
125.2442383
20
72.9750518
11
124.3216797
21
72.9750518
0
LINE
8
back_labelLayer
10
124.3216797
20
72.9750518
11
122.5454102
21
75.3525909
0
LINE
8
back_labelLayer
10
122.5454102
20
75.3525909
11
121.9716797
21
74.8568878
0
LINE
8
back_labelLayer
10
121.9716797
20
74.8568878
11
121.9716797
21
72.9750518
0
LINE
8
back_labelLayer
10
121.9716797
20
72.9750518
11
121.2189453
21
72.9750518
0
LINE
8
back_labelLayer
10
121.2189453
20
72.9750518
11
121.2189453
21
80.1168487
0
LINE
8
back_labelLayer
10
121.2189453
20
80.1168487
11
121.9716797
21
80.1168487
0
LINE
8
back_labelLayer
10
121.9716797
20
80.1168487
11
121.9716797
21
76.3302276
0
ARC
8
back_labelLayer
10
125.6529127
20
72.944231
40
4.5101296
50
142.3233085
51
144.7076213
0
ARC
8
back_labelLayer
10
128.0549511
20
71.0914996
40
7.5436755
50
140.4331277
51
142.3366204
0
ARC
8
back_labelLayer
10
131.1844963
20
68.515341
40
11.5971442
50
139.2798448
51
140.4703751
0
ARC
8
back_labelLayer
10
134.8059819
20
65.4011107
40
16.373501
50
138.3418454
51
139.2876843
0
ARC
8
back_labelLayer
10
116.8940855
20
76.3397373
40
5.0776031
50
358.2739352
51
359.8926928
0
ARC
8
back_labelLayer
10
112.9434071
20
76.4498521
40
9.0298101
50
357.5041448
51
358.330619
0
ARC
8
back_labelLayer
10
107.030646
20
76.7110154
40
14.9483357
50
356.632589
51
357.4909907
0
ARC
8
back_labelLayer
10
97.2037241
20
77.284189
40
24.7919583
50
356.0329216
51
356.6442264
0
ARC
8
back_labelLayer
10
90.1777276
20
77.7591523
40
31.8339822
50
356.0206188
51
356.0549805
0
LINE
8
right_outsideCutPath
10
237
20
100
11
237
21
86.01
0
LINE
8
right_outsideCutPath
10
237
20
86.01
11
234
21
86.01
0
LINE
8
right_outsideCutPath
10
234
20
86.01
11
234
21
66.99
0
LINE
8
right_outsideCutPath
10
234
20
66.99
11
237
21
66.99
0
LINE
8
right_outsideCutPath
10
237
20
66.99
11
237
21
53
0
LINE
8
right_outsideCutPath
10
237
20
53
11
257.43
21
53
0
LINE
8
right_outsideCutPath
10
257.43
20
53
11
257.43
21
56
0
LINE
8
right_outsideCutPath
10
257.43
20
56
11
276.45
21
56
0
LINE
8
right_outsideCutPath
10
276.45
20
56
11
276.45
21
53
0
LINE
8
right_outsideCutPath
10
276.45
20
53
11
295.47
21
53
0
LINE
8
right_outsideCutPath
10
295.47
20
53
11
295.47
21
56
0
LINE
8
right_outsideCutPath
10
295.47
20
56
11
314.49
21
56
0
LINE
8
right_outsideCutPath
10
314.49
20
56
11
314.49
21
53
0
LINE
8
right_outsideCutPath
10
314.49
20
53
11
333.51
21
53
0
LINE
8
right_outsideCutPath
10
333.51
20
53
11
333.51
21
56
0
LINE
8
right_outsideCutPath
10
333.51
20
56
11
352.53
21
56
0
LINE
8
right_outsideCutPath
10
352.53
20
56
11
352.53
21
53
0
LINE
8
right_outsideCutPath
10
352.53
20
53
11
371.55
21
53
0
LINE
8
right_outsideCutPath
10
371.55
20
53
11
371.55
21
56
0
LINE
8
right_outsideCutPath
10
371.55
20
56
11
390.57
21
56
0
LINE
8
right_outsideCutPath
10
390.57
20
56
11
390.57
21
53
0
LINE
8
right_outsideCutPath
10
390.57
20
53
11
409.59
21
53
0
LINE
8
right_outsideCutPath
10
409.59
20
53
11
411
21
53
0
LINE
8
right_outsideCutPath
10
411
20
53
11
411
21
66.99
0
LINE
8
right_outsideCutPath
10
411
20
66.99
11
414
21
66.99
0
LINE
8
right_outsideCutPath
10
414
20
66.99
11
414
21
86.01
0
LINE
8
right_outsideCutPath
10
414
20
86.01
11
411
21
86.01
0
LINE
8
right_outsideCutPath
10
411
20
86.01
11
411
21
100
0
LINE
8
right_outsideCutPath
10
411
20
100
11
237
21
100
0
LINE
8
right_labelLayer
10
317.1726074
20
79.1254183
11
317.067041
21
78.4185823
0
LINE
8
right_labelLayer
10
315.0383301
20
76.7570589
11
315.0383301
21
74.0582308
0
LINE
8
right_labelLayer
10
315.0383301
20
74.0582308
11
314.276416
21
74.0582308
0
LINE
8
right_labelLayer
10
314.276416
20
74.0582308
11
314.276416
21
79.0886995
0
LINE
8
right_labelLayer
10
314.276416
20
79.0886995
11
314.9052246
21
79.0886995
0
LINE
8
right_labelLayer
10
314.9052246
20
79.0886995
11
314.9924316
21
78.1569612
0
LINE
8
right_labelLayer
10
314.9924316
20
78.1569612
11
315.0291504
21
78.1569612
0
ARC
8
right_labelLayer
10
316.5791604
20
75.6827257
40
3.4977794
50
84.992255
51
90.1281372
0
ARC
8
right_labelLayer
10
316.6631591
20
76.6238178
40
2.5529478
50
78.4891803
51
85.0265876
0
ARC
8
right_labelLayer
10
316.3371362
20
75.1410012
40
3.3578712
50
77.4453179
51
81.6360825
0
ARC
8
right_labelLayer
10
316.4834162
20
76.1492977
40
2.3390217
50
81.5884966
51
87.1915778
0
ARC
8
right_labelLayer
10
316.5151988
20
76.7004627
40
1.7869677
50
87.3435322
51
89.9659841
0
ARC
8
right_labelLayer
10
316.5078164
20
77.1672845
40
1.3201725
50
89.6335537
51
137.0880592
0
ARC
8
right_labelLayer
10
316.8318293
20
76.802927
40
1.8061533
50
135.6209222
51
138.8376923
0
ARC
8
right_labelLayer
10
316.7843358
20
76.8492852
40
1.739889
50
138.9575841
51
174.5422163
0
ARC
8
right_labelLayer
10
317.3509827
20
76.7606203
40
2.3126556
50
173.6907253
51
180.0882331
0
ARC
8
right_labelLayer
10
317.2708677
20
76.8939874
40
2.5730137
50
139.4139415
51
150.6032767
0
ARC
8
right_labelLayer
10
316.8095246
20
77.2893087
40
1.9654642
50
124.2321676
51
139.4160937
0
ARC
8
right_labelLayer
10
316.5628465
20
77.6616667
40
1.5188535
50
89.6796767
51
124.4405599
0
LINE
8
right_labelLayer
10
318.8754394
20
79.0886995
11
318.8754394
21
74.0582308
0
LINE
8
right_labelLayer
10
318.8754394
20
74.0582308
11
318.1135254
21
74.0582308
0
LINE
8
right_labelLayer
10
318.1135254
20
74.0582308
11
318.1135254
21
79.0886995
0
LINE
8
right_labelLayer
10
318.1135254
20
79.0886995
11
318.8754394
21
79.0886995
0
ARC
8
right_labelLayer
10
318.893543
20
80.4571066
40
0.8442916
50
170.8451834
51
180.3544796
0
ARC
8
right_labelLayer
10
318.5774803
20
80.5099524
40
0.5238504
50
155.9679102
51
171.0514876
0
ARC
8
right_labelLayer
10
318.4243857
20
80.5778721
40
0.3563665
50
133.7879536
51
155.9172289
0
ARC
8
right_labelLayer
10
318.4809077
20
80.515385
40
0.4405957
50
92.6446507
51
133.4710401
0
ARC
8
right_labelLayer
10
318.4987572
20
80.3752568
40
0.5815093
50
89.9689544
51
93.7644828
0
ARC
8
right_labelLayer
10
318.5060289
20
80.5079098
40
0.44891
50
46.3708281
51
90.8879301
0
ARC
8
right_labelLayer
10
318.5507053
20
80.5540325
40
0.3846996
50
17.7252567
51
46.4473298
0
ARC
8
right_labelLayer
10
318.3423718
20
80.4822903
40
0.6050049
50
4.9426738
51
18.1901249
0
ARC
8
right_labelLayer
10
318.0773333
20
80.4536379
40
0.8715453
50
359.8846401
51
5.31808
0
ARC
8
right_labelLayer
10
318.1605821
20
80.4465299
40
0.788313
50
349.8344631
51
0.3890803
0
ARC
8
right_labelLayer
10
318.4475717
20
80.3929924
40
0.4963838
50
332.6322356
51
350.0705695
0
ARC
8
right_labelLayer
10
318.5592762
20
80.337833
40
0.3718326
50
313.6153789
51
332.2678251
0
ARC
8
right_labelLayer
10
318.5054423
20
80.386851
40
0.4444862
50
269.1788446
51
314.280755
0
ARC
8
right_labelLayer
10
318.4940229
20
80.4263655
40
0.4839814
50
250.499975
51
270.5977783
0
ARC
8
right_labelLayer
10
318.4793758
20
80.371597
40
0.4274886
50
225.1301359
51
249.90015
0
ARC
8
right_labelLayer
10
318.4564446
20
80.3462649
40
0.3933607
50
197.7934071
51
224.89415
0
ARC
8
right_labelLayer
10
318.6710648
20
80.4198145
40
0.6202062
50
184.9924804
51
198.204186
0
ARC
8
right_labelLayer
10
318.948782
20
80.4500058
40
0.8995165
50
179.8804207
51
185.3688245
0
LINE
8
right_labelLayer
10
322.8686035
20
79.0886995
11
324.6081543
21
79.0886995
0
LINE
8
right_labelLayer
10
324.6081543
20
79.0886995
11
324.6081543
21
78.6067659
0
LINE
8
right_labelLayer
10
324.6081543
20
78.6067659
11
323.676416
21
78.4966097
0
LINE
8
right_labelLayer
10
321.9598144
20
74.8568636
11
322.8502441
21
74.8568636
0
LINE
8
right_labelLayer
10
322.6069824
20
74.1729769
11
321.6936035
21
74.1729769
0
ARC
8
right_labelLayer
10
322.7054797
20
77.7282212
40
1.2381996
50
29.4584124
51
38.3577114
0
ARC
8
right_labelLayer
10
322.1995212
20
77.4393882
40
1.8207918
50
23.1844966
51
29.5422535
0
ARC
8
right_labelLayer
10
321.7168174
20
77.2253173
40
2.3488013
50
21.2507005
51
23.3490504
0
ARC
8
right_labelLayer
10
322.5373331
20
77.5516432
40
1.4658166
50
6.8504858
51
20.9871939
0
ARC
8
right_labelLayer
10
322.1244717
20
77.495668
40
1.8824177
50
359.8711243
51
7.0431508
0
ARC
8
right_labelLayer
10
322.260332
20
77.4732718
40
1.7466472
50
342.5649493
51
0.5957892
0
ARC
8
right_labelLayer
10
322.5824645
20
77.3843174
40
1.4127095
50
310.6097499
51
342.0924004
0
ARC
8
right_labelLayer
10
322.4018209
20
77.5944371
40
1.6898057
50
284.9315803
51
310.6222892
0
ARC
8
right_labelLayer
10
322.1757701
20
78.3865452
40
2.5134538
50
272.5334706
51
285.2579982
0
ARC
8
right_labelLayer
10
322.1176522
20
79.1804153
40
3.3091966
50
269.9691283
51
272.9311729
0
ARC
8
right_labelLayer
10
322.110437
20
78.3199193
40
2.4487063
50
263.4837338
51
270.127103
0
ARC
8
right_labelLayer
10
322.0705543
20
77.9410583
40
2.0677694
50
259.4963449
51
263.3903527
0
ARC
8
right_labelLayer
10
322.3174012
20
74.7041743
40
1.3557913
50
117.3934708
51
128.409532
0
ARC
8
right_labelLayer
10
321.9683692
20
75.1371739
40
0.7996636
50
128.0881946
51
147.1400228
0
ARC
8
right_labelLayer
10
321.7803293
20
75.2633632
40
0.5732553
50
147.5368858
51
180.2591976
0
ARC
8
right_labelLayer
10
321.6019402
20
75.2558897
40
0.3948903
50
179.2919035
51
198.3581121
0
ARC
8
right_labelLayer
10
321.5280042
20
75.2364577
40
0.3186339
50
199.2290843
51
239.5691457
0
ARC
8
right_labelLayer
10
321.589331
20
75.3212
40
0.4228812
50
238.2200047
51
239.8455986
0
ARC
8
right_labelLayer
10
321.638215
20
75.421772
40
0.534463
50
240.7302469
51
254.5026908
0
ARC
8
right_labelLayer
10
321.7840852
20
75.9244317
40
1.0578415
50
254.1636524
51
262.2123112
0
ARC
8
right_labelLayer
10
321.8996264
20
76.7314176
40
1.8730477
50
262.0554842
51
267.2083793
0
ARC
8
right_labelLayer
10
321.9554442
20
77.7552561
40
2.8983956
50
267.092007
51
270.0863912
0
ARC
8
right_labelLayer
10
322.8669005
20
71.7380854
40
3.1188227
50
81.5744109
51
90.3059959
0
ARC
8
right_labelLayer
10
323.0379727
20
72.8537846
40
1.9901072
50
68.3671664
51
81.7399021
0
ARC
8
right_labelLayer
10
323.2614158
20
73.4248259
40
1.3769159
50
52.1879384
51
68.2500893
0
ARC
8
right_labelLayer
10
323.4177625
20
73.6354915
40
1.114647
50
8.6201215
51
51.8982553
0
ARC
8
right_labelLayer
10
322.869785
20
73.5195457
40
1.6741283
50
359.7430992
51
9.7326071
0
ARC
8
right_labelLayer
10
322.8943374
20
73.4913048
40
1.6496894
50
340.5268813
51
0.7201558
0
ARC
8
right_labelLayer
10
323.1367173
20
73.4309551
40
1.4012595
50
302.9903551
51
339.5494601
0
ARC
8
right_labelLayer
10
322.8825235
20
73.7539177
40
1.8109417
50
303.1867928
51
304.172323
0
ARC
8
right_labelLayer
10
322.6451575
20
74.1648274
40
2.2849063
50
286.2542031
51
302.5280268
0
ARC
8
right_labelLayer
10
322.2136267
20
75.5882145
40
3.7722183
50
276.493987
51
286.495357
0
ARC
8
right_labelLayer
10
321.9443805
20
77.8389786
40
6.0390062
50
269.7545105
51
276.6169434
0
ARC
8
right_labelLayer
10
321.898399
20
76.068803
40
4.2688227
50
262.563489
51
270.2698733
0
ARC
8
right_labelLayer
10
321.6893189
20
74.5191034
40
2.7051055
50
251.2102057
51
262.7064108
0
ARC
8
right_labelLayer
10
321.3879666
20
73.6345898
40
1.7706659
50
235.9668091
51
251.2229219
0
ARC
8
right_labelLayer
10
321.0685625
20
73.178925
40
1.2143269
50
208.9036329
51
236.4231303
0
ARC
8
right_labelLayer
10
321.0978826
20
73.1666322
40
1.2343049
50
182.2079715
51
207.746175
0
ARC
8
right_labelLayer
10
321.4712393
20
73.2039182
40
1.6089836
50
179.9785746
51
183.0225419
0
ARC
8
right_labelLayer
10
321.0270797
20
73.2249588
40
1.1650032
50
138.3915994
51
181.0052556
0
ARC
8
right_labelLayer
10
321.150107
20
73.1143941
40
1.3304103
50
113.8121607
51
138.349618
0
ARC
8
right_labelLayer
10
321.3834737
20
72.6104557
40
1.8856965
50
102.2871059
51
114.1172612
0
ARC
8
right_labelLayer
10
321.3101434
20
75.1725074
40
0.7907678
50
216.5861418
51
245.4968436
0
ARC
8
right_labelLayer
10
321.4234168
20
75.2686037
40
0.939048
50
215.4653597
51
217.1747802
0
ARC
8
right_labelLayer
10
321.2347903
20
75.132356
40
0.7063673
50
182.1767565
51
215.3415699
0
ARC
8
right_labelLayer
10
321.4027423
20
75.1503645
40
0.874959
50
179.9836895
51
182.9374609
0
ARC
8
right_labelLayer
10
321.3990482
20
75.1579782
40
0.8712961
50
161.7226417
51
180.4842956
0
ARC
8
right_labelLayer
10
321.3032451
20
75.1841196
40
0.7721456
50
144.49632
51
161.335079
0
ARC
8
right_labelLayer
10
321.558612
20
74.9937974
40
1.090585
50
132.7258788
51
144.1479209
0
ARC
8
right_labelLayer
10
321.967873
20
74.5567585
40
1.6893226
50
125.2212038
51
132.8655921
0
ARC
8
right_labelLayer
10
322.3793673
20
73.985346
40
2.3934597
50
121.2352147
51
125.3794193
0
ARC
8
right_labelLayer
10
321.6499238
20
77.2656608
40
1.3356959
50
215.1640706
51
247.4748001
0
ARC
8
right_labelLayer
10
321.8992704
20
77.4668921
40
1.6555633
50
212.4714277
51
215.8875442
0
ARC
8
right_labelLayer
10
321.8336894
20
77.4199737
40
1.5750519
50
183.0160823
51
212.3123125
0
ARC
8
right_labelLayer
10
322.1793427
20
77.4584979
40
1.9223605
50
179.9759448
51
183.6206508
0
ARC
8
right_labelLayer
10
322.4581953
20
77.4778982
40
2.2012914
50
166.8195513
51
180.4839546
0
ARC
8
right_labelLayer
10
321.7279448
20
77.6622717
40
1.4482959
50
132.3287807
51
167.3340772
0
ARC
8
right_labelLayer
10
321.825644
20
77.5218365
40
1.618062
50
106.2189142
51
131.5377468
0
ARC
8
right_labelLayer
10
322.072841
20
76.7214266
40
2.4556996
50
93.6330053
51
106.5408474
0
ARC
8
right_labelLayer
10
322.1535407
20
75.8154352
40
3.3650634
50
89.938074
51
94.0268182
0
ARC
8
right_labelLayer
10
322.1666065
20
76.26006
40
2.9204516
50
82.5852293
51
90.1849825
0
ARC
8
right_labelLayer
10
322.2558387
20
76.9504817
40
2.2242877
50
74.0088962
51
82.5694185
0
ARC
8
right_labelLayer
10
321.3617724
20
73.203292
40
0.7652123
50
179.2207067
51
200.9356145
0
ARC
8
right_labelLayer
10
321.2707769
20
73.1822214
40
0.6728177
50
202.0286655
51
236.1457553
0
ARC
8
right_labelLayer
10
321.4079389
20
73.3563793
40
0.8940184
50
235.0634417
51
238.5040194
0
ARC
8
right_labelLayer
10
321.5673614
20
73.641136
40
1.2201797
50
239.1065833
51
254.4863212
0
ARC
8
right_labelLayer
10
321.7799434
20
74.3741131
40
1.9833304
50
254.2324287
51
263.4937481
0
ARC
8
right_labelLayer
10
321.9134782
20
75.5051532
40
3.1222204
50
263.4108969
51
270.1456935
0
ARC
8
right_labelLayer
10
321.9275617
20
76.1564869
40
3.7735491
50
269.9067092
51
270.0018805
0
ARC
8
right_labelLayer
10
321.9459474
20
77.504852
40
5.1219468
50
269.7957167
51
275.3991178
0
ARC
8
right_labelLayer
10
322.137647
20
75.5368913
40
3.1446845
50
275.2956677
51
283.3515984
0
ARC
8
right_labelLayer
10
322.449963
20
74.25052
40
1.820973
50
283.1370794
51
295.8573046
0
ARC
8
right_labelLayer
10
322.6813683
20
73.7453244
40
1.2654907
50
296.4048712
51
301.8008604
0
ARC
8
right_labelLayer
10
322.7721128
20
73.6202411
40
1.1114214
50
301.2230893
51
318.6237631
0
ARC
8
right_labelLayer
10
322.9767592
20
73.4311999
40
0.8329273
50
319.0765535
51
1.1407014
0
ARC
8
right_labelLayer
10
322.7787152
20
73.4559487
40
1.0308386
50
359.5460511
51
10.9905387
0
ARC
8
right_labelLayer
10
323.1768901
20
73.5369393
40
0.6245365
50
10.6607951
51
30.9362279
0
ARC
8
right_labelLayer
10
323.3031358
20
73.6070014
40
0.4802567
50
31.5095731
51
58.0777669
0
ARC
8
right_labelLayer
10
323.1848048
20
73.3951226
40
0.7227551
50
58.9973326
51
73.8585
0
ARC
8
right_labelLayer
10
322.9456457
20
72.6121781
40
1.5413703
50
73.4100428
51
81.5907654
0
ARC
8
right_labelLayer
10
322.7430005
20
71.3008053
40
2.8682929
50
81.4172169
51
86.5756537
0
ARC
8
right_labelLayer
10
322.6188213
20
69.3250089
40
4.8479824
50
86.5054267
51
90.139918
0
ARC
8
right_labelLayer
10
321.6827054
20
72.4215926
40
1.7514182
50
89.6434793
51
100.0208784
0
ARC
8
right_labelLayer
10
321.5726271
20
73.0204188
40
1.1425805
50
99.8103118
51
116.8230059
0
ARC
8
right_labelLayer
10
321.4653974
20
73.2465487
40
0.892418
50
117.2304161
51
130.502305
0
ARC
8
right_labelLayer
10
321.410342
20
73.3173089
40
0.8028665
50
130.7944853
51
169.0413622
0
ARC
8
right_labelLayer
10
321.8157648
20
73.2218294
40
1.219161
50
168.2580381
51
180.3820765
0
ARC
8
right_labelLayer
10
322.496914
20
77.4662889
40
1.4872407
50
179.5617584
51
191.6528732
0
ARC
8
right_labelLayer
10
321.9798164
20
77.3545687
40
0.9582482
50
191.3555066
51
213.366005
0
ARC
8
right_labelLayer
10
321.8556365
20
77.2828668
40
0.8151447
50
213.9573957
51
227.7971103
0
ARC
8
right_labelLayer
10
321.9636734
20
77.4138987
40
0.9848163
50
228.2620359
51
254.7341583
0
ARC
8
right_labelLayer
10
322.1017027
20
77.8870625
40
1.4776519
50
254.4016269
51
267.4348426
0
ARC
8
right_labelLayer
10
322.1377162
20
78.37015
40
1.9619195
50
267.015572
51
270.0321879
0
ARC
8
right_labelLayer
10
322.1612505
20
78.0679392
40
1.65986
50
269.225654
51
284.3773652
0
ARC
8
right_labelLayer
10
322.387487
20
77.2797339
40
0.8404909
50
282.7796755
51
346.4828429
0
ARC
8
right_labelLayer
10
321.7110933
20
77.4713267
40
1.5431881
50
345.4362236
51
0.7465656
0
ARC
8
right_labelLayer
10
321.6160148
20
77.5148619
40
1.6383031
50
359.1806335
51
15.0431367
0
ARC
8
right_labelLayer
10
322.3583611
20
77.7314108
40
0.8653484
50
13.9535778
51
77.667377
0
ARC
8
right_labelLayer
10
322.1453765
20
76.9681651
40
1.6570848
50
76.1095007
51
90.7028715
0
ARC
8
right_labelLayer
10
322.1134953
20
77.0264607
40
1.5987063
50
89.5859325
51
101.333439
0
ARC
8
right_labelLayer
10
321.9992468
20
77.5713738
40
1.0419789
50
101.0620602
51
121.9738956
0
ARC
8
right_labelLayer
10
321.9189515
20
77.7158198
40
0.8769678
50
122.5210985
51
134.9967331
0
ARC
8
right_labelLayer
10
321.9520133
20
77.6960092
40
0.9144019
50
135.5839922
51
163.0015603
0
ARC
8
right_labelLayer
10
322.4348764
20
77.5377433
40
1.4224747
50
162.5911646
51
175.734364
0
ARC
8
right_labelLayer
10
323.0140702
20
77.4806844
40
2.0043558
50
175.3393051
51
180.0863285
0
LINE
8
right_labelLayer
10
329.845166
20
74.0582308
11
329.0832519
21
74.0582308
0
LINE
8
right_labelLayer
10
329.0832519
20
74.0582308
11
329.0832519
21
77.31243
0
LINE
8
right_labelLayer
10
326.4027832
20
76.6882112
11
326.4027832
21
74.0582308
0
LINE
8
right_labelLayer
10
326.4027832
20
74.0582308
11
325.6408691
21
74.0582308
0
LINE
8
right_labelLayer
10
325.6408691
20
74.0582308
11
325.6408691
21
81.2000277
0
LINE
8
right_labelLayer
10
325.6408691
20
81.2000277
11
326.4027832
21
81.2000277
0
LINE
8
right_labelLayer
10
326.4027832
20
81.2000277
11
326.4027832
21
79.0382112
0
LINE
8
right_labelLayer
10
326.3660644
20
78.3910433
11
326.4119629
21
78.3910433
0
LINE
8
right_labelLayer
10
329.845166
20
77.3399691
11
329.845166
21
74.0582308
0
ARC
8
right_labelLayer
10
326.9295474
20
77.3247815
40
2.15374
50
359.6714119
51
8.6877219
0
ARC
8
right_labelLayer
10
327.7277754
20
77.4513738
40
1.3455567
50
8.493199
51
22.6579444
0
ARC
8
right_labelLayer
10
328.1333472
20
77.6199161
40
0.9063594
50
22.7024199
51
42.3420112
0
ARC
8
right_labelLayer
10
328.1789319
20
77.6404224
40
0.8589948
50
43.3790524
51
71.5386176
0
ARC
8
right_labelLayer
10
328.0084606
20
77.1640824
40
1.3648464
50
71.0827989
51
84.3691449
0
ARC
8
right_labelLayer
10
327.9319351
20
76.5134467
40
2.0198889
50
84.0197724
51
90.1510143
0
ARC
8
right_labelLayer
10
327.91019
20
76.2277309
40
2.305656
50
89.5919251
51
100.3595247
0
ARC
8
right_labelLayer
10
327.74693
20
77.0856862
40
1.4323423
50
100.1068147
51
118.0847374
0
ARC
8
right_labelLayer
10
327.5808768
20
77.4115214
40
1.0667218
50
118.4550813
51
139.6706255
0
ARC
8
right_labelLayer
10
327.747584
20
77.2975736
40
1.2677278
50
140.6208198
51
160.5048718
0
ARC
8
right_labelLayer
10
328.6262951
20
76.972277
40
2.2046631
50
160.1566787
51
171.5312629
0
ARC
8
right_labelLayer
10
330.0480789
20
76.747013
40
3.6441434
50
171.3202312
51
178.340665
0
ARC
8
right_labelLayer
10
331.3203491
20
76.6901759
40
4.9175664
50
178.1079615
51
180.0228912
0
ARC
8
right_labelLayer
10
319.5484916
20
79.030046
40
6.8542964
50
357.8674768
51
0.0682538
0
ARC
8
right_labelLayer
10
321.8771536
20
78.9412134
40
4.5239421
50
354.9828541
51
357.894319
0
ARC
8
right_labelLayer
10
323.414939
20
78.807305
40
2.9803381
50
351.9712888
51
354.9618995
0
ARC
8
right_labelLayer
10
327.7025166
20
77.5837568
40
1.5222485
50
119.8315948
51
147.9725794
0
ARC
8
right_labelLayer
10
327.8868685
20
77.3005524
40
1.8597296
50
116.6658844
51
120.4182933
0
ARC
8
right_labelLayer
10
327.9212609
20
77.2101911
40
1.9559394
50
96.665237
51
116.3782663
0
ARC
8
right_labelLayer
10
327.9954177
20
76.6985607
40
2.4727603
50
89.8926938
51
96.9959225
0
ARC
8
right_labelLayer
10
328.0191334
20
76.0801998
40
3.0911758
50
80.6862683
51
90.3537406
0
ARC
8
right_labelLayer
10
328.2116112
20
77.2123101
40
1.9428512
50
65.6022834
51
80.884423
0
ARC
8
right_labelLayer
10
328.4427449
20
77.732872
40
1.3733088
50
46.740036
51
65.4131186
0
ARC
8
right_labelLayer
10
328.4584475
20
77.7824647
40
1.3266234
50
19.2204497
51
45.7660345
0
ARC
8
right_labelLayer
10
327.6935141
20
77.4988974
40
2.1423294
50
6.4733767
51
19.646818
0
ARC
8
right_labelLayer
10
326.5504895
20
77.3517831
40
3.2946978
50
359.7945497
51
6.7744045
0
LINE
8
right_labelLayer
10
333.723584
20
74.6870394
11
333.723584
21
74.1041292
0
LINE
8
right_labelLayer
10
331.4653808
20
75.5040316
11
331.4653808
21
78.4966097
0
LINE
8
right_labelLayer
10
331.4653808
20
78.4966097
11
330.7447754
21
78.4966097
0
LINE
8
right_labelLayer
10
330.7447754
20
78.4966097
11
330.7447754
21
78.8637972
0
LINE
8
right_labelLayer
10
330.7447754
20
78.8637972
11
331.4653808
21
79.1804964
0
LINE
8
right_labelLayer
10
331.4653808
20
79.1804964
11
331.7866699
21
80.2545198
0
LINE
8
right_labelLayer
10
331.7866699
20
80.2545198
11
332.2272949
21
80.2545198
0
LINE
8
right_labelLayer
10
332.2272949
20
80.2545198
11
332.2272949
21
79.0886995
0
LINE
8
right_labelLayer
10
332.2272949
20
79.0886995
11
333.6868652
21
79.0886995
0
LINE
8
right_labelLayer
10
333.6868652
20
79.0886995
11
333.6868652
21
78.4966097
0
LINE
8
right_labelLayer
10
333.6868652
20
78.4966097
11
332.2272949
21
78.4966097
0
LINE
8
right_labelLayer
10
332.2272949
20
78.4966097
11
332.2272949
21
75.5361605
0
ARC
8
right_labelLayer
10
333.0403313
20
77.0974739
40
2.5022369
50
269.8803843
51
278.3028385
0
ARC
8
right_labelLayer
10
333.0636828
20
76.9059828
40
2.3093853
50
278.4156143
51
279.0073824
0
ARC
8
right_labelLayer
10
332.7833524
20
78.6966502
40
4.1218609
50
278.959056
51
280.5104204
0
ARC
8
right_labelLayer
10
333.0509776
20
77.2606631
40
2.6611489
50
280.4847942
51
282.6269272
0
ARC
8
right_labelLayer
10
333.2856338
20
76.2181931
40
1.5925961
50
282.5875343
51
285.5794088
0
ARC
8
right_labelLayer
10
333.4029945
20
75.7865202
40
1.1452667
50
285.7238511
51
286.2557648
0
ARC
8
right_labelLayer
10
333.4032662
20
74.7816161
40
0.7493944
50
287.9886431
51
295.3049186
0
ARC
8
right_labelLayer
10
333.2224908
20
75.3285451
40
1.3254203
50
283.3069788
51
288.1196902
0
ARC
8
right_labelLayer
10
333.031569
20
76.1249301
40
2.1443687
50
280.0069413
51
283.373592
0
ARC
8
right_labelLayer
10
332.9039693
20
76.8173548
40
2.848437
50
279.1859508
51
280.1143059
0
ARC
8
right_labelLayer
10
332.8253705
20
77.2643932
40
3.3022958
50
275.5260213
51
279.2939739
0
ARC
8
right_labelLayer
10
332.91374
20
76.3413808
40
2.3750635
50
270.8932568
51
275.5483426
0
ARC
8
right_labelLayer
10
332.9248437
20
75.919938
40
1.953504
50
270.0031518
51
270.7603288
0
ARC
8
right_labelLayer
10
332.8942049
20
75.9561982
40
1.9900019
50
253.784764
51
270.8852757
0
ARC
8
right_labelLayer
10
332.6584427
20
75.1521629
40
1.1521173
50
190.3817696
51
253.8772347
0
ARC
8
right_labelLayer
10
333.8601237
20
75.4770767
40
2.3948947
50
179.3551141
51
192.8477746
0
ARC
8
right_labelLayer
10
333.761507
20
75.526564
40
1.5342421
50
179.6416188
51
189.750554
0
ARC
8
right_labelLayer
10
333.2198857
20
75.4299597
40
0.98409
50
189.5479215
51
205.7874062
0
ARC
8
right_labelLayer
10
332.9973065
20
75.3273207
40
0.7390383
50
206.129437
51
221.4084346
0
ARC
8
right_labelLayer
10
332.9723507
20
75.3083845
40
0.7078002
50
221.5949328
51
262.3505266
0
ARC
8
right_labelLayer
10
333.0317082
20
75.6136195
40
1.0183828
50
261.3265814
51
270.1912435
0
LINE
8
bottom_outsideCutPath
10
420
20
180
11
420
21
159.57
0
LINE
8
bottom_outsideCutPath
10
420
20
159.57
11
417
21
159.57
0
LINE
8
bottom_outsideCutPath
10
417
20
159.57
11
417
21
140.55
0
LINE
8
bottom_outsideCutPath
10
417
20
140.55
11
420
21
140.55
0
LINE
8
bottom_outsideCutPath
10
420
20
140.55
11
420
21
121.53
0
LINE
8
bottom_outsideCutPath
10
420
20
121.53
11
417
21
121.53
0
LINE
8
bottom_outsideCutPath
10
417
20
121.53
11
417
21
102.51
0
LINE
8
bottom_outsideCutPath
10
417
20
102.51
11
420
21
102.51
0
LINE
8
bottom_outsideCutPath
10
420
20
102.51
11
420
21
83.49
0
LINE
8
bottom_outsideCutPath
10
420
20
83.49
11
417
21
83.49
0
LINE
8
bottom_outsideCutPath
10
417
20
83.49
11
417
21
64.47
0
LINE
8
bottom_outsideCutPath
10
417
20
64.47
11
420
21
64.47
0
LINE
8
bottom_outsideCutPath
10
420
20
64.47
11
420
21
45.45
0
LINE
8
bottom_outsideCutPath
10
420
20
45.45
11
417
21
45.45
0
LINE
8
bottom_outsideCutPath
10
417
20
45.45
11
417
21
26.43
0
LINE
8
bottom_outsideCutPath
10
417
20
26.43
11
420
21
26.43
0
LINE
8
bottom_outsideCutPath
10
420
20
26.43
11
420
21
7.41
0
LINE
8
bottom_outsideCutPath
10
420
20
7.41
11
420
21
6
0
LINE
8
bottom_outsideCutPath
10
420
20
6
11
446.91
21
6
0
LINE
8
bottom_outsideCutPath
10
446.91
20
6
11
446.91
21
3
0
LINE
8
bottom_outsideCutPath
10
446.91
20
3
11
465.93
21
3
0
LINE
8
bottom_outsideCutPath
10
465.93
20
3
11
465.93
21
6
0
LINE
8
bottom_outsideCutPath
10
465.93
20
6
11
484.95
21
6
0
LINE
8
bottom_outsideCutPath
10
484.95
20
6
11
484.95
21
3
0
LINE
8
bottom_outsideCutPath
10
484.95
20
3
11
503.97
21
3
0
LINE
8
bottom_outsideCutPath
10
503.97
20
3
11
503.97
21
6
0
LINE
8
bottom_outsideCutPath
10
503.97
20
6
11
522.99
21
6
0
LINE
8
bottom_outsideCutPath
10
522.99
20
6
11
522.99
21
3
0
LINE
8
bottom_outsideCutPath
10
522.99
20
3
11
542.01
21
3
0
LINE
8
bottom_outsideCutPath
10
542.01
20
3
11
542.01
21
6
0
LINE
8
bottom_outsideCutPath
10
542.01
20
6
11
561.03
21
6
0
LINE
8
bottom_outsideCutPath
10
561.03
20
6
11
561.03
21
3
0
LINE
8
bottom_outsideCutPath
10
561.03
20
3
11
580.05
21
3
0
LINE
8
bottom_outsideCutPath
10
580.05
20
3
11
580.05
21
6
0
LINE
8
bottom_outsideCutPath
10
580.05
20
6
11
599.07
21
6
0
LINE
8
bottom_outsideCutPath
10
599.07
20
6
11
599.07
21
3
0
LINE
8
bottom_outsideCutPath
10
599.07
20
3
11
618.09
21
3
0
LINE
8
bottom_outsideCutPath
10
618.09
20
3
11
618.09
21
6
0
LINE
8
bottom_outsideCutPath
10
618.09
20
6
11
637.11
21
6
0
LINE
8
bottom_outsideCutPath
10
637.11
20
6
11
645
21
6
0
LINE
8
bottom_outsideCutPath
10
645
20
6
11
645
21
26.43
0
LINE
8
bottom_outsideCutPath
10
645
20
26.43
11
648
21
26.43
0
LINE
8
bottom_outsideCutPath
10
648
20
26.43
11
648
21
45.45
0
LINE
8
bottom_outsideCutPath
10
648
20
45.45
11
645
21
45.45
0
LINE
8
bottom_outsideCutPath
10
645
20
45.45
11
645
21
64.47
0
LINE
8
bottom_outsideCutPath
10
645
20
64.47
11
648
21
64.47
0
LINE
8
bottom_outsideCutPath
10
648
20
64.47
11
648
21
83.49
0
LINE
8
bottom_outsideCutPath
10
648
20
83.49
11
645
21
83.49
0
LINE
8
bottom_outsideCutPath
10
645
20
83.49
11
645
21
102.51
0
LINE
8
bottom_outsideCutPath
10
645
20
102.51
11
648
21
102.51
0
LINE
8
bottom_outsideCutPath
10
648
20
102.51
11
648
21
121.53
0
LINE
8
bottom_outsideCutPath
10
648
20
121.53
11
645
21
121.53
0
LINE
8
bottom_outsideCutPath
10
645
20
121.53
11
645
21
140.55
0
LINE
8
bottom_outsideCutPath
10
645
20
140.55
11
648
21
140.55
0
LINE
8
bottom_outsideCutPath
10
648
20
140.55
11
648
21
159.57
0
LINE
8
bottom_outsideCutPath
10
648
20
159.57
11
645
21
159.57
0
LINE
8
bottom_outsideCutPath
10
645
20
159.57
11
645
21
178.59
0
LINE
8
bottom_outsideCutPath
10
645
20
178.59
11
645
21
180
0
LINE
8
bottom_outsideCutPath
10
645
20
180
11
618.09
21
180
0
LINE
8
bottom_outsideCutPath
10
618.09
20
180
11
618.09
21
183
0
LINE
8
bottom_outsideCutPath
10
618.09
20
183
11
599.07
21
183
0
LINE
8
bottom_outsideCutPath
10
599.07
20
183
11
599.07
21
180
0
LINE
8
bottom_outsideCutPath
10
599.07
20
180
11
580.05
21
180
0
LINE
8
bottom_outsideCutPath
10
580.05
20
180
11
580.05
21
183
0
LINE
8
bottom_outsideCutPath
10
580.05
20
183
11
561.03
21
183
0
LINE
8
bottom_outsideCutPath
10
561.03
20
183
11
561.03
21
180
0
LINE
8
bottom_outsideCutPath
10
561.03
20
180
11
542.01
21
180
0
LINE
8
bottom_outsideCutPath
10
542.01
20
180
11
542.01
21
183
0
LINE
8
bottom_outsideCutPath
10
542.01
20
183
11
522.99
21
183
0
LINE
8
bottom_outsideCutPath
10
522.99
20
183
11
522.99
21
180
0
LINE
8
bottom_outsideCutPath
10
522.99
20
180
11
503.97
21
180
0
LINE
8
bottom_outsideCutPath
10
503.97
20
180
11
503.97
21
183
0
LINE
8
bottom_outsideCutPath
10
503.97
20
183
11
484.95
21
183
0
LINE
8
bottom_outsideCutPath
10
484.95
20
183
11
484.95
21
180
0
LINE
8
bottom_outsideCutPath
10
484.95
20
180
11
465.93
21
180
0
LINE
8
bottom_outsideCutPath
10
465.93
20
180
11
465.93
21
183
0
LINE
8
bottom_outsideCutPath
10
465.93
20
183
11
446.91
21
183
0
LINE
8
bottom_outsideCutPath
10
446.91
20
183
11
446.91
21
180
0
LINE
8
bottom_outsideCutPath
10
446.91
20
180
11
427.89
21
180
0
LINE
8
bottom_outsideCutPath
10
427.89
20
180
11
420
21
180
0
LINE
8
bottom_labelLayer
10
476.1971803
20
81.9789705
11
475.9862428
21
81.9789705
0
LINE
8
bottom_labelLayer
10
475.9862428
20
81.9789705
11
475.3710084
21
79.5004548
0
LINE
8
bottom_labelLayer
10
475.3710084
20
79.5004548
11
473.2792115
21
79.5004548
0
LINE
8
bottom_labelLayer
10
473.2792115
20
79.5004548
11
473.2792115
21
106.8520173
0
LINE
8
bottom_labelLayer
10
473.2792115
20
106.8520173
11
476.1971803
21
106.8520173
0
LINE
8
bottom_labelLayer
10
476.1971803
20
106.8520173
11
476.1971803
21
100.2074861
0
LINE
8
bottom_labelLayer
10
476.0565553
20
96.1996736
11
476.1971803
21
96.1996736
0
ARC
8
bottom_labelLayer
10
482.3315904
20
90.1645879
40
8.9183278
50
74.239336
51
90.5623781
0
ARC
8
bottom_labelLayer
10
482.9213011
20
92.3279672
40
6.6761345
50
38.5631273
51
74.0670419
0
ARC
8
bottom_labelLayer
10
481.4037097
20
91.1479521
40
8.5983976
50
16.4709307
51
38.4075246
0
ARC
8
bottom_labelLayer
10
477.0317581
20
89.7770373
40
13.1798484
50
5.133849
51
16.7973359
0
ARC
8
bottom_labelLayer
10
471.5125749
20
89.1907514
40
18.7295697
50
359.8779233
51
5.4093607
0
ARC
8
bottom_labelLayer
10
473.1336699
20
89.0499093
40
17.10873
50
350.6562778
51
0.338029
0
ARC
8
bottom_labelLayer
10
479.0980497
20
88.0354331
40
11.0588262
50
335.8305969
51
350.8254816
0
ARC
8
bottom_labelLayer
10
481.7216701
20
86.9030434
40
8.2016571
50
321.3161514
51
335.5436072
0
ARC
8
bottom_labelLayer
10
482.7247059
20
86.0857228
40
6.9078459
50
274.0640086
51
321.4081006
0
ARC
8
bottom_labelLayer
10
482.257429
20
89.0456467
40
9.8967633
50
269.9225749
51
275.5481546
0
ARC
8
bottom_labelLayer
10
482.194847
20
87.9995794
40
8.8508238
50
255.7755321
51
270.3185515
0
ARC
8
bottom_labelLayer
10
481.9422634
20
86.8773902
40
7.7010373
50
245.9801472
51
255.5455876
0
ARC
8
bottom_labelLayer
10
481.4530508
20
85.7397262
40
6.4627748
50
215.5850209
51
245.836165
0
ARC
8
bottom_labelLayer
10
415.3595899
20
100.1560601
40
60.8376122
50
358.1123228
51
0.0484321
0
ARC
8
bottom_labelLayer
10
432.291746
20
99.5876095
40
43.8959211
50
355.7238599
51
358.1258887
0
ARC
8
bottom_labelLayer
10
439.740365
20
99.0759981
40
36.4299178
50
355.4714978
51
355.6527587
0
ARC
8
bottom_labelLayer
10
481.6390649
20
92.4049011
40
6.6343354
50
95.1835139
51
145.1108993
0
ARC
8
bottom_labelLayer
10
482.222196
20
89.1165727
40
9.9659372
50
89.8743272
51
96.8145352
0
ARC
8
bottom_labelLayer
10
481.7610901
20
88.4396281
40
8.1997262
50
89.5731267
51
100.7324329
0
ARC
8
bottom_labelLayer
10
481.1540824
20
91.5064357
40
5.0735888
50
100.446945
51
119.6700686
0
ARC
8
bottom_labelLayer
10
480.5912021
20
92.5588091
40
3.8806941
50
120.1402977
51
142.4248982
0
ARC
8
bottom_labelLayer
10
481.5224405
20
91.9427648
40
4.9950504
50
143.338232
51
161.2559915
0
ARC
8
bottom_labelLayer
10
485.4167175
20
90.5601666
40
9.1272578
50
160.8926403
51
171.2334246
0
ARC
8
bottom_labelLayer
10
491.9177364
20
89.5113995
40
15.7122366
50
171.0667798
51
177.8456889
0
ARC
8
bottom_labelLayer
10
498.6785836
20
89.1675351
40
22.4814096
50
177.6176547
51
180.0425351
0
ARC
8
bottom_labelLayer
10
495.4903987
20
89.0755065
40
19.2933655
50
179.7762643
51
185.707524
0
ARC
8
bottom_labelLayer
10
487.8837292
20
88.2917511
40
11.6464845
50
185.5924869
51
194.205062
0
ARC
8
bottom_labelLayer
10
483.0109532
20
87.0270988
40
6.6124323
50
193.943048
51
208.0218354
0
ARC
8
bottom_labelLayer
10
481.0394052
20
86.0241176
40
4.4009927
50
208.5536469
51
217.560543
0
ARC
8
bottom_labelLayer
10
480.8787845
20
85.9573122
40
4.2331813
50
218.169044
51
253.8047173
0
ARC
8
bottom_labelLayer
10
481.6639573
20
88.3780761
40
6.7773337
50
253.1382344
51
266.8483142
0
ARC
8
bottom_labelLayer
10
481.8841331
20
90.9746417
40
9.3823937
50
266.377573
51
270.0510505
0
ARC
8
bottom_labelLayer
10
481.9547369
20
87.4088651
40
5.8169464
50
269.3868964
51
285.8630591
0
ARC
8
bottom_labelLayer
10
482.3868986
20
85.8469687
40
4.1964189
50
286.0162959
51
326.84973
0
ARC
8
bottom_labelLayer
10
480.3010659
20
87.2287576
40
6.6983927
50
326.7104942
51
343.6661832
0
ARC
8
bottom_labelLayer
10
476.3964989
20
88.4218678
40
10.7810132
50
343.4171342
51
353.6369168
0
ARC
8
bottom_labelLayer
10
470.4990048
20
89.1216449
40
16.7197837
50
353.4934863
51
0.22054
0
ARC
8
bottom_labelLayer
10
469.9792131
20
89.2557849
40
17.2395928
50
359.7680749
51
6.309526
0
ARC
8
bottom_labelLayer
10
476.4729839
20
90.0009835
40
10.7032938
50
6.1648737
51
16.0396326
0
ARC
8
bottom_labelLayer
10
480.6562139
20
91.2337789
40
6.3423556
50
15.7779408
51
32.0151289
0
ARC
8
bottom_labelLayer
10
481.9607202
20
91.9808251
40
4.840562
50
32.7034262
51
35.5242813
0
ARC
8
bottom_labelLayer
10
482.4377845
20
92.3199059
40
4.255272
50
35.540839
51
79.8011254
0
ARC
8
bottom_labelLayer
10
481.8663457
20
89.8906064
40
6.7486647
50
78.6781342
51
90.3749644
0
ARC
8
bottom_labelLayer
10
496.8964902
20
89.0492348
40
15.072517
50
349.1761975
51
0.3862596
0
ARC
8
bottom_labelLayer
10
501.971061
20
88.0376111
40
9.8983376
50
330.2507029
51
349.4116466
0
ARC
8
bottom_labelLayer
10
503.532754
20
87.2259037
40
8.1399968
50
318.1439718
51
329.7566241
0
ARC
8
bottom_labelLayer
10
503.8146146
20
87.0000201
40
7.7793623
50
278.8959159
51
317.9979134
0
ARC
8
bottom_labelLayer
10
503.0883612
20
90.479557
40
11.3307723
50
269.7502812
51
279.8033282
0
ARC
8
bottom_labelLayer
10
502.9705765
20
88.5190588
40
9.3704161
50
253.5436902
51
270.4182424
0
ARC
8
bottom_labelLayer
10
502.6586551
20
87.3124682
40
8.125002
50
238.8115572
51
253.2428305
0
ARC
8
bottom_labelLayer
10
502.5579854
20
87.1100211
40
7.8997048
50
207.794701
51
238.6757947
0
ARC
8
bottom_labelLayer
10
504.0024357
20
87.9946839
40
9.5906429
50
205.6560034
51
208.4461342
0
ARC
8
bottom_labelLayer
10
505.1151313
20
88.4583137
40
10.7945628
50
188.9102425
51
205.3171484
0
ARC
8
bottom_labelLayer
10
508.8647948
20
89.0933865
40
14.5974152
50
179.7744695
51
189.0932872
0
ARC
8
bottom_labelLayer
10
509.4179292
20
89.2534643
40
15.1507839
50
169.2442984
51
180.3880769
0
ARC
8
bottom_labelLayer
10
504.2728393
20
90.2704613
40
9.9063665
50
150.7111472
51
169.4695426
0
ARC
8
bottom_labelLayer
10
502.6303674
20
91.1139313
40
8.0615104
50
138.1759425
51
150.2287413
0
ARC
8
bottom_labelLayer
10
502.3571557
20
91.323589
40
7.7181485
50
99.1759354
51
137.9832731
0
ARC
8
bottom_labelLayer
10
503.1091382
20
87.7846863
40
11.3330795
50
89.7326281
51
100.0759893
0
ARC
8
bottom_labelLayer
10
503.2594354
20
89.3130141
40
9.8051121
50
73.5222721
51
90.5692287
0
ARC
8
bottom_labelLayer
10
503.8344467
20
91.4021814
40
7.63876
50
41.1445684
51
73.2133839
0
ARC
8
bottom_labelLayer
10
502.7367958
20
90.4587656
40
9.0860866
50
13.5014357
51
41.0703433
0
ARC
8
bottom_labelLayer
10
498.4960302
20
89.3490135
40
13.4690422
50
1.1277231
51
13.8800035
0
ARC
8
bottom_labelLayer
10
494.8429066
20
89.1532592
40
17.1257583
50
359.9919247
51
1.5419727
0
ARC
8
bottom_labelLayer
10
512.0672716
20
89.0750125
40
14.7765359
50
179.7059576
51
187.9160735
0
ARC
8
bottom_labelLayer
10
506.6476981
20
88.2964971
40
9.3014198
50
187.7639235
51
200.0976859
0
ARC
8
bottom_labelLayer
10
503.6620836
20
87.2025651
40
6.1217062
50
200.0845985
51
216.9131498
0
ARC
8
bottom_labelLayer
10
502.5718336
20
86.4240771
40
4.782547
50
217.3009585
51
261.709908
0
ARC
8
bottom_labelLayer
10
503.077963
20
88.8392721
40
7.2470882
50
260.5033126
51
270.2476709
0
ARC
8
bottom_labelLayer
10
503.1745664
20
88.3696321
40
6.7776947
50
269.4481695
51
284.7255694
0
ARC
8
bottom_labelLayer
10
503.7111169
20
86.3797396
40
4.7167942
50
284.5662314
51
322.6333813
0
ARC
8
bottom_labelLayer
10
502.456638
20
87.2860452
40
6.2639973
50
323.0089204
51
342.6390509
0
ARC
8
bottom_labelLayer
10
498.8685419
20
88.4587372
40
10.0386715
50
342.3615766
51
353.753755
0
ARC
8
bottom_labelLayer
10
493.5749012
20
89.096814
40
15.370421
50
353.5363138
51
0.2014117
0
ARC
8
bottom_labelLayer
10
494.3859651
20
89.2251547
40
14.5594517
50
359.7075698
51
7.8972628
0
ARC
8
bottom_labelLayer
10
499.7180537
20
89.9895557
40
9.1729386
50
7.7439983
51
20.0690202
0
ARC
8
bottom_labelLayer
10
502.6893021
20
91.0798935
40
6.0079551
50
20.0256961
51
37.4350606
0
ARC
8
bottom_labelLayer
10
503.6751296
20
91.7794225
40
4.8001486
50
37.9577678
51
80.4006153
0
ARC
8
bottom_labelLayer
10
503.1149136
20
89.2798005
40
7.3594392
50
79.3453345
51
90.3174895
0
ARC
8
bottom_labelLayer
10
503.0111818
20
89.6949767
40
6.9444354
50
89.4806037
51
103.880494
0
ARC
8
bottom_labelLayer
10
502.4276694
20
91.9169944
40
4.6474415
50
103.4685206
51
142.3118897
0
ARC
8
bottom_labelLayer
10
503.5620582
20
91.1192107
40
6.0331964
50
142.9025672
51
162.3749675
0
ARC
8
bottom_labelLayer
10
507.136538
20
89.9280248
40
9.8007026
50
162.0653204
51
173.1674873
0
ARC
8
bottom_labelLayer
10
512.7100879
20
89.2171516
40
15.4193001
50
173.0086204
51
180.2463845
0
LINE
8
bottom_labelLayer
10
525.943274
20
81.908658
11
525.943274
21
79.6762361
0
LINE
8
bottom_labelLayer
10
517.2948365
20
85.0375642
11
517.2948365
21
96.4985017
0
LINE
8
bottom_labelLayer
10
517.2948365
20
96.4985017
11
514.5350709
21
96.4985017
0
LINE
8
bottom_labelLayer
10
514.5350709
20
96.4985017
11
514.5350709
21
97.9047517
0
LINE
8
bottom_labelLayer
10
514.5350709
20
97.9047517
11
517.2948365
21
99.1176423
0
LINE
8
bottom_labelLayer
10
517.2948365
20
99.1176423
11
518.5253053
21
103.2309236
0
LINE
8
bottom_labelLayer
10
518.5253053
20
103.2309236
11
520.2128053
21
103.2309236
0
LINE
8
bottom_labelLayer
10
520.2128053
20
103.2309236
11
520.2128053
21
98.7660798
0
LINE
8
bottom_labelLayer
10
520.2128053
20
98.7660798
11
525.802649
21
98.7660798
0
LINE
8
bottom_labelLayer
10
525.802649
20
98.7660798
11
525.802649
21
96.4985017
0
LINE
8
bottom_labelLayer
10
525.802649
20
96.4985017
11
520.2128053
21
96.4985017
0
LINE
8
bottom_labelLayer
10
520.2128053
20
96.4985017
11
520.2128053
21
85.1606111
0
ARC
8
bottom_labelLayer
10
523.3265678
20
91.1400811
40
9.5830066
50
269.8803475
51
278.3028269
0
ARC
8
bottom_labelLayer
10
523.4179739
20
90.3934566
40
8.8310251
50
278.4155125
51
279.0081805
0
ARC
8
bottom_labelLayer
10
522.3423989
20
97.2646133
40
15.7858475
50
278.9590151
51
280.5103798
0
ARC
8
bottom_labelLayer
10
523.3672572
20
91.7655523
40
10.1921032
50
280.4847494
51
282.6267838
0
ARC
8
bottom_labelLayer
10
524.2659664
20
87.772821
40
6.0994814
50
282.58766
51
285.5794473
0
ARC
8
bottom_labelLayer
10
524.7170608
20
86.1139233
40
4.3803946
50
285.7235451
51
286.256155
0
ARC
8
bottom_labelLayer
10
524.7164825
20
82.2709673
40
2.8701302
50
287.9888342
51
295.3048312
0
ARC
8
bottom_labelLayer
10
524.0242058
20
84.3654375
40
5.0760259
50
283.3069787
51
288.1197394
0
ARC
8
bottom_labelLayer
10
523.2929092
20
87.4159393
40
8.2129511
50
280.007029
51
283.3734848
0
ARC
8
bottom_labelLayer
10
522.8033713
20
90.0727102
40
10.9143887
50
279.1863672
51
280.1142561
0
ARC
8
bottom_labelLayer
10
522.5032763
20
91.7796337
40
12.647351
50
275.5260499
51
279.2939247
0
ARC
8
bottom_labelLayer
10
522.8417423
20
88.2444048
40
9.0959591
50
270.8932707
51
275.5483711
0
ARC
8
bottom_labelLayer
10
522.8842538
20
86.6294929
40
7.4806007
50
270.0032662
51
270.7605347
0
ARC
8
bottom_labelLayer
10
522.7669312
20
86.7692916
40
7.6213089
50
253.784799
51
270.885254
0
ARC
8
bottom_labelLayer
10
521.8640088
20
83.6899814
40
4.4123631
50
190.3817628
51
253.8772435
0
ARC
8
bottom_labelLayer
10
526.4661893
20
84.9343305
40
9.1719339
50
179.3550997
51
192.8477648
0
ARC
8
bottom_labelLayer
10
526.0885181
20
85.1238632
40
5.8758278
50
179.6416653
51
189.7505879
0
ARC
8
bottom_labelLayer
10
524.0142316
20
84.7538887
40
3.7688707
50
189.5479465
51
205.7873647
0
ARC
8
bottom_labelLayer
10
523.1617926
20
84.3608028
40
2.8303673
50
206.1294442
51
221.4083995
0
ARC
8
bottom_labelLayer
10
523.0662106
20
84.2882761
40
2.7107231
50
221.5949101
51
262.350522
0
ARC
8
bottom_labelLayer
10
523.2935338
20
85.4572522
40
3.9001787
50
261.3266078
51
270.1912938
0
LINE
8
bottom_labelLayer
10
538.6522584
20
81.908658
11
538.6522584
21
79.6762361
0
LINE
8
bottom_labelLayer
10
530.0038209
20
85.0375642
11
530.0038209
21
96.4985017
0
LINE
8
bottom_labelLayer
10
530.0038209
20
96.4985017
11
527.2440553
21
96.4985017
0
LINE
8
bottom_labelLayer
10
527.2440553
20
96.4985017
11
527.2440553
21
97.9047517
0
LINE
8
bottom_labelLayer
10
527.2440553
20
97.9047517
11
530.0038209
21
99.1176423
0
LINE
8
bottom_labelLayer
10
530.0038209
20
99.1176423
11
531.2342897
21
103.2309236
0
LINE
8
bottom_labelLayer
10
531.2342897
20
103.2309236
11
532.9217897
21
103.2309236
0
LINE
8
bottom_labelLayer
10
532.9217897
20
103.2309236
11
532.9217897
21
98.7660798
0
LINE
8
bottom_labelLayer
10
532.9217897
20
98.7660798
11
538.5116334
21
98.7660798
0
LINE
8
bottom_labelLayer
10
538.5116334
20
98.7660798
11
538.5116334
21
96.4985017
0
LINE
8
bottom_labelLayer
10
538.5116334
20
96.4985017
11
532.9217897
21
96.4985017
0
LINE
8
bottom_labelLayer
10
532.9217897
20
96.4985017
11
532.9217897
21
85.1606111
0
ARC
8
bottom_labelLayer
10
536.0355521
20
91.1400811
40
9.5830066
50
269.8803475
51
278.3028269
0
ARC
8
bottom_labelLayer
10
536.1269583
20
90.3934566
40
8.8310251
50
278.4155125
51
279.0081805
0
ARC
8
bottom_labelLayer
10
535.0513832
20
97.2646133
40
15.7858475
50
278.9590151
51
280.5103798
0
ARC
8
bottom_labelLayer
10
536.0762415
20
91.7655523
40
10.1921032
50
280.4847494
51
282.6267838
0
ARC
8
bottom_labelLayer
10
536.9749508
20
87.772821
40
6.0994814
50
282.58766
51
285.5794473
0
ARC
8
bottom_labelLayer
10
537.4260452
20
86.1139233
40
4.3803946
50
285.7235451
51
286.256155
0
ARC
8
bottom_labelLayer
10
537.4254669
20
82.2709673
40
2.8701302
50
287.9888342
51
295.3048312
0
ARC
8
bottom_labelLayer
10
536.7331901
20
84.3654375
40
5.0760259
50
283.3069787
51
288.1197394
0
ARC
8
bottom_labelLayer
10
536.0018935
20
87.4159393
40
8.2129511
50
280.007029
51
283.3734848
0
ARC
8
bottom_labelLayer
10
535.5123556
20
90.0727102
40
10.9143887
50
279.1863672
51
280.1142561
0
ARC
8
bottom_labelLayer
10
535.2122607
20
91.7796337
40
12.647351
50
275.5260499
51
279.2939247
0
ARC
8
bottom_labelLayer
10
535.5507266
20
88.2444048
40
9.0959591
50
270.8932707
51
275.5483711
0
ARC
8
bottom_labelLayer
10
535.5932382
20
86.6294929
40
7.4806007
50
270.0032662
51
270.7605347
0
ARC
8
bottom_labelLayer
10
535.4759156
20
86.7692916
40
7.6213089
50
253.784799
51
270.885254
0
ARC
8
bottom_labelLayer
10
534.5729932
20
83.6899814
40
4.4123631
50
190.3817628
51
253.8772435
0
ARC
8
bottom_labelLayer
10
539.1751737
20
84.9343305
40
9.1719339
50
179.3550997
51
192.8477648
0
ARC
8
bottom_labelLayer
10
538.7975025
20
85.1238632
40
5.8758278
50
179.6416653
51
189.7505879
0
ARC
8
bottom_labelLayer
10
536.723216
20
84.7538887
40
3.7688707
50
189.5479465
51
205.7873647
0
ARC
8
bottom_labelLayer
10
535.870777
20
84.3608028
40
2.8303673
50
206.1294442
51
221.4083995
0
ARC
8
bottom_labelLayer
10
535.775195
20
84.2882761
40
2.7107231
50
221.5949101
51
262.350522
0
ARC
8
bottom_labelLayer
10
536.0025181
20
85.4572522
40
3.9001787
50
261.3266078
51
270.1912938
0
ARC
8
bottom_labelLayer
10
544.0585996
20
89.0492348
40
15.072517
50
349.1761975
51
0.3862596
0
ARC
8
bottom_labelLayer
10
549.1331704
20
88.0376111
40
9.8983376
50
330.2507029
51
349.4116466
0
ARC
8
bottom_labelLayer
10
550.6948633
20
87.2259037
40
8.1399968
50
318.1439718
51
329.7566241
0
ARC
8
bottom_labelLayer
10
550.9767239
20
87.0000201
40
7.7793623
50
278.8959159
51
317.9979134
0
ARC
8
bottom_labelLayer
10
550.2504706
20
90.479557
40
11.3307723
50
269.7502812
51
279.8033282
0
ARC
8
bottom_labelLayer
10
550.1326859
20
88.5190588
40
9.3704161
50
253.5436902
51
270.4182424
0
ARC
8
bottom_labelLayer
10
549.8207645
20
87.3124682
40
8.125002
50
238.8115572
51
253.2428305
0
ARC
8
bottom_labelLayer
10
549.7200948
20
87.1100211
40
7.8997048
50
207.794701
51
238.6757947
0
ARC
8
bottom_labelLayer
10
551.1645451
20
87.9946839
40
9.5906429
50
205.6560034
51
208.4461342
0
ARC
8
bottom_labelLayer
10
552.2772407
20
88.4583137
40
10.7945628
50
188.9102425
51
205.3171484
0
ARC
8
bottom_labelLayer
10
556.0269042
20
89.0933865
40
14.5974152
50
179.7744695
51
189.0932872
0
ARC
8
bottom_labelLayer
10
556.5800386
20
89.2534643
40
15.1507839
50
169.2442984
51
180.3880769
0
ARC
8
bottom_labelLayer
10
551.4349487
20
90.2704613
40
9.9063665
50
150.7111472
51
169.4695426
0
ARC
8
bottom_labelLayer
10
549.7924768
20
91.1139313
40
8.0615104
50
138.1759425
51
150.2287413
0
ARC
8
bottom_labelLayer
10
549.5192651
20
91.323589
40
7.7181485
50
99.1759354
51
137.9832731
0
ARC
8
bottom_labelLayer
10
550.2712476
20
87.7846863
40
11.3330795
50
89.7326281
51
100.0759893
0
ARC
8
bottom_labelLayer
10
550.4215448
20
89.3130141
40
9.8051121
50
73.5222721
51
90.5692287
0
ARC
8
bottom_labelLayer
10
550.9965561
20
91.4021814
40
7.63876
50
41.1445684
51
73.2133839
0
ARC
8
bottom_labelLayer
10
549.8989051
20
90.4587656
40
9.0860866
50
13.5014357
51
41.0703433
0
ARC
8
bottom_labelLayer
10
545.6581395
20
89.3490135
40
13.4690422
50
1.1277231
51
13.8800035
0
ARC
8
bottom_labelLayer
10
542.005016
20
89.1532592
40
17.1257583
50
359.9919247
51
1.5419727
0
ARC
8
bottom_labelLayer
10
559.229381
20
89.0750125
40
14.7765359
50
179.7059576
51
187.9160735
0
ARC
8
bottom_labelLayer
10
553.8098075
20
88.2964971
40
9.3014198
50
187.7639235
51
200.0976859
0
ARC
8
bottom_labelLayer
10
550.824193
20
87.2025651
40
6.1217062
50
200.0845985
51
216.9131498
0
ARC
8
bottom_labelLayer
10
549.733943
20
86.4240771
40
4.782547
50
217.3009585
51
261.709908
0
ARC
8
bottom_labelLayer
10
550.2400723
20
88.8392721
40
7.2470882
50
260.5033126
51
270.2476709
0
ARC
8
bottom_labelLayer
10
550.3366758
20
88.3696321
40
6.7776947
50
269.4481695
51
284.7255694
0
ARC
8
bottom_labelLayer
10
550.8732263
20
86.3797396
40
4.7167942
50
284.5662314
51
322.6333813
0
ARC
8
bottom_labelLayer
10
549.6187474
20
87.2860452
40
6.2639973
50
323.0089204
51
342.6390509
0
ARC
8
bottom_labelLayer
10
546.0306512
20
88.4587372
40
10.0386715
50
342.3615766
51
353.753755
0
ARC
8
bottom_labelLayer
10
540.7370105
20
89.096814
40
15.370421
50
353.5363138
51
0.2014117
0
ARC
8
bottom_labelLayer
10
541.5480744
20
89.2251547
40
14.5594517
50
359.7075698
51
7.8972628
0
ARC
8
bottom_labelLayer
10
546.8801631
20
89.9895557
40
9.1729386
50
7.7439983
51
20.0690202
0
ARC
8
bottom_labelLayer
10
549.8514115
20
91.0798935
40
6.0079551
50
20.0256961
51
37.4350606
0
ARC
8
bottom_labelLayer
10
550.837239
20
91.7794225
40
4.8001486
50
37.9577678
51
80.4006153
0
ARC
8
bottom_labelLayer
10
550.277023
20
89.2798005
40
7.3594392
50
79.3453345
51
90.3174895
0
ARC
8
bottom_labelLayer
10
550.1732911
20
89.6949767
40
6.9444354
50
89.4806037
51
103.880494
0
ARC
8
bottom_labelLayer
10
549.5897787
20
91.9169944
40
4.6474415
50
103.4685206
51
142.3118897
0
ARC
8
bottom_labelLayer
10
550.7241676
20
91.1192107
40
6.0331964
50
142.9025672
51
162.3749675
0
ARC
8
bottom_labelLayer
10
554.2986474
20
89.9280248
40
9.8007026
50
162.0653204
51
173.1674873
0
ARC
8
bottom_labelLayer
10
559.8721973
20
89.2171516
40
15.4193001
50
173.0086204
51
180.2463845
0
LINE
8
bottom_labelLayer
10
591.7206178
20
79.5004548
11
588.802649
21
79.5004548
0
LINE
8
bottom_labelLayer
10
588.802649
20
79.5004548
11
588.802649
21
92.033658
0
LINE
8
bottom_labelLayer
10
579.4335084
20
90.2582673
11
579.4335084
21
79.5004548
0
LINE
8
bottom_labelLayer
10
579.4335084
20
79.5004548
11
576.5155397
21
79.5004548
0
LINE
8
bottom_labelLayer
10
576.5155397
20
79.5004548
11
576.5155397
21
92.033658
0
LINE
8
bottom_labelLayer
10
567.1639772
20
89.6078767
11
567.1639772
21
79.5004548
0
LINE
8
bottom_labelLayer
10
567.1639772
20
79.5004548
11
564.2460084
21
79.5004548
0
LINE
8
bottom_labelLayer
10
564.2460084
20
79.5004548
11
564.2460084
21
98.7660798
0
LINE
8
bottom_labelLayer
10
564.2460084
20
98.7660798
11
566.6190553
21
98.7660798
0
LINE
8
bottom_labelLayer
10
566.6190553
20
98.7660798
11
567.0936647
21
96.1293611
0
LINE
8
bottom_labelLayer
10
567.0936647
20
96.1293611
11
567.2342897
21
96.1293611
0
LINE
8
bottom_labelLayer
10
578.8358522
20
95.8481111
11
578.9764772
21
95.8481111
0
LINE
8
bottom_labelLayer
10
591.7206178
20
92.0688142
11
591.7206178
21
79.5004548
0
ARC
8
bottom_labelLayer
10
580.1945321
20
92.079507
40
8.6082391
50
359.6948306
51
8.1471477
0
ARC
8
bottom_labelLayer
10
583.3652142
20
92.5487314
40
5.4030821
50
7.9864639
51
20.794955
0
ARC
8
bottom_labelLayer
10
585.1178827
20
93.2201136
40
3.5262347
50
20.7071198
51
40.0217645
0
ARC
8
bottom_labelLayer
10
585.502378
20
93.4716845
40
3.0704939
50
41.0408026
51
73.1792702
0
ARC
8
bottom_labelLayer
10
584.9460165
20
91.7889601
40
4.8424364
50
72.6395582
51
86.2568134
0
ARC
8
bottom_labelLayer
10
584.767779
20
89.8656624
40
6.7734693
50
85.8144462
51
90.0685054
0
ARC
8
bottom_labelLayer
10
584.7023004
20
89.130952
40
7.508394
50
89.562136
51
101.2961698
0
ARC
8
bottom_labelLayer
10
584.1367922
20
91.8382359
40
4.7428461
50
101.0032329
51
121.784047
0
ARC
8
bottom_labelLayer
10
583.706871
20
92.605772
40
3.8641576
50
122.3597484
51
140.2883972
0
ARC
8
bottom_labelLayer
10
584.4803482
20
92.0386338
40
4.8218764
50
140.9765316
51
161.1699562
0
ARC
8
bottom_labelLayer
10
587.3942261
20
91.0016489
40
7.9146097
50
160.8731712
51
172.5272588
0
ARC
8
bottom_labelLayer
10
592.2632874
20
90.3291955
40
12.8298167
50
172.3776585
51
180.1829574
0
ARC
8
bottom_labelLayer
10
595.6747253
20
90.258177
40
16.241217
50
179.8939886
51
179.9996813
0
ARC
8
bottom_labelLayer
10
567.9074227
20
92.079507
40
8.6082391
50
359.6948306
51
8.1471477
0
ARC
8
bottom_labelLayer
10
571.0781048
20
92.5487314
40
5.4030821
50
7.9864639
51
20.794955
0
ARC
8
bottom_labelLayer
10
572.8307733
20
93.2201136
40
3.5262347
50
20.7071198
51
40.0217645
0
ARC
8
bottom_labelLayer
10
573.223263
20
93.4772084
40
3.0608375
50
41.0610701
51
72.8993591
0
ARC
8
bottom_labelLayer
10
572.6563611
20
91.7894791
40
4.8408642
50
72.3601042
51
85.9561783
0
ARC
8
bottom_labelLayer
10
572.4644559
20
89.8061655
40
6.8329678
50
85.5237889
51
90.0793503
0
ARC
8
bottom_labelLayer
10
572.398999
20
89.3919468
40
7.2473962
50
89.5573249
51
101.4832173
0
ARC
8
bottom_labelLayer
10
571.8427369
20
91.9981584
40
4.5826873
50
101.1546393
51
123.0655624
0
ARC
8
bottom_labelLayer
10
571.4646221
20
92.6568209
40
3.8246345
50
123.7020666
51
142.3022038
0
ARC
8
bottom_labelLayer
10
572.3503359
20
92.0559417
40
4.8933361
50
143.076974
51
161.3913812
0
ARC
8
bottom_labelLayer
10
575.9205906
20
90.7950077
40
8.6794846
50
161.0234367
51
171.4469176
0
ARC
8
bottom_labelLayer
10
581.8311176
20
89.8691425
40
14.662023
50
171.3042003
51
178.3501625
0
ARC
8
bottom_labelLayer
10
587.4796742
20
89.6168602
40
20.3156989
50
178.0976079
51
180.0253358
0
ARC
8
bottom_labelLayer
10
572.1777236
20
93.2223776
40
5.7348141
50
117.1209557
51
149.5423675
0
ARC
8
bottom_labelLayer
10
572.7630098
20
92.1821058
40
6.9276761
50
93.834327
51
117.5072148
0
ARC
8
bottom_labelLayer
10
572.924663
20
90.7503247
40
8.3673191
50
89.9661787
51
94.2831603
0
ARC
8
bottom_labelLayer
10
573.0215241
20
89.5646337
40
9.5534509
50
77.5572288
51
90.5513005
0
ARC
8
bottom_labelLayer
10
573.9079794
20
93.3774457
40
5.6393682
50
52.7027019
51
78.0053785
0
ARC
8
bottom_labelLayer
10
574.223807
20
93.9650506
40
4.9816542
50
22.2097932
51
51.4970604
0
ARC
8
bottom_labelLayer
10
584.2625048
20
92.8186772
40
6.0925822
50
119.4041769
51
150.1828849
0
ARC
8
bottom_labelLayer
10
584.9381184
20
91.7912882
40
7.3198089
50
118.2583347
51
120.0629951
0
ARC
8
bottom_labelLayer
10
584.9362789
20
91.7160236
40
7.3853267
50
95.8635232
51
117.9693135
0
ARC
8
bottom_labelLayer
10
585.1862273
20
89.9087129
40
9.2089386
50
89.9197011
51
96.2617637
0
ARC
8
bottom_labelLayer
10
585.2664687
20
88.9748315
40
10.1430343
50
79.9361104
51
90.3803648
0
ARC
8
bottom_labelLayer
10
585.9423116
20
92.6351365
40
6.4209995
50
62.9723342
51
80.1665044
0
ARC
8
bottom_labelLayer
10
586.6488185
20
94.0846194
40
4.8088568
50
44.2290058
51
62.622903
0
ARC
8
bottom_labelLayer
10
586.4386895
20
93.9917939
40
5.0248124
50
19.5611997
51
43.3161231
0
ARC
8
bottom_labelLayer
10
583.3868869
20
92.8455348
40
8.2844668
50
7.5041958
51
19.9645275
0
ARC
8
bottom_labelLayer
10
578.3370094
20
92.1363817
40
13.383779
50
359.7107432
51
7.6907253
0
ENDSEC
0
EOF