<?xml version="1.0" encoding="UTF-8" standalone="no"?>
<!-- Created with Inkscape (http://www.inkscape.org/) -->

<svg
   width="210mm"
   height="297mm"
   viewBox="0 0 210 297"
   version="1.1"
   id="svg5"
   inkscape:version="1.2.1 (9c6d41e410, 2022-07-14)"
   sodipodi:docname="frost_drought.svg"
   inkscape:export-filename="frost.png"
   inkscape:export-xdpi="96"
   inkscape:export-ydpi="96"
   xmlns:inkscape="http://www.inkscape.org/namespaces/inkscape"
   xmlns:sodipodi="http://sodipodi.sourceforge.net/DTD/sodipodi-0.dtd"
   xmlns="http://www.w3.org/2000/svg"
   xmlns:svg="http://www.w3.org/2000/svg">
  <sodipodi:namedview
     id="namedview7"
     pagecolor="#505050"
     bordercolor="#eeeeee"
     borderopacity="1"
     inkscape:pageshadow="0"
     inkscape:pageopacity="0"
     inkscape:pagecheckerboard="0"
     inkscape:document-units="mm"
     showgrid="false"
     inkscape:zoom="1.0482005"
     inkscape:cx="211.79154"
     inkscape:cy="237.54997"
     inkscape:window-width="1680"
     inkscape:window-height="979"
     inkscape:window-x="-8"
     inkscape:window-y="-8"
     inkscape:window-maximized="1"
     inkscape:current-layer="layer1"
     inkscape:showpageshadow="2"
     inkscape:deskcolor="#505050" />
  <defs
     id="defs2">
    <rect
       x="-269.98652"
       y="-218.46965"
       width="407.36481"
       height="276.66463"
       id="rect18041" />
  </defs>
  <g
     inkscape:label="Layer 1"
     inkscape:groupmode="layer"
     id="layer1">
    <text
       xml:space="preserve"
       style="font-style:normal;font-weight:normal;font-size:10.5833px;line-height:1.25;font-family:sans-serif;fill:#000000;fill-opacity:1;stroke:none;stroke-width:0.264583"
       x="-43.343353"
       y="-228.85646"
       id="text1572"><tspan
         sodipodi:role="line"
         id="tspan1570"
         style="stroke-width:0.264583"
         x="-43.343353"
         y="-228.85646" /></text>
    <g
       id="g18603"
       transform="translate(-11.863601,0.75725016)" />
    <text
       xml:space="preserve"
       transform="scale(0.26458333)"
       id="text18039"
       style="fill:black;fill-opacity:1;line-height:1.25;stroke:none;font-family:sans-serif;font-style:normal;font-weight:normal;font-size:40px;white-space:pre;shape-inside:url(#rect18041)" />
    <path
       id="path9742"
       style="fill:#000000;stroke-width:0.274431"
       d="m 47.48033,42.023196 0.0011,0.0016 c -0.66094,0 -0.847492,0.518772 -0.847492,2.355411 0,0.817819 -0.108191,1.486731 -0.237194,1.486731 -0.132001,0 -1.115869,-0.508119 -2.189014,-1.129128 -1.964717,-1.137626 -2.913568,-1.245756 -2.736268,-0.312126 0.051,0.267001 1.223777,1.152588 2.62723,1.985407 l 2.535762,1.505852 v 2.130618 c 0,1.172128 -0.06886,2.131137 -0.14986,2.131137 -0.08401,0 -0.508664,-0.185608 -0.945163,-0.410311 -0.658551,-0.340516 -0.808641,-0.609491 -0.878541,-1.57821 -0.069,-0.956424 -0.183031,-1.167371 -0.633037,-1.167371 -0.359574,0 -0.578538,0.213066 -0.636137,0.615982 -0.072,0.508214 -0.240057,0.604004 -0.960666,0.548804 -0.691507,-0.054 -0.889478,0.04825 -0.951878,0.482658 -0.057,0.389104 0.204026,0.70208 0.891934,1.072285 0.852308,0.459012 0.970484,0.651859 0.970484,1.577684 0,0.579908 -0.05069,1.054198 -0.113689,1.054198 -0.063,0 -0.988419,-0.504569 -2.05827,-1.121378 L 39.224012,52.131142 V 49.01557 c 0,-1.713934 -0.11108,-3.185242 -0.249081,-3.270083 -0.137999,-0.084 -0.445746,-0.07794 -0.685745,0.01291 -0.356145,0.138002 -0.436149,0.642006 -0.436149,2.745052 0,1.509332 -0.111271,2.577619 -0.270267,2.577619 -0.15,0 -0.892408,-0.38236 -1.652614,-0.850077 -1.452353,-0.893718 -2.193663,-0.896171 -2.193663,-0.0078 0,0.357603 0.493017,0.808731 1.509466,1.382345 0.830102,0.468606 1.508954,0.948695 1.508954,1.066602 0,0.116998 -0.850083,0.673234 -1.889292,1.234548 -2.356861,1.272926 -2.756874,1.701758 -2.153872,2.304769 0.400716,0.400805 0.670157,0.305015 3.185334,-1.131712 l 2.747637,-1.569368 1.794206,1.049033 c 0.986708,0.577212 1.796373,1.139301 1.799373,1.248503 0.003,0.108 -0.360352,0.387551 -0.80667,0.618566 -0.734409,0.379802 -0.901739,0.376428 -1.758548,-0.03307 -1.547455,-0.738019 -2.38031,-0.09294 -1.245404,0.964281 l 0.575159,0.535885 -0.575159,0.307991 c -0.675907,0.361804 -0.756467,1.059323 -0.14986,1.292428 0.234,0.09 0.899837,-0.05085 1.477947,-0.310059 0.991806,-0.447607 1.091171,-0.448091 1.766816,-0.0057 0.393435,0.258 0.657111,0.563094 0.58601,0.677995 -0.072,0.114012 -0.8825,0.657942 -1.803506,1.206656 l -1.674834,0.997871 -2.644799,-1.51102 c -1.454753,-0.831019 -2.725851,-1.511016 -2.825152,-1.511016 -0.099,0 -0.33452,0.18574 -0.522449,0.411342 -0.4749,0.572413 -0.12333,0.924452 2.18643,2.191081 1.061452,0.58171 1.930117,1.159444 1.930117,1.283644 0,0.123 -0.679318,0.608325 -1.509469,1.076936 -1.016408,0.573612 -1.50947,1.025774 -1.50947,1.383377 0,0.876324 0.681792,0.870625 2.125451,-0.01757 0.7512,-0.462307 1.501916,-0.840259 1.668116,-0.840259 0.192,0 0.331227,0.920412 0.381373,2.538347 0.075,2.395855 0.113782,2.543394 0.696082,2.626195 0.609653,0.087 0.617532,0.04775 0.617532,-3.075265 v -3.162596 l 1.900142,-1.110012 c 1.045253,-0.610513 1.971273,-1.109493 2.058273,-1.109493 0.087,0 0.159163,0.43656 0.159163,0.969968 0,0.81752 -0.150056,1.058727 -0.960665,1.53634 -0.570944,0.336902 -0.960665,0.781563 -0.960665,1.096574 0,0.637812 0.737397,0.983948 1.171506,0.549838 0.4899,-0.489908 0.706351,-0.369715 0.79995,0.443899 0.063,0.542714 0.239921,0.754476 0.635621,0.754476 0.4488,0 0.56429,-0.210177 0.633037,-1.159103 0.066,-0.907822 0.252071,-1.278927 0.865579,-1.71514 0.4299,-0.306001 0.855165,-0.556038 0.94516,-0.556038 0.09,0 0.164749,1.01862 0.161748,2.263944 v 2.264461 l -2.607074,1.466579 c -1.890916,1.063826 -2.607077,1.6123 -2.607077,1.997811 0,0.95672 0.748477,0.850759 2.929538,-0.41496 l 2.147673,-1.246436 0.07183,1.43092 c 0.03855,0.786913 0.134805,1.708547 0.209806,2.048454 v 5.29e-4 c 0.162,0.716714 1.082591,0.842952 1.335837,0.182936 0.093,-0.240004 0.167947,-1.164855 0.167947,-2.058273 0,-0.893424 0.0448,-1.62419 0.101803,-1.62419 0.057,0 1.047525,0.567724 2.201932,1.261938 2.115955,1.271731 2.9099,1.388211 2.9099,0.427882 0,-0.373505 -0.742222,-0.941036 -2.607077,-1.993162 l -2.607074,-1.47071 v -2.268596 c 0,-1.247725 0.07526,-2.269112 0.162263,-2.269112 0.09,0 0.514745,0.24905 0.944645,0.556557 0.612008,0.43561 0.79988,0.807947 0.865582,1.713074 0.06,0.842713 0.212915,1.180867 0.564822,1.247468 0.443446,0.084 0.547674,-0.06043 0.920874,-1.284161 0.09001,-0.297 0.195133,-0.305459 0.518832,-0.03876 0.5349,0.444011 1.235067,0.15286 1.235067,-0.513146 0,-0.315304 -0.389115,-0.760487 -0.960149,-1.097092 -0.809707,-0.477613 -0.960665,-0.718603 -0.960665,-1.535824 0,-0.533408 0.09271,-0.969966 0.206706,-0.969966 0.114009,0 1.009136,0.465881 1.989542,1.035595 l 1.782836,1.036114 0.07803,3.217892 c 0.078,3.21751 0.07818,3.217889 0.754991,3.217891 0.672603,0 0.676963,-0.01802 0.676963,-2.607077 0,-1.905344 0.09327,-2.605942 0.34313,-2.602942 0.189,0.0024 0.949328,0.361667 1.690336,0.797883 1.420214,0.83612 2.083078,0.839735 2.083078,0.01188 0,-0.317704 -0.549424,-0.813401 -1.509469,-1.36271 -0.830107,-0.474983 -1.508951,-0.957466 -1.508951,-1.071769 0,-0.114001 0.868188,-0.683847 1.929598,-1.265555 2.194857,-1.203029 2.540799,-1.527942 2.2996,-2.156457 -0.258001,-0.670814 -0.573561,-0.572355 -3.393075,1.053682 l -2.593639,1.495517 -1.522904,-0.851111 c -2.313361,-1.293633 -2.435974,-1.463429 -1.43092,-1.983343 0.776698,-0.401699 0.923253,-0.400569 1.792655,0.01394 1.025451,0.489011 1.820561,0.360865 1.820561,-0.294039 0,-0.225002 -0.267271,-0.554033 -0.594281,-0.728639 l -0.593246,-0.317291 0.636138,-0.480592 c 0.406292,-0.306602 0.575106,-0.641252 0.465606,-0.926557 -0.213,-0.558615 -0.805532,-0.567669 -1.848983,-0.02791 -0.727202,0.375901 -0.893476,0.374949 -1.632976,-0.0078 -1.045554,-0.540613 -1.034722,-0.752152 0.06873,-1.308963 0.490498,-0.249004 1.330444,-0.713557 1.86655,-1.034563 l 0.975136,-0.583427 2.682007,1.570447 c 2.450721,1.434931 2.719927,1.532186 3.118157,1.133779 0.601204,-0.601215 0.195418,-1.038944 -2.159043,-2.320271 -1.035007,-0.563716 -1.882923,-1.10826 -1.884121,-1.210262 -7.94e-4,-0.102 0.677809,-0.574122 1.507915,-1.049031 0.982554,-0.562216 1.508954,-1.042532 1.508954,-1.376143 0,-0.885015 -0.517353,-0.889516 -2.062406,-0.01757 -0.823209,0.464711 -1.622042,0.84491 -1.775087,0.84491 -0.168,0 -0.279051,-1.018389 -0.279051,-2.583821 0,-2.586659 -0.16487,-3.016273 -1.02888,-2.698027 -0.245999,0.09 -0.34313,0.998551 -0.34313,3.237529 v 3.111439 l -1.83348,1.09864 c -1.008608,0.603911 -1.934673,1.035314 -2.058274,0.959114 -0.378433,-0.234 -0.248861,-1.688478 0.189138,-2.126485 0.227999,-0.228002 0.666567,-0.493808 0.976167,-0.592212 0.382291,-0.120001 0.535829,-0.369646 0.478525,-0.772562 -0.069,-0.484214 -0.246266,-0.581702 -0.957567,-0.5271 -0.720307,0.054 -0.888367,-0.04179 -0.960662,-0.548804 -0.057,-0.403802 -0.275794,-0.615984 -0.636138,-0.615982 -0.449701,0 -0.564253,0.210045 -0.633552,1.167368 -0.069,0.968426 -0.219176,1.237692 -0.877983,1.5782 -0.43651,0.225002 -0.862063,0.410311 -0.945163,0.410311 -0.084,0 -0.14986,-0.975082 -0.14986,-2.167311 v -2.167826 l 2.600872,-1.468126 c 1.748761,-0.987321 2.603178,-1.628698 2.607078,-1.957503 0.01281,-0.933321 -0.830313,-0.813221 -2.952274,0.422195 l -2.118736,1.234033 -0.07183,-1.40715 c -0.105,-2.096444 -0.284811,-2.641698 -0.865063,-2.641698 z m 2.351277,11.422041 c 0.288007,0.0081 0.369486,0.332031 0.369486,1.05265 0,0.653418 -0.188743,0.96661 -0.796851,1.326018 -1.082707,0.639617 -1.123961,0.619119 -1.123961,-0.56741 0,-0.851717 0.141156,-1.121606 0.784964,-1.501717 0.347146,-0.204001 0.593862,-0.31434 0.766362,-0.309541 z m -4.740796,5.29e-4 c 0.174006,5.29e-4 0.417976,0.108326 0.758093,0.309026 0.643508,0.380103 0.784965,0.650298 0.784965,1.501716 0,1.187731 -0.122928,1.23629 -1.166336,0.458373 -0.503745,-0.375905 -0.754478,-0.814039 -0.754478,-1.31775 0,-0.655513 0.08975,-0.951746 0.377756,-0.950846 z m -0.866097,3.4339 c 0.319291,0.01244 0.606758,0.174014 1.015957,0.487826 l 0.66456,0.51108 -0.857311,0.443383 c -1.072245,0.554413 -1.124887,0.55218 -2.086695,-0.08113 l -0.790649,-0.5209 0.845426,-0.4377 c 0.5379,-0.279004 0.888987,-0.414343 1.208196,-0.402043 z m 6.662642,0.06615 c 0.03035,-5.29e-4 0.06065,1.93e-4 0.09095,0.0021 l -5.29e-4,5.29e-4 c 0.242999,0.01585 0.490202,0.111035 0.841809,0.294037 0.468299,0.243001 0.851628,0.495472 0.851628,0.563274 0,0.069 -0.364353,0.311975 -0.809771,0.542086 v -5.29e-4 c -0.978606,0.506103 -1.047377,0.505547 -2.01073,-0.01654 -0.876308,-0.475213 -0.808747,-0.730317 0.316778,-1.196827 0.289504,-0.120751 0.507423,-0.184206 0.719852,-0.188103 z m -4.543909,2.415874 h 5.29e-4 c 0.230566,0.0095 0.29042,0.328943 0.29042,1.006139 0,0.862822 -0.12613,1.112038 -0.699183,1.373044 -1.038008,0.472805 -1.221629,0.399473 -1.221629,-0.485243 0,-0.540912 0.236945,-0.988899 0.722953,-1.372008 0.442111,-0.347696 0.726596,-0.528796 0.90692,-0.521932 z m 2.165244,0.0047 c 0.01495,-5.29e-4 0.03057,9.8e-5 0.04754,0.0021 0.162002,0.01887 0.42272,0.152733 0.835091,0.364836 0.660908,0.341702 0.810287,0.594308 0.810287,1.372526 0,1.013421 -0.243242,1.129475 -1.303795,0.618567 -0.481809,-0.231002 -0.617533,-0.530103 -0.617533,-1.353923 0,-0.702858 0.0042,-0.996138 0.22841,-1.004073 z"
       sodipodi:nodetypes="ccssccccsscssccccssccsccsscscsccccccccccccccccccsccscscsccsccsscsscsccscccsccccccsscsccsscccccscsscccssccscscccccccsccccccccccccccscsscscccsccccsccsscccccccccscsccccscscccccccccccccccsccccccccscscsccccscscc" />
    <path
       id="path9742-6"
       style="fill:#000000;stroke-width:0.262008"
       d="m 92.852469,43.74991 -0.72037,0.0827 -0.72037,0.0827 -0.076,2.45049 c -0.0489,1.58123 0.0344,2.57975 0.22893,2.81637 0.40457,0.48725 0.93185,0.46464 1.12861,-0.0481 0.0874,-0.22796 0.15916,-1.53278 0.15916,-2.89957 z m 6.41046,1.86862 c -0.4518,0 -2.81983,4.13462 -2.6386,4.60696 0.0784,0.20412 0.35207,0.37016 0.60875,0.36897 0.65305,-0.003 3.029141,-4.17907 2.64274,-4.64468 -0.15129,-0.1821 -0.42711,-0.33125 -0.61289,-0.33125 z m -14.40945,0.13074 c -0.27986,0 -0.54476,0.18666 -0.5886,0.41445 -0.0673,0.34967 1.54887,3.34009 2.35232,4.35219 0.32828,0.41353 0.99739,0.13832 0.9865,-0.40566 -0.004,-0.23675 -0.51046,-1.31493 -1.12448,-2.39572 -0.78848,-1.38795 -1.26625,-1.96526 -1.62574,-1.96526 z m 7.34425,4.45813 c -1.9044,-7.9e-4 -2.60998,0.11429 -3.66799,0.59945 -1.65009,0.75666 -3.37708,2.41805 -4.27571,4.11292 -0.60956,1.14969 -0.6957,1.61485 -0.69866,3.79925 -0.004,2.79272 0.42481,4.00756 2.11356,5.98052 0.90051,1.05204 3.01144,2.27523 4.63745,2.68717 1.46391,0.37085 3.86341,0.0195 5.59655,-0.81959 1.88833,-0.91403 3.30469,-2.38012 4.210601,-4.3589 0.56799,-1.2396 0.63924,-1.71148 0.55862,-3.69952 -0.14528,-3.58331 -1.615821,-5.937 -4.731491,-7.57318 -1.21484,-0.63796 -1.67383,-0.72718 -3.74293,-0.72812 z m 12.506731,0.72037 c -0.03,0.002 -0.0593,0.006 -0.0889,0.0139 -0.82183,0.21493 -4.40891,2.39201 -4.41782,2.68149 -0.004,0.15133 0.13278,0.41616 0.30592,0.58911 0.17271,0.17293 0.35172,0.3142 0.39843,0.3142 0.19114,0 4.29408,-2.45578 4.40645,-2.63757 0.24086,-0.38936 -0.16473,-0.98904 -0.6041,-0.96118 z m -25.217061,0.12867 c -0.0278,-7.9e-4 -0.0542,2.7e-4 -0.0791,0.003 -0.23872,0.0214 -0.34695,0.18333 -0.38809,0.4718 -0.0621,0.43376 0.35031,0.78263 2.07998,1.75959 1.62433,0.91742 2.24254,1.14787 2.50114,0.93327 0.64457,-0.53495 0.34288,-0.91338 -1.62109,-2.03708 -1.32642,-0.75893 -2.07655,-1.11788 -2.49287,-1.13017 z m -2.35541,7.11998 v 0.67335 0.67386 l 2.68562,-0.0749 c 2.48601,-0.0691 2.68562,-0.11386 2.68562,-0.59893 0,-0.48509 -0.19973,-0.5293 -2.68562,-0.59842 z m 24.366981,5.3e-4 v 0.67283 0.67334 l 2.81637,-0.0749 c 2.61715,-0.0691 2.81688,-0.11149 2.81688,-0.59841 0,-0.48691 -0.19956,-0.52878 -2.81688,-0.5979 z m -0.89813,5.09478 c -0.0181,-2.6e-4 -0.033,0.002 -0.0439,0.006 -0.893231,0.34277 -0.29898,1.10499 1.80196,2.312 1.18453,0.68047 2.22782,1.24092 2.3182,1.24489 0.29572,0.0133 0.8008,-0.7506 0.65371,-0.98857 -0.29021,-0.46939 -4.16877,-2.56584 -4.72994,-2.57401 z m -17.120401,0.0791 c -0.44975,0.0133 -1.16727,0.34931 -2.35283,1.04179 -1.98608,1.16011 -2.50545,1.75526 -1.98644,2.27428 0.29614,0.29615 0.49214,0.21556 2.82773,-1.1591 1.24616,-0.73344 2.22269,-1.46158 2.17041,-1.6185 -0.12129,-0.36408 -0.3092,-0.54893 -0.65887,-0.53847 z m 3.61269,3.53466 c -0.35913,0.0227 -0.79184,0.619 -1.64589,2.08256 -1.30042,2.22853 -1.45342,2.72187 -0.91312,2.93988 0.60326,0.24342 0.67862,0.17994 1.61385,-1.35961 1.56077,-2.5693 1.73671,-2.98604 1.42162,-3.36569 -0.16543,-0.19941 -0.31334,-0.30742 -0.47646,-0.29714 z m 10.0211,0.008 c -0.0103,-5.3e-4 -0.0201,2.6e-4 -0.0295,0.002 -0.75471,0.14533 -0.61034,0.85425 0.62064,3.04323 1.1841,2.10561 1.62309,2.47112 2.17196,1.80971 0.387701,-0.46718 -2.11217,-4.82911 -2.76314,-4.855 z m -5.12579,1.30845 c -0.58221,-0.0227 -0.70796,0.66537 -0.70796,2.81584 0,1.40161 0.0835,2.63153 0.18551,2.73369 0.102,0.10221 0.42676,0.15164 0.72089,0.10955 0.49239,-0.0705 0.54082,-0.28745 0.60926,-2.7311 0.0613,-2.19025 0.004,-2.68084 -0.32711,-2.80809 -0.18685,-0.0718 -0.34636,-0.11462 -0.48059,-0.11989 z"
       sodipodi:nodetypes="ccccccscscccssssccscsscsccccscscccscsscccccsccccccsccccccsccsccccssccsssccsssccccsscccsscccc" />
  </g>
</svg>
